<svg width="28" height="28" viewBox="0 0 28 28" fill="none" xmlns="http://www.w3.org/2000/svg">
<path d="M13.9993 7.00033C15.2827 7.00033 16.3327 8.05032 16.3327 9.33366C16.3327 10.617 15.2827 11.667 13.9993 11.667C12.716 11.667 11.666 10.617 11.666 9.33366C11.666 8.05032 12.716 7.00033 13.9993 7.00033ZM13.9993 17.5003C17.1493 17.5003 20.766 19.0053 20.9993 19.8337V21.0003H6.99935V19.8453C7.23268 19.0053 10.8493 17.5003 13.9993 17.5003ZM13.9993 4.66699C11.421 4.66699 9.33268 6.75533 9.33268 9.33366C9.33268 11.912 11.421 14.0003 13.9993 14.0003C16.5777 14.0003 18.666 11.912 18.666 9.33366C18.666 6.75533 16.5777 4.66699 13.9993 4.66699ZM13.9993 15.167C10.8843 15.167 4.66602 16.7303 4.66602 19.8337V23.3337H23.3327V19.8337C23.3327 16.7303 17.1143 15.167 13.9993 15.167Z" fill="#0046CF"/>
</svg>
