<svg width="15" height="14" viewBox="0 0 15 14" fill="none" xmlns="http://www.w3.org/2000/svg">
<path d="M6.7243 3.66683H8.12874V5.00016H6.7243V3.66683ZM6.7243 6.3335H8.12874V10.3335H6.7243V6.3335ZM7.42652 0.333496C3.55025 0.333496 0.404297 3.32016 0.404297 7.00016C0.404297 10.6802 3.55025 13.6668 7.42652 13.6668C11.3028 13.6668 14.4487 10.6802 14.4487 7.00016C14.4487 3.32016 11.3028 0.333496 7.42652 0.333496ZM7.42652 12.3335C4.32972 12.3335 1.80874 9.94016 1.80874 7.00016C1.80874 4.06016 4.32972 1.66683 7.42652 1.66683C10.5233 1.66683 13.0443 4.06016 13.0443 7.00016C13.0443 9.94016 10.5233 12.3335 7.42652 12.3335Z" fill="#667085"/>
</svg>
