<svg width="22" height="22" viewBox="0 0 22 22" fill="none" xmlns="http://www.w3.org/2000/svg">
<path d="M21.8631 3.82857C21.6342 2.8 21.3481 2.17143 20.6041 1.42857C19.8602 0.685714 19.2307 0.4 18.2007 0.171429C17.5712 0.0571428 16.5983 0 15.5683 0C15.5111 0 15.1105 0 14.996 0H6.98153C6.9243 0 6.52373 0 6.40927 0C5.43644 0 4.40638 0.0571428 3.83412 0.171429C2.86128 0.4 2.2318 0.685714 1.43064 1.42857C0.686708 2.22857 0.40058 2.85714 0.171677 3.82857C0.0572257 4.45714 0 5.42857 0 6.45714C0 6.51429 0 6.91429 0 7.02857V15.0286C0 15.0857 0 15.4857 0 15.6C0 16.5714 0.0572257 17.6 0.171677 18.1714C0.40058 19.2 0.686708 19.8286 1.43064 20.5714C2.17457 21.3143 2.80406 21.6 3.83412 21.8286C4.4636 21.9429 5.43644 22 6.40927 22C6.4665 22 6.86708 22 6.98153 22H14.996C15.0532 22 15.4538 22 15.5683 22C16.5411 22 17.5712 21.9429 18.1434 21.8286C19.1735 21.6 19.803 21.3143 20.5469 20.5714C21.2908 19.8286 21.577 19.2 21.8059 18.1714C21.9203 17.5429 21.9776 16.5714 21.9776 15.6C21.9776 15.5429 21.9776 15.1429 21.9776 15.0286V6.97143C21.9776 6.91429 21.9776 6.51429 21.9776 6.4C22.0348 5.42857 21.9776 4.45714 21.8631 3.82857ZM18.0856 7.54286L10.0446 15.5714C9.9301 15.6857 9.75842 15.6857 9.64397 15.5714L3.96994 9.90601C3.85549 9.79172 3.85549 9.62029 3.96994 9.50601L5 8.53458C5.11445 8.42029 5.28613 8.42029 5.40058 8.53458L9.87288 13L16.7122 6.17143C16.8267 6.05714 16.9983 6.05714 17.1128 6.17143L18.1429 7.2C18.2001 7.2 18.2001 7.42857 18.0856 7.54286Z" fill="#0046CF"/>
</svg>
