<svg width="260" height="260" viewBox="0 0 260 260" fill="none" xmlns="http://www.w3.org/2000/svg">
<g clip-path="url(#clip0_593_21189)">
<rect width="260" height="260" rx="130" fill="#F9FAFB"/>
<path d="M66.9011 97.7782C51.9546 62.8107 87.2132 59.9385 92.3905 74.5705C102.711 92.9991 98.0251 101.176 90.6352 103.799C92.3077 110.867 96.7828 126.827 91.9611 132.638C85.9338 139.902 81.9532 143.39 78.2518 134.08C75.2907 126.632 73.0461 111.112 72.2939 104.283C69.9795 104.991 65.6608 104.68 66.9011 97.7782Z" fill="#FFFAE2"/>
<path d="M81.4589 104.842C84.2944 105.084 87.6461 104.859 90.6352 103.798M92.3905 74.5705C87.2132 59.9385 51.9546 62.8107 66.9011 97.7782M92.3905 74.5705C102.711 92.9991 98.0251 101.176 90.6352 103.798M92.3905 74.5705C92.3905 74.5705 72.0729 86.4581 82.7252 79.4696C93.3775 72.4811 71.6023 83.647 71.6023 83.647L73.5781 95.4478C70.9443 93.9719 68.0591 95.3739 66.9011 97.7782M66.9011 97.7782C65.6608 104.68 69.9795 104.991 72.2939 104.283C73.0461 111.112 75.2907 126.632 78.2518 134.08C81.9532 143.39 85.9338 139.902 91.9611 132.638C96.7828 126.827 92.3077 110.867 90.6352 103.798" stroke="#232540" stroke-width="1.7325" stroke-linecap="round" stroke-linejoin="round"/>
<path d="M66.7196 98.0537C51.3439 65.4589 85.5652 57.2313 92.7729 74.572L71.7935 83.4682L73.9362 96.2122C69.564 93.8577 66.8893 97.1096 66.7196 98.0537Z" fill="#232540"/>
<path d="M44.9922 260.558L54.1529 220.512H99.0402L87.4977 260.558H44.9922Z" fill="#232540"/>
<path d="M126.308 260.558L118.4 217.581H83.459V237.796L91.2497 253.232L98.9066 260.558H126.308Z" fill="#232540"/>
<path d="M90.2754 247.372L92.9534 233.209" stroke="#0046CF" stroke-width="1.7325" stroke-linecap="round" stroke-linejoin="round"/>
<path d="M170.038 128.638C173.432 124.526 180.884 115.92 182.861 111.034C182.861 111.034 188.852 99.6613 187.679 98.2638C186.529 96.8933 183.012 104.088 180.502 107.252C183.652 103.259 187.044 93.0316 185.785 92.5836C183.641 91.8212 178.152 102.849 175.642 106.718C178.185 102.713 184.385 91.2441 182.444 88.7599C181.575 87.6469 174.653 99.0171 172.23 104.246C173.679 101.019 176.04 93.024 176.134 91.3947C176.439 86.0674 168.06 100.662 165.76 106.649L158.048 126.954L170.038 128.638Z" fill="#FFFAE2" stroke="#232540" stroke-width="1.7325" stroke-linecap="round" stroke-linejoin="round"/>
<path d="M159.889 111.104C159.367 114.576 156.673 121.388 154.922 124.396L161.95 121.026L168.978 117.656C171.33 115.327 167.312 111.888 165.639 110.186C164.916 102.652 165.206 99.0078 163.296 98.9177C160.387 98.7804 160.643 106.096 159.889 111.104Z" fill="#FFFAE2"/>
<path d="M154.937 124.396C156.692 121.382 159.393 114.558 159.917 111.079C160.672 106.061 160.416 98.7315 163.333 98.8691C165.248 98.9594 164.957 102.61 165.682 110.159C167.888 110.029 169.365 114.992 167.007 117.325" stroke="#232540" stroke-width="1.7325" stroke-linecap="round" stroke-linejoin="round"/>
<path d="M136.933 152.774C123.048 113.024 99.3766 109.511 89.2766 112.723H75.156C47.2092 116.336 12.4962 166.325 16.0264 183.188C18.8505 196.679 41.8845 201.194 51.8865 201.796L49.5626 224.443L130.167 228.659L123.107 172.648C124.774 177.366 130.991 186.079 142.523 183.188C154.054 180.297 169.02 146.474 174.511 128.908L157.82 112.723L136.933 152.774Z" fill="#0046CF"/>
<path d="M69.9237 109.011C69.9237 109.011 72.5206 119.966 74.1074 122L93.3773 120.187L94.5213 107.845L69.9237 109.011Z" fill="#0046CF"/>
<path d="M46.9375 171.927C46.9374 164.977 56.1023 156.147 56.1023 156.147L53.5361 178.127C49.6933 176.383 46.9375 174.032 46.9375 171.927Z" fill="#FFFAE2"/>
<path d="M74.615 183.574C74.615 183.574 62.3851 182.141 53.5361 178.127M53.5361 178.127C49.6933 176.383 46.9375 174.032 46.9375 171.927C46.9374 164.977 56.1023 156.147 56.1023 156.147L53.5361 178.127Z" stroke="#232540" stroke-width="1.7325" stroke-linecap="round" stroke-linejoin="round"/>
<path d="M122.089 169.109C122.089 169.109 115.124 141.682 107.242 136.234" stroke="#232540" stroke-width="1.7325" stroke-linecap="round" stroke-linejoin="round"/>
<path d="M88.0039 88.2822C100.975 85.5233 103.192 85.6233 88.9105 92.5924L88.0039 88.2822Z" fill="#FFFAE2"/>
<path d="M89.6211 87.3057C99.9384 87.0503 102.369 86.4693 91.2935 91.9991" stroke="#232540" stroke-width="1.7325" stroke-linecap="round" stroke-linejoin="round"/>
<path d="M91.3041 92.1402L92.6436 95.8989C91.6589 97.1659 89.0438 98.9211 86.4607 95.8057" stroke="#232540" stroke-width="1.7325" stroke-linecap="round" stroke-linejoin="round"/>
<ellipse rx="0.983239" ry="2.33996" transform="matrix(0.911063 -0.415049 0.396713 0.916737 92.078 83.864)" fill="#232540"/>
<ellipse rx="0.98324" ry="2.33996" transform="matrix(0.911063 -0.415049 0.396714 0.916737 83.7928 87.1677)" fill="#232540"/>
<rect x="126.469" y="65.2578" width="73.4766" height="44.0859" rx="4.89844" fill="#FFFAE2" stroke="#232540" stroke-width="2.32031"/>
<path d="M138.07 87.3008H163.594" stroke="#232540" stroke-width="2.32031" stroke-linejoin="round"/>
<path d="M138.07 78.0195H163.594" stroke="#232540" stroke-width="2.32031" stroke-linejoin="round"/>
<path d="M138.07 96.582H163.594" stroke="#232540" stroke-width="2.32031" stroke-linejoin="round"/>
<rect x="170.555" y="75.6992" width="16.2422" height="22.043" stroke="#232540" stroke-width="2.32031"/>
<circle cx="205.359" cy="62.9375" r="18.5625" fill="#FFF7EF"/>
<path d="M191.873 60.6054V52.8951C191.873 52.6163 191.98 52.3489 192.17 52.1517C192.361 51.9545 192.619 51.8438 192.888 51.8438H213.191C213.46 51.8438 213.718 51.9545 213.909 52.1517C214.099 52.3489 214.206 52.6163 214.206 52.8951V60.6054C214.206 71.647 205.158 75.3052 203.351 75.9255C203.149 75.9975 202.93 75.9975 202.728 75.9255C200.921 75.3052 191.873 71.647 191.873 60.6054Z" fill="#65BF73"/>
<path d="M213.19 50.792H192.888C192.349 50.7926 191.833 51.0144 191.453 51.4086C191.072 51.8028 190.858 52.3373 190.857 52.8948V60.605C190.857 72.3613 200.479 76.2608 202.408 76.9231C202.817 77.067 203.261 77.067 203.67 76.9231C205.599 76.2608 215.221 72.3613 215.221 60.605V52.8948C215.22 52.3373 215.006 51.8028 214.625 51.4086C214.245 51.0144 213.729 50.7926 213.19 50.792ZM213.19 60.605C213.19 70.8899 204.771 74.327 203.039 74.9245C201.323 74.3338 192.888 70.8999 192.888 60.605V52.8948H213.19V60.605Z" fill="#232540"/>
<path d="M200.478 67.3229C200.667 67.5095 200.918 67.6136 201.179 67.6136C201.44 67.6136 201.691 67.5095 201.879 67.3229L209.324 59.9631C209.422 59.8682 209.501 59.7541 209.556 59.6274C209.611 59.5007 209.642 59.364 209.645 59.225C209.649 59.0861 209.626 58.9477 209.578 58.818C209.53 58.6882 209.458 58.5696 209.365 58.4691C209.272 58.3685 209.161 58.288 209.039 58.2321C208.916 58.1763 208.783 58.1462 208.649 58.1437C208.515 58.1412 208.382 58.1663 208.257 58.2175C208.132 58.2687 208.018 58.345 207.922 58.442L201.179 65.1089L198.157 62.1219C198.061 62.0249 197.947 61.9486 197.823 61.8974C197.698 61.8462 197.565 61.8211 197.43 61.8236C197.296 61.8261 197.164 61.8562 197.041 61.912C196.918 61.9678 196.807 62.0484 196.714 62.1489C196.622 62.2495 196.549 62.3681 196.501 62.4978C196.453 62.6276 196.43 62.7659 196.434 62.9049C196.438 63.0438 196.468 63.1806 196.523 63.3073C196.579 63.434 196.658 63.5481 196.756 63.643L200.478 67.3229Z" fill="#232540"/>
</g>
<defs>
<clipPath id="clip0_593_21189">
<rect width="260" height="260" rx="130" fill="white"/>
</clipPath>
</defs>
</svg>
