<svg width="28" height="29" viewBox="0 0 28 29" fill="none" xmlns="http://www.w3.org/2000/svg">
<rect width="28" height="28" transform="translate(0 0.283325)" fill="none"/>
<path d="M14 24.2833C15.1 24.2833 16 23.3833 16 22.2833H12C12 23.3833 12.9 24.2833 14 24.2833ZM20 18.2833V13.2833C20 10.2133 18.37 7.64333 15.5 6.96333V4.78333H12.5V6.96333C9.64 7.64333 8 10.2033 8 13.2833V18.2833L6 20.2833V21.2833H22V20.2833L20 18.2833ZM18 19.2833H10V13.2833C10 10.8033 11.51 8.78333 14 8.78333C16.49 8.78333 18 10.8033 18 13.2833V19.2833Z" fill="#101828"/>
</svg>
