<svg width="260" height="260" viewBox="0 0 260 260" fill="none" xmlns="http://www.w3.org/2000/svg">
<g clip-path="url(#clip0_2080_30735)">
<rect width="260" height="260" rx="130" fill="#F9FAFB"/>
<path d="M66.902 97.7782C51.9556 62.8107 87.2142 59.9385 92.3915 74.5705C102.712 92.9991 98.0261 101.176 90.6362 103.799C92.3086 110.867 96.7838 126.827 91.962 132.638C85.9348 139.902 81.9542 143.39 78.2528 134.08C75.2917 126.632 73.0471 111.112 72.2949 104.283C69.9805 104.991 65.6618 104.68 66.902 97.7782Z" fill="#FFFAE2"/>
<path d="M81.4598 104.842C84.2954 105.084 87.6471 104.859 90.6362 103.798M92.3915 74.5705C87.2142 59.9385 51.9556 62.8107 66.902 97.7782M92.3915 74.5705C102.712 92.9991 98.0261 101.176 90.6362 103.798M92.3915 74.5705C92.3915 74.5705 72.0739 86.4581 82.7262 79.4696C93.3785 72.4811 71.6033 83.647 71.6033 83.647L73.5791 95.4478C70.9453 93.9719 68.0601 95.3739 66.902 97.7782M66.902 97.7782C65.6618 104.68 69.9805 104.991 72.2949 104.283C73.0471 111.112 75.2917 126.632 78.2528 134.08C81.9542 143.39 85.9348 139.902 91.962 132.638C96.7838 126.827 92.3086 110.867 90.6362 103.798" stroke="#232540" stroke-width="1.7325" stroke-linecap="round" stroke-linejoin="round"/>
<path d="M66.7196 98.0537C51.3439 65.4589 85.5652 57.2313 92.7729 74.572L71.7935 83.4682L73.9362 96.2122C69.564 93.8577 66.8893 97.1096 66.7196 98.0537Z" fill="#232540"/>
<path d="M44.9932 260.558L54.1538 220.512H99.0412L87.4987 260.558H44.9932Z" fill="#232540"/>
<path d="M126.309 260.558L118.401 217.581H83.46V237.796L91.2507 253.232L98.9076 260.558H126.309Z" fill="#232540"/>
<path d="M90.2764 247.372L92.9544 233.209" stroke="#0046CF" stroke-width="1.7325" stroke-linecap="round" stroke-linejoin="round"/>
<path d="M170.039 128.638C173.433 124.526 180.885 115.92 182.862 111.034C182.862 111.034 188.853 99.6613 187.68 98.2638C186.53 96.8933 183.013 104.088 180.503 107.252C183.653 103.259 187.045 93.0316 185.786 92.5836C183.642 91.8212 178.153 102.849 175.643 106.718C178.186 102.713 184.386 91.2441 182.445 88.7599C181.576 87.6469 174.654 99.0171 172.231 104.246C173.68 101.019 176.041 93.024 176.135 91.3947C176.44 86.0674 168.061 100.662 165.761 106.649L158.049 126.954L170.039 128.638Z" fill="#FFFAE2" stroke="#232540" stroke-width="1.7325" stroke-linecap="round" stroke-linejoin="round"/>
<path d="M159.889 111.104C159.367 114.576 156.673 121.388 154.922 124.396L161.95 121.026L168.978 117.656C171.33 115.327 167.312 111.888 165.639 110.186C164.916 102.652 165.206 99.0078 163.296 98.9177C160.387 98.7804 160.643 106.096 159.889 111.104Z" fill="#FFFAE2"/>
<path d="M154.937 124.396C156.692 121.382 159.393 114.558 159.917 111.079C160.672 106.061 160.416 98.7315 163.333 98.8691C165.248 98.9594 164.957 102.61 165.682 110.159C167.888 110.029 169.365 114.992 167.007 117.325" stroke="#232540" stroke-width="1.7325" stroke-linecap="round" stroke-linejoin="round"/>
<path d="M136.933 152.774C123.048 113.024 99.3766 109.511 89.2766 112.723H75.156C47.2092 116.336 12.4962 166.325 16.0264 183.188C18.8505 196.679 41.8845 201.194 51.8865 201.796L49.5626 224.443L130.167 228.659L123.107 172.648C124.774 177.366 130.991 186.079 142.523 183.188C154.054 180.297 169.02 146.474 174.511 128.908L157.82 112.723L136.933 152.774Z" fill="#0046CF"/>
<path d="M69.9237 109.011C69.9237 109.011 72.5206 119.966 74.1074 122L93.3773 120.187L94.5213 107.845L69.9237 109.011Z" fill="#0046CF"/>
<path d="M46.9375 171.927C46.9374 164.977 56.1023 156.147 56.1023 156.147L53.5361 178.127C49.6933 176.383 46.9375 174.032 46.9375 171.927Z" fill="#FFFAE2"/>
<path d="M74.615 183.574C74.615 183.574 62.3851 182.141 53.5361 178.127M53.5361 178.127C49.6933 176.383 46.9375 174.032 46.9375 171.927C46.9374 164.977 56.1023 156.147 56.1023 156.147L53.5361 178.127Z" stroke="#232540" stroke-width="1.7325" stroke-linecap="round" stroke-linejoin="round"/>
<path d="M122.088 169.109C122.088 169.109 115.123 141.682 107.241 136.234" stroke="#232540" stroke-width="1.7325" stroke-linecap="round" stroke-linejoin="round"/>
<path d="M88.0049 88.2822C100.976 85.5233 103.193 85.6233 88.9115 92.5924L88.0049 88.2822Z" fill="#FFFAE2"/>
<path d="M89.6221 87.3057C99.9394 87.0503 102.37 86.4693 91.2945 91.9991" stroke="#232540" stroke-width="1.7325" stroke-linecap="round" stroke-linejoin="round"/>
<path d="M86.8563 96.9464L86.8303 92.9562C88.1775 92.0845 91.225 91.2892 92.6371 95.0817" stroke="#232540" stroke-width="1.7325" stroke-linecap="round" stroke-linejoin="round"/>
<ellipse rx="0.983239" ry="2.33996" transform="matrix(0.911063 -0.415049 0.396713 0.916737 92.078 83.864)" fill="#232540"/>
<ellipse rx="0.98324" ry="2.33996" transform="matrix(0.911063 -0.415049 0.396714 0.916737 83.7948 87.1677)" fill="#232540"/>
</g>
<defs>
<clipPath id="clip0_2080_30735">
<rect width="260" height="260" rx="130" fill="white"/>
</clipPath>
</defs>
</svg>
