<svg width="201" height="176" viewBox="0 0 201 176" fill="none" xmlns="http://www.w3.org/2000/svg">
<path d="M27.4354 122.316L24.3795 124.326C22.2326 119.215 21.1655 115.332 22.2432 114.802C22.2453 114.802 24.6305 117.908 27.4354 122.316Z" fill="#D6E7FA"/>
<path d="M36.3101 143.679C36.3122 143.801 36.3144 143.921 36.3122 144.044C32.822 144.703 20.877 126.634 20.877 126.634L24.382 124.326L27.4379 122.316C31.3921 128.534 36.1878 137.342 36.3101 143.679Z" fill="url(#paint0_linear_1573_38981)"/>
<path d="M180.477 64.9419C180.477 64.9419 119.887 95.0267 109.806 101.401C99.7233 107.775 41.6369 142.805 41.6369 142.805C41.6369 142.805 41.5694 142.059 41.3775 140.782C40.5656 135.434 37.5224 120.758 27.8192 112.371C27.4817 112.076 27.1338 111.789 26.7773 111.512C26.7773 111.512 61.3428 95.375 84.2859 84.1891C92.8081 80.036 99.7254 76.5649 102.674 74.8568C105.282 73.3451 110.15 70.5518 116.038 67.1757C134.715 56.469 163.685 39.9202 163.685 39.9202C163.685 39.9202 178.372 39.5718 180.477 64.9419Z" fill="url(#paint1_linear_1573_38981)"/>
<path d="M41.3782 140.782L37.3417 143.411L36.7786 143.776L36.7744 143.778L36.4095 144.017L36.3125 144.08C36.3125 144.067 36.3125 144.053 36.3125 144.042C36.3146 143.922 36.3125 143.799 36.3104 143.677C36.1881 137.341 31.3945 128.532 27.4381 122.316C24.6333 117.908 22.248 114.802 22.248 114.802C22.267 114.793 22.286 114.785 22.305 114.776L27.822 112.372C37.5231 120.758 40.5663 135.434 41.3782 140.782Z" fill="url(#paint2_linear_1573_38981)"/>
<path opacity="0.5" d="M119.875 92.474C118.363 96.2195 115.164 99.2325 110.889 100.417C103.421 102.482 95.4853 98.1916 93.1613 90.8292C92.0266 87.2378 92.44 83.583 94.0238 80.5363C95.6878 77.3334 98.6487 74.8146 102.474 73.7525C109.946 71.6855 117.884 75.9758 120.206 83.3381C121.2 86.4819 121.008 89.6807 119.875 92.474Z" fill="#9C9BAE"/>
<path d="M110.538 90.6329L110.002 90.4598L98.9451 126.63C95.1785 126.435 89.7649 115.682 89.7649 115.682L78.4336 123.215C82.5692 117.625 84.0202 89.8137 90.638 81.0706C92.4411 78.689 101.166 75.4312 101.166 75.4312L110.538 90.6329Z" fill="url(#paint3_linear_1573_38981)"/>
<path d="M137.174 88.773C138.098 94.4694 144.867 101.737 144.867 101.737L110.538 90.631L101.166 75.4313L108.448 71.5316C108.448 71.5316 124.919 70.4548 130.257 73.5606C135.594 76.6643 150.228 82.9541 150.228 82.9541C149.054 85.3589 137.174 88.773 137.174 88.773Z" fill="url(#paint4_linear_1573_38981)"/>
<path d="M116.041 67.1758L112.941 74.0483L91.3309 84.2715L84.2871 84.1891C92.8093 80.0361 99.7266 76.565 102.675 74.8569C105.286 73.3473 110.153 70.554 116.041 67.1758Z" fill="url(#paint5_linear_1573_38981)"/>
<path d="M118.969 89.6258C117.457 93.3714 114.258 96.3843 109.983 97.5688C102.515 99.6337 94.5791 95.3434 92.255 87.9811C91.1204 84.3897 91.5337 80.7349 93.1176 77.6882C94.7815 74.4853 97.7425 71.9664 101.568 70.9044C109.04 68.8374 116.978 73.1277 119.3 80.49C120.291 83.6359 120.101 86.8325 118.969 89.6258Z" fill="#142533"/>
<path d="M118.967 89.626C117.299 92.8141 114.342 95.3288 110.525 96.3845C103.057 98.4536 95.1213 94.1654 92.7973 86.7968C91.8082 83.6593 91.9959 80.4732 93.1157 77.6884C93.9066 76.1661 94.9906 74.7979 96.3213 73.6683C97.7891 72.4184 99.5585 71.4598 101.568 70.9024C109.04 68.8354 116.976 73.1257 119.298 80.488C119.357 80.6802 119.414 80.8723 119.467 81.0623C120.264 84.0224 120.03 87.0037 118.967 89.626Z" fill="url(#paint6_linear_1573_38981)"/>
<path d="M115.664 87.776C114.412 90.1703 112.193 92.0579 109.327 92.8496C103.721 94.4036 97.7615 91.1817 96.0175 85.652C95.2751 83.2979 95.4164 80.9036 96.2579 78.8133C97.5085 76.4085 99.7292 74.5167 102.602 73.7207C108.211 72.1689 114.171 75.3908 115.913 80.9184C116.655 83.2789 116.514 85.6795 115.664 87.776Z" fill="url(#paint7_linear_1573_38981)"/>
<path d="M119.468 81.0643C118.692 81.3387 117.892 81.5752 117.068 81.7737C107.818 83.9885 98.912 80.3928 96.3223 73.6703C97.7901 72.4203 99.5595 71.4618 101.569 70.9044C109.041 68.8374 116.977 73.1277 119.299 80.49C119.358 80.68 119.415 80.8721 119.468 81.0643Z" fill="url(#paint8_linear_1573_38981)"/>
<path d="M107.405 88.1691L101.297 86.1823C100.96 86.0725 100.728 85.7579 100.741 85.4285L100.781 84.4932C100.798 84.0709 101.211 83.7986 101.652 83.921L105.028 84.8563C105.448 84.9725 105.846 84.7318 105.895 84.3327L106.743 77.1984C106.787 76.8163 107.158 76.5756 107.563 76.6622L109.031 76.9768C109.432 77.0633 109.714 77.437 109.664 77.8129L108.308 87.6687C108.249 88.0741 107.829 88.3063 107.405 88.1691Z" fill="white"/>
<defs>
<linearGradient id="paint0_linear_1573_38981" x1="47.9203" y1="166.412" x2="18.3565" y2="114.166" gradientUnits="userSpaceOnUse">
<stop stop-color="#C2CCED"/>
<stop offset="0.0512" stop-color="#C4CEED"/>
<stop offset="1" stop-color="#E4EBF0"/>
</linearGradient>
<linearGradient id="paint1_linear_1573_38981" x1="115.331" y1="107.417" x2="93.6787" y2="68.3482" gradientUnits="userSpaceOnUse">
<stop stop-color="#C2CCED"/>
<stop offset="0.2728" stop-color="#DFE4F6"/>
<stop offset="0.6118" stop-color="white"/>
<stop offset="1" stop-color="#E4EBF0"/>
</linearGradient>
<linearGradient id="paint2_linear_1573_38981" x1="16.9584" y1="73.5594" x2="40.3014" y2="157.259" gradientUnits="userSpaceOnUse">
<stop stop-color="#C2CCED"/>
<stop offset="0.0512" stop-color="#C4CEED"/>
<stop offset="1" stop-color="#E4EBF0"/>
</linearGradient>
<linearGradient id="paint3_linear_1573_38981" x1="108.206" y1="123.469" x2="86.9113" y2="95.5978" gradientUnits="userSpaceOnUse">
<stop stop-color="#D6E7FA"/>
<stop offset="1" stop-color="#749DED"/>
</linearGradient>
<linearGradient id="paint4_linear_1573_38981" x1="139.889" y1="99.2619" x2="118.594" y2="71.3911" gradientUnits="userSpaceOnUse">
<stop stop-color="#D6E7FA"/>
<stop offset="1" stop-color="#749DED"/>
</linearGradient>
<linearGradient id="paint5_linear_1573_38981" x1="126.144" y1="109.764" x2="104.85" y2="81.8932" gradientUnits="userSpaceOnUse">
<stop stop-color="#D6E7FA"/>
<stop offset="1" stop-color="#749DED"/>
</linearGradient>
<linearGradient id="paint6_linear_1573_38981" x1="89.557" y1="66.1322" x2="132.223" y2="111.336" gradientUnits="userSpaceOnUse">
<stop stop-color="#475B80"/>
<stop offset="0.6559" stop-color="#2C3D51"/>
<stop offset="1" stop-color="#21313E"/>
</linearGradient>
<linearGradient id="paint7_linear_1573_38981" x1="95.9936" y1="85.6791" x2="115.938" y2="80.9148" gradientUnits="userSpaceOnUse">
<stop stop-color="#475B80"/>
<stop offset="0.6559" stop-color="#2C3D51"/>
<stop offset="1" stop-color="#21313E"/>
</linearGradient>
<linearGradient id="paint8_linear_1573_38981" x1="109.216" y1="51.4673" x2="107.53" y2="84.4685" gradientUnits="userSpaceOnUse">
<stop stop-color="white" stop-opacity="0.3"/>
<stop offset="1" stop-color="white" stop-opacity="0"/>
</linearGradient>
</defs>
</svg>
