<svg width="335" height="1136" viewBox="0 0 335 1136" fill="none" xmlns="http://www.w3.org/2000/svg">
<path d="M246.875 73.4895C246.875 73.4895 208.746 130.818 204.764 132.633C204.66 132.68 204.453 132.716 204.172 132.745C204.172 132.745 204.172 132.745 204.158 132.74C203.484 132.769 202.339 132.736 200.795 132.608C196.973 132.321 190.663 131.532 182.829 130.425C147.431 125.438 80.7017 113.723 69.125 108.905C69.125 108.905 116.3 105.981 139.308 80.9692C162.326 55.9756 164.279 47.25 164.279 47.25C164.279 47.25 180.434 68.3357 246.875 73.4895Z" fill="url(#paint0_linear_1573_38951)"/>
<path d="M202.309 132.397C202.111 132.404 201.589 132.476 200.795 132.61C196.973 132.323 190.663 131.535 182.829 130.428C147.431 125.437 80.7017 113.723 69.125 108.905C99.2974 114.2 156.216 100.11 156.216 100.11C168.486 116.887 189.621 127.311 202.309 132.397Z" fill="url(#paint1_linear_1573_38951)"/>
<path d="M210.449 145.593L199.659 139.486L189.729 115.095C189.606 114.781 188.597 112.107 189.632 109.853C190.149 108.735 191.589 107.992 192.334 107.485C193.37 106.778 195.405 105.1 196.931 103.965C196.571 104.324 196.273 104.743 196.054 105.223C195.011 107.468 196.019 110.15 196.142 110.465L210.449 145.593Z" fill="url(#paint2_linear_1573_38951)"/>
<path d="M252.465 163.881L246.056 168.507L219.314 177.5L183.805 151.52L183.662 151.342C182.84 150.333 181.97 147.747 183.984 144.568C184.806 143.263 189.356 139.859 191.846 138.412C191.287 138.792 190.797 139.301 190.404 139.918C188.391 143.121 189.261 145.696 190.083 146.715L190.226 146.881L225.734 172.862L252.465 163.881Z" fill="url(#paint3_linear_1573_38951)"/>
<path d="M250.392 140.107C246.056 129.383 242.672 119.744 237.48 119.749C236.181 119.75 234.419 120.248 232.882 122.395C231.703 120.901 230.059 119.643 227.867 119.643C227.414 119.643 226.962 119.691 226.497 119.809C224.996 120.165 223.852 121.031 223.197 122.324C223.102 122.513 223.018 122.692 222.959 122.881C221.422 121.03 219.612 119.536 217.789 119.536C217.373 119.536 216.967 119.607 216.574 119.749C215.61 120.106 214.478 120.627 213.68 121.564L205.627 105.3C205.032 104.256 203.364 102.5 200.791 102.5C200.124 102.5 199.445 102.607 198.742 102.844C198.611 102.891 198.481 102.939 198.361 102.998H198.35C197.801 103.235 197.325 103.568 196.932 103.959C196.574 104.327 196.276 104.742 196.051 105.217C195.015 107.471 196.015 110.152 196.146 110.46L210.453 145.587L199.661 139.489L198.243 138.694C197.898 138.48 196.349 137.591 194.563 137.591C194.027 137.591 193.49 137.674 193.014 137.84C192.954 137.852 192.906 137.864 192.858 137.887C192.787 137.911 192.716 137.947 192.644 137.982C192.489 138.053 192.323 138.136 192.133 138.243C192.025 138.29 191.942 138.35 191.847 138.408C191.288 138.788 190.799 139.298 190.406 139.915C188.392 143.118 189.262 145.693 190.084 146.712L190.227 146.878L225.734 172.861L252.465 163.881V163.857L252.667 162.884C252.751 162.409 254.895 151.234 250.392 140.107Z" fill="url(#paint4_linear_1573_38951)"/>
<path d="M249.879 161.651L226.246 169.587L192.321 144.781C192.166 144.472 191.725 143.334 192.893 141.484C193.309 140.831 193.846 140.523 194.561 140.523C195.633 140.523 196.68 141.187 196.693 141.187L213.381 150.619L215.073 149.136L198.873 109.357C198.682 108.882 198.288 107.388 198.73 106.438C198.909 106.047 199.218 105.785 199.707 105.62C200.089 105.489 200.458 105.43 200.791 105.43C202.268 105.43 203.031 106.7 203.066 106.747L215.562 131.992L217.718 130.972C216.492 128.339 215.169 125.136 215.717 123.806C215.919 123.31 216.877 122.362 218.051 122.426C219.704 122.515 222.362 126.602 224.27 130.497L226.438 129.513C225.985 128.433 224.985 125.301 225.831 123.653C226.092 123.13 226.521 122.81 227.188 122.656C227.415 122.596 227.641 122.572 227.868 122.572C230.893 122.572 232.501 128.041 232.514 128.101L234.849 127.78V126.026C234.849 125.042 235.179 124.048 235.902 123.377C236.394 122.919 236.918 122.691 237.469 122.691C237.72 122.691 237.971 122.736 238.213 122.81C239.183 123.106 239.941 123.856 240.385 124.764C241.549 127.137 244.384 133.089 247.665 141.21C251.225 150.037 250.249 159.147 249.879 161.651Z" fill="url(#paint5_linear_1573_38951)"/>
<path d="M77.375 215.102H75.207V228.285H77.375V222.445H79.8359V220.648H77.375V215.102ZM63.4688 218.793H73.9375V217.055H69.7969V215.082H67.6289V217.055H63.4688V218.793ZM64.3672 222.895C64.3672 224.916 66.1348 226.234 68.7031 226.234C71.252 226.234 73.0098 224.916 73.0195 222.895C73.0098 220.863 71.252 219.516 68.7031 219.516C66.1348 219.516 64.3672 220.863 64.3672 222.895ZM66.0664 232.387H78.0781V230.629H68.2344V227.25H66.0664V232.387ZM66.4766 222.895C66.4668 221.82 67.3652 221.195 68.7031 221.195C70.041 221.195 70.9492 221.82 70.9492 222.895C70.9492 223.959 70.041 224.564 68.7031 224.555C67.3652 224.564 66.4668 223.959 66.4766 222.895ZM99.4656 215.102H97.2977V219.867H93.743V216.254H91.5945V219.105H87.6492V216.254H85.4812V225.258H93.743V221.625H97.2977V228.129H99.4656V215.102ZM87.6492 223.539V220.785H91.5945V223.539H87.6492ZM87.825 232.387H99.8562V230.629H90.032V226.84H87.825V232.387ZM107.288 216.312C104.515 216.303 102.435 218.07 102.445 220.57C102.435 223.08 104.515 224.838 107.288 224.848C110.091 224.838 112.132 223.08 112.152 220.57C112.132 218.07 110.091 216.303 107.288 216.312ZM101.644 227.289L101.917 229.066C105.032 229.066 109.271 229.037 113.226 228.285L113.05 226.703C109.232 227.25 104.827 227.289 101.644 227.289ZM104.593 220.57C104.583 219.105 105.745 218.188 107.288 218.188C108.861 218.188 110.013 219.105 110.023 220.57C110.013 222.045 108.851 222.953 107.288 222.953C105.745 222.953 104.583 222.045 104.593 220.57ZM114.105 232.758H116.273V215.082H114.105V232.758ZM137.543 215.082H135.355V232.738H137.543V215.082ZM122.914 227.875L124.047 229.613C130.229 226.674 132.27 222.211 132.27 216.957H123.812V218.676H130.062C129.672 222.689 127.543 225.678 122.914 227.875ZM155.795 224.633H148.803V223.168H154.155V221.469H143.862V220.062H153.803V215.473H141.655V217.172H151.635V218.48H141.713V223.168H146.655V224.633H139.663V226.391H155.795V224.633ZM141.459 229.223H151.713V232.621H153.901V227.504H141.459V229.223ZM164.595 216.078C160.893 216.078 158.042 218.061 158.052 221.059C158.042 224.096 160.893 226.078 164.595 226.078C168.315 226.078 171.186 224.096 171.177 221.059C171.186 218.061 168.315 216.078 164.595 216.078ZM156.567 230.512H172.7V228.734H156.567V230.512ZM160.141 221.059C160.132 219.105 162.026 217.816 164.595 217.836C167.173 217.816 169.048 219.105 169.048 221.059C169.048 223.061 167.173 224.291 164.595 224.301C162.026 224.291 160.132 223.061 160.141 221.059ZM189.585 228.891H182.554V226.02H188.081V224.242H177.534V221.957H187.671V216.293H175.327V218.051H185.523V220.238H175.366V226.02H180.405V228.891H173.452V230.688H189.585V228.891ZM193.775 229.613H191.295L190.279 235.082H192.134L193.775 229.613ZM215.495 224.184H208.522V222.27H213.698V220.512H203.522V217.719H213.541V215.961H201.354V222.27H206.334V224.184H199.381V225.922H215.495V224.184ZM201.373 232.387H213.815V230.629H203.502V227.25H201.373V232.387ZM230.973 215.082H228.825V232.758H230.973V215.082ZM217.223 218.383H223.337V221.527H217.243V228.578H218.786C221.96 228.588 224.596 228.471 227.595 227.953L227.399 226.176C224.645 226.635 222.253 226.781 219.47 226.801V223.246H225.544V216.625H217.223V218.383ZM248.249 215.102H246.179V225.297H248.249V215.102ZM233.835 224.125H240.788V221.078H242.683V225.102H244.734V215.434H242.683V219.281H240.788V216.371H233.835V224.125ZM235.886 222.504V218.051H238.777V222.504H235.886ZM236.355 232.523H248.249V226.039H236.355V232.523ZM238.484 230.766V227.738H246.101V230.766H238.484ZM264.841 215.082H262.693V221.41H259.099V216.449H256.97V220.844H252.888V216.449H250.701V228.48H259.099V223.188H262.693V232.758H264.841V215.082ZM252.888 226.742V222.543H256.97V226.742H252.888ZM270.555 216.859H267.898L268.133 226.84H270.34L270.555 216.859ZM267.723 229.633C267.713 230.473 268.406 231.156 269.246 231.156C270.057 231.156 270.75 230.473 270.75 229.633C270.75 228.812 270.057 228.139 269.246 228.129C268.406 228.139 267.713 228.812 267.723 229.633ZM85.4176 243.082H83.2301V260.738H85.4176V243.082ZM70.7887 255.875L71.9215 257.613C78.1031 254.674 80.1441 250.211 80.1441 244.957H71.6871V246.676H77.9371C77.5465 250.689 75.4176 253.678 70.7887 255.875ZM102.342 254.371H90.3105V256.109H100.174V260.758H102.342V254.371ZM87.791 248.336C87.791 250.875 89.793 252.672 92.459 252.672C94.7441 252.672 96.5605 251.295 96.9902 249.254H100.174V253.512H102.342V243.082H100.174V247.457H97C96.5703 245.426 94.7539 244.039 92.459 244.059C89.793 244.039 87.791 245.836 87.791 248.336ZM89.8613 248.336C89.8613 246.861 90.9844 245.885 92.459 245.895C93.9043 245.885 95.0078 246.861 95.0176 248.336C95.0078 249.869 93.9043 250.826 92.459 250.836C90.9844 250.826 89.8613 249.869 89.8613 248.336ZM118.27 243.082H116.121V260.738H118.27V251.91H120.985V250.113H118.27V243.082ZM104.344 247.535H114.754V245.797H110.692V243.336H108.524V245.797H104.344V247.535ZM105.164 252.848C105.145 255.279 107.039 256.988 109.618 256.988C112.157 256.988 114.041 255.279 114.051 252.848C114.041 250.406 112.157 248.678 109.618 248.688C107.039 248.678 105.145 250.406 105.164 252.848ZM107.235 252.848C107.225 251.412 108.231 250.465 109.618 250.465C110.975 250.465 111.961 251.412 111.981 252.848C111.961 254.283 110.975 255.201 109.618 255.191C108.231 255.201 107.225 254.283 107.235 252.848ZM127.987 248.102V246.617H131.854V244.82H121.893V246.617H125.78V248.102C125.77 251.1 124.032 254.391 121.249 255.68L122.499 257.379C124.559 256.402 126.112 254.371 126.923 251.949C127.733 254.195 129.257 256.041 131.346 256.949L132.538 255.23C129.686 254.039 127.987 250.992 127.987 248.102ZM133.827 260.738H136.014V243.082H133.827V260.738ZM156.484 243.082H154.316V251.949H156.484V248.434H158.945V246.637H156.484V243.082ZM143.164 251.207H151.523V243.98H143.164V251.207ZM144.941 254.391H154.316V255.758H144.961V260.523H157.031V258.805H147.109V257.34H156.484V252.711H144.941V254.391ZM145.293 249.488V245.699H149.394V249.488H145.293ZM173.857 244.703H161.123V246.441H171.67C171.66 248.561 171.66 251.07 170.967 254.508L173.154 254.742C173.838 251.051 173.838 248.6 173.857 246.402V244.703ZM159.443 258.453H175.537V256.676H167.529V250.543H165.381V256.676H159.443V258.453ZM190.538 244.391H181.534V246.188H188.399C188.38 247.271 188.311 248.629 187.96 250.445L190.108 250.641C190.518 248.404 190.518 246.646 190.538 245.445V244.391ZM180.479 252.047L180.675 253.785C183.77 253.775 187.94 253.707 191.612 253.043L191.495 251.48C189.786 251.725 187.911 251.861 186.085 251.939V248.414H183.936V252.008C182.696 252.027 181.524 252.037 180.479 252.047ZM183.116 260.387H195.323V258.629H185.304V255.133H183.116V260.387ZM192.53 256.305H194.757V250.406H197.042V248.59H194.757V243.082H192.53V256.305ZM212.267 243.082H210.118V260.758H212.267V243.082ZM198.517 246.383H204.63V249.527H198.536V256.578H200.079C203.253 256.588 205.89 256.471 208.888 255.953L208.693 254.176C205.939 254.635 203.546 254.781 200.763 254.801V251.246H206.837V244.625H198.517V246.383ZM228.273 243.082H226.125V260.738H228.273V251.91H230.988V250.113H228.273V243.082ZM214.347 247.535H224.757V245.797H220.695V243.336H218.527V245.797H214.347V247.535ZM215.168 252.848C215.148 255.279 217.043 256.988 219.621 256.988C222.16 256.988 224.045 255.279 224.054 252.848C224.045 250.406 222.16 248.678 219.621 248.688C217.043 248.678 215.148 250.406 215.168 252.848ZM217.238 252.848C217.228 251.412 218.234 250.465 219.621 250.465C220.978 250.465 221.964 251.412 221.984 252.848C221.964 254.283 220.978 255.201 219.621 255.191C218.234 255.201 217.228 254.283 217.238 252.848ZM236.838 247.711V244.645H234.748V247.809C234.738 250.816 233.605 253.932 231.037 255.484L232.385 257.105C234.045 256.09 235.178 254.293 235.812 252.174C236.398 254.098 237.434 255.738 239.025 256.695L240.217 255.035C237.824 253.531 236.848 250.562 236.838 247.711ZM238.322 250.953H240.842V259.879H242.893V243.395H240.842V249.156H238.322V250.953ZM244.475 260.738H246.564V243.082H244.475V260.738ZM264.348 256.812H260.637V252.301C262.004 251.49 262.834 250.25 262.825 248.707C262.834 245.895 260.061 244.039 256.243 244.039C252.444 244.039 249.69 245.895 249.7 248.707C249.69 250.27 250.539 251.539 251.946 252.35V256.812H248.215V258.59H264.348V256.812ZM251.829 248.707C251.819 246.871 253.606 245.748 256.243 245.758C258.87 245.748 260.696 246.871 260.696 248.707C260.696 250.514 258.87 251.666 256.243 251.656C253.606 251.666 251.819 250.514 251.829 248.707ZM254.094 256.812V253.141C254.758 253.277 255.481 253.355 256.243 253.355C257.024 253.355 257.756 253.277 258.43 253.131V256.812H254.094Z" fill="black"/>
<path d="M68.8388 277.967H67.7724V286.949H68.8388V277.967ZM59.0498 284.625L59.5966 285.473C61.039 284.974 62.167 283.921 62.7002 282.567C63.247 283.825 64.375 284.789 65.8037 285.254L66.3369 284.393C64.5185 283.839 63.2129 282.403 63.2197 280.797V280.469H66.0088V279.607H63.2334V278.021H62.1533V279.607H59.3505V280.469H62.1533V280.797C62.1533 282.506 60.875 284.03 59.0498 284.625ZM60.9912 289.848H69.2216V288.945H62.0576V286.115H60.9912V289.848ZM80.3746 278.746H72.1578V279.635H79.3082V279.812C79.3082 280.947 79.3082 282.219 78.9391 283.969H70.7633V284.857H75.7398V290.135H76.8199V284.857H81.8375V283.969H80.026C80.3746 282.226 80.3746 280.961 80.3746 279.812V278.746ZM93.1409 277.953H92.1018V290.107H93.1409V277.953ZM82.8733 283.203C82.8801 285.787 83.9055 287.435 85.4846 287.428C86.9817 287.435 88.0002 285.951 88.1028 283.586H89.6682V289.492H90.6936V278.213H89.6682V282.697H88.0959C87.9592 280.407 86.9612 278.985 85.4846 278.979C83.9055 278.985 82.8801 280.619 82.8733 283.203ZM83.885 283.203C83.8713 281.228 84.5002 279.99 85.4846 279.99C86.4758 279.99 87.1047 281.228 87.0979 283.203C87.1047 285.172 86.4758 286.416 85.4846 286.402C84.5002 286.416 83.8713 285.172 83.885 283.203ZM105.087 277.953H104.061V290.107H105.087V277.953ZM94.6962 286.703L95.3251 287.482C97.0204 286.484 98.1962 285.233 98.9276 283.818H101.505V289.492H102.53V278.281H101.505V282.943H99.3241C99.7411 281.863 99.9325 280.708 99.9325 279.512H95.2157V280.4H98.8661C98.661 282.943 97.3348 285.138 94.6962 286.703ZM120.037 277.953H118.985V284.311H120.037V277.953ZM110.658 283.764H116.373V278.445H115.307V280.236H111.725V278.445H110.658V283.764ZM111.725 282.902V281.07H115.307V282.902H111.725ZM112.149 285.787H118.985V287.004H112.176V289.971H120.488V289.109H113.229V287.797H120.051V284.939H112.149V285.787ZM132.038 277.953H130.971V280.729H128.538V281.631H130.971V284.051H128.442V284.953H130.971V290.135H132.038V277.953ZM122.399 279.949H126.692V282.506H122.44V287.291H123.343C125.284 287.291 126.843 287.223 128.784 286.922L128.688 286.02C126.843 286.307 125.332 286.375 123.507 286.375V283.381H127.745V279.061H122.399V279.949ZM140.169 279.471V279.443H144.025V278.568H134.947V279.443H138.775V279.471C138.782 280.968 136.758 282.185 134.619 282.479L135.015 283.326C136.984 283.039 138.809 282.062 139.472 280.64C140.128 282.062 141.967 283.039 143.929 283.326L144.353 282.479C142.2 282.185 140.163 280.968 140.169 279.471ZM133.921 285.104H139.035V287.592H140.101V285.104H145.05V284.215H133.921V285.104ZM135.343 289.848H143.806V288.945H136.423V286.375H135.343V289.848ZM160.356 284.365H155.339V282.766H159.085V281.891H151.743V279.471H158.975V278.582H150.676V282.766H154.272V284.365H149.268V285.24H160.356V284.365ZM150.704 289.848H159.18V288.945H151.77V286.348H150.704V289.848ZM163.224 288.084H161.898L161.146 291.803H162.158L163.224 288.084ZM178.12 277.967H177.04V281.344H174.51C174.312 279.799 173.034 278.753 171.393 278.746C169.575 278.753 168.228 279.977 168.235 281.74C168.228 283.497 169.575 284.748 171.393 284.748C173 284.748 174.257 283.729 174.497 282.232H177.04V286.922H178.12V277.967ZM169.26 281.74C169.26 280.537 170.17 279.696 171.393 279.689C172.589 279.696 173.499 280.537 173.499 281.74C173.499 282.95 172.589 283.805 171.393 283.818C170.17 283.805 169.26 282.95 169.26 281.74ZM170.313 289.848H178.462V288.945H171.393V286.006H170.313V289.848ZM190.394 277.953H189.368V290.107H190.394V277.953ZM179.853 286.867L180.536 287.674C181.753 286.915 182.635 285.486 183.073 283.812C183.496 285.356 184.344 286.669 185.54 287.387L186.197 286.594C184.522 285.623 183.572 283.524 183.572 281.426V280.277H185.8V279.389H180.195V280.277H182.533V281.426C182.539 283.634 181.548 285.855 179.853 286.867ZM184.87 283.217H186.921V289.479H187.933V278.254H186.921V282.342H184.87V283.217ZM204.838 277.967H203.772V284.734H204.838V281.754H206.67V280.893H204.838V277.967ZM195.35 283.914L195.774 284.816C199.212 283.921 201.557 281.815 201.557 278.76H195.952V279.648H200.375C200.163 281.617 198.255 283.203 195.35 283.914ZM196.936 289.902H205.317V289.014H203.458V286.211H205.167V285.336H197.045V286.211H198.768V289.014H196.936V289.902ZM199.807 289.014V286.211H202.419V289.014H199.807ZM217.345 277.953H216.265V290.107H217.345V277.953ZM207.446 286.949L208.034 287.824C212.109 285.869 213.736 282.772 213.749 279.279H208.007V280.154H212.655C212.416 283.06 210.735 285.391 207.446 286.949ZM230.385 287.701H225.312V285.404H229.264V284.516H221.717V282.533H228.976V278.855H220.623V279.744H227.924V281.658H220.65V285.404H224.26V287.701H219.256V288.604H230.385V287.701ZM244.911 277.967H243.886V281.316H242.3V278.158H241.275V285.309H242.3V282.205H243.886V285.5H244.911V277.967ZM234.521 280.236H240.755V279.348H238.185V278.008H237.118V279.348H234.521V280.236ZM235.054 282.93C235.047 284.174 236.12 285.008 237.651 285.008C239.19 285.008 240.256 284.174 240.263 282.93C240.256 281.651 239.19 280.852 237.651 280.852C236.12 280.852 235.047 281.651 235.054 282.93ZM235.368 289.15L235.888 289.971C237.05 289.547 237.891 288.727 238.335 287.783C238.704 288.768 239.449 289.629 240.618 290.066C241.76 289.608 242.498 288.686 242.867 287.729C243.291 288.72 244.152 289.547 245.376 289.971L245.882 289.15C244.323 288.672 243.401 287.462 243.407 286.279V285.842H242.355V286.279C242.341 287.168 241.753 288.344 240.598 289.027C239.449 288.405 238.882 287.318 238.896 286.279V285.842H237.843V286.279C237.836 287.387 236.893 288.631 235.368 289.15ZM236.011 282.93C236.011 282.144 236.681 281.651 237.651 281.658C238.622 281.651 239.292 282.144 239.292 282.93C239.292 283.695 238.622 284.194 237.651 284.201C236.681 284.194 236.011 283.695 236.011 282.93ZM250.732 286.102V285.363H249.707V286.102C249.693 287.277 248.77 288.597 247.232 289.15L247.765 289.957C248.927 289.513 249.761 288.658 250.199 287.681C250.568 288.706 251.32 289.602 252.482 290.053C253.617 289.574 254.362 288.631 254.745 287.64C255.155 288.665 256.003 289.513 257.213 289.957L257.773 289.15C256.187 288.624 255.278 287.359 255.285 286.102V285.363H254.232V286.102C254.225 287.038 253.631 288.275 252.462 289.007C251.306 288.337 250.725 287.195 250.732 286.102ZM246.754 281.494C246.754 283.169 248.08 284.338 249.898 284.338C251.525 284.338 252.79 283.354 252.995 281.904H255.545V284.898H256.625V277.953H255.545V281.016H252.988C252.749 279.607 251.498 278.644 249.898 278.65C248.08 278.644 246.754 279.826 246.754 281.494ZM247.793 281.494C247.779 280.366 248.675 279.553 249.898 279.566C251.094 279.553 251.99 280.366 251.99 281.494C251.99 282.622 251.094 283.442 249.898 283.449C248.675 283.442 247.779 282.622 247.793 281.494ZM262.856 281.686V280.1H265.754V279.211H258.905V280.1H261.776V281.686C261.769 283.791 260.251 286.088 258.508 286.922L259.151 287.77C260.538 287.072 261.769 285.527 262.336 283.743C262.904 285.425 264.127 286.826 265.549 287.469L266.151 286.621C264.36 285.849 262.863 283.75 262.856 281.686ZM267.45 290.107H268.53V277.953H267.45V290.107ZM272.409 286.143V286.211H273.585V286.143C273.612 284.96 273.92 284.434 274.774 283.914C275.622 283.395 276.128 282.649 276.128 281.576C276.128 280.065 275.014 278.965 273.298 278.965C271.732 278.965 270.481 279.929 270.413 281.59H271.657C271.732 280.462 272.519 279.997 273.298 280.004C274.2 279.997 274.925 280.592 274.925 281.521C274.925 282.287 274.494 282.834 273.927 283.176C272.983 283.75 272.423 284.311 272.409 286.143ZM272.163 288.193C272.149 288.679 272.56 289.075 273.038 289.082C273.523 289.075 273.92 288.679 273.913 288.193C273.92 287.715 273.523 287.318 273.038 287.318C272.56 287.318 272.149 287.715 272.163 288.193ZM67.3333 297.967H66.2669V307.072H67.3333V302.875H69.1653V301.973H67.3333V297.967ZM57.8587 300.332H65.1048V299.457H62.0149V297.967H60.9485V299.457H57.8587V300.332ZM58.5559 303.271C58.5491 304.639 59.7249 305.521 61.4817 305.514C63.218 305.521 64.3938 304.639 64.4075 303.271C64.3938 301.891 63.218 301.002 61.4817 301.002C59.7249 301.002 58.5491 301.891 58.5559 303.271ZM59.5813 303.271C59.5745 302.403 60.3333 301.843 61.4817 301.85C62.6165 301.843 63.3821 302.403 63.3958 303.271C63.3821 304.126 62.6165 304.68 61.4817 304.666C60.3333 304.68 59.5745 304.126 59.5813 303.271ZM59.7317 309.848H67.8938V308.945H60.7845V306.348H59.7317V309.848ZM83.2408 297.967H82.1607V301.385H79.2896V298.773H78.2369V300.934H74.8463V298.773H73.7798V304.885H79.2896V302.287H82.1607V306.963H83.2408V297.967ZM74.8463 303.996V301.781H78.2369V303.996H74.8463ZM75.3795 309.848H83.5142V308.945H76.4595V306.074H75.3795V309.848ZM91.2629 299.061H85.6438V304.652H91.2629V299.061ZM86.6965 303.791V299.936H90.2238V303.791H86.6965ZM87.0246 309.848H95.1867V308.945H88.0773V306.02H87.0246V309.848ZM93.5598 306.867H94.6262V302.561H96.4582V301.658H94.6262V297.953H93.5598V306.867ZM110.493 297.953H109.426V304.475H110.493V297.953ZM100.745 301.344C100.738 302.998 102.084 304.14 103.93 304.133C105.776 304.14 107.109 302.998 107.116 301.344C107.109 299.683 105.776 298.541 103.93 298.555C102.084 298.541 100.738 299.683 100.745 301.344ZM101.797 301.344C101.784 300.229 102.679 299.45 103.93 299.457C105.167 299.45 106.063 300.229 106.063 301.344C106.063 302.451 105.167 303.237 103.93 303.244C102.679 303.237 101.784 302.451 101.797 301.344ZM102.618 309.943H110.493V305.09H109.426V306.566H103.684V305.09H102.618V309.943ZM103.684 309.068V307.428H109.426V309.068H103.684ZM118.187 298.705H112.909V299.566H117.12V301.289H112.937V304.871H113.798C116.259 304.871 117.496 304.83 119.007 304.584L118.898 303.695C117.469 303.955 116.286 304.003 114.003 303.996V302.109H118.187V298.705ZM114.304 306.963H121.413V310.135H122.493V306.088H114.304V306.963ZM118.993 303.176H121.413V305.432H122.493V297.967H121.413V299.771H118.993V300.646H121.413V302.287H118.993V303.176ZM133.783 297.953H132.717V310.107H133.783V303.859H135.82V302.971H133.783V297.953ZM124.308 300.797H131.541V299.908H128.506V298.104H127.439V299.908H124.308V300.797ZM125.006 304.598C124.999 306.245 126.257 307.387 127.986 307.387C129.702 307.387 130.953 306.245 130.967 304.598C130.953 302.957 129.702 301.809 127.986 301.809C126.257 301.809 124.999 302.957 125.006 304.598ZM126.031 304.598C126.024 303.497 126.851 302.704 127.986 302.711C129.107 302.704 129.927 303.497 129.941 304.598C129.927 305.705 129.107 306.484 127.986 306.471C126.851 306.484 126.024 305.705 126.031 304.598ZM142.489 299.02H136.911V304.693H142.489V303.6H145.332V306.84H146.413V297.967H145.332V300.1H142.489V299.02ZM137.977 303.832V299.908H141.436V303.832H137.977ZM138.551 309.848H146.686V308.945H139.631V306.047H138.551V309.848ZM142.489 302.711V301.002H145.332V302.711H142.489ZM155.785 301.686V300.1H158.519V299.211H151.902V300.1H154.732V301.686C154.718 303.757 153.215 306.067 151.465 306.922L152.121 307.77C153.481 307.072 154.698 305.5 155.258 303.716C155.805 305.363 156.961 306.799 158.328 307.469L158.943 306.621C157.179 305.78 155.771 303.634 155.785 301.686ZM160.009 310.107H161.076V303.791H163.113V302.875H161.076V297.953H160.009V310.107ZM174.717 303.969H169.686V302.547H173.418V301.672H166.09V299.389H173.336V298.527H165.037V302.547H168.647V303.969H163.629V304.83H174.717V303.969ZM164.969 307.906C164.962 309.308 166.541 310.094 169.166 310.107C171.771 310.094 173.336 309.308 173.35 307.906C173.336 306.519 171.771 305.726 169.166 305.719C166.541 305.726 164.962 306.519 164.969 307.906ZM166.063 307.906C166.049 307.065 167.218 306.566 169.166 306.566C171.094 306.566 172.263 307.065 172.27 307.906C172.263 308.761 171.094 309.253 169.166 309.246C167.218 309.253 166.049 308.761 166.063 307.906ZM181.126 298.746C178.59 298.753 176.683 300.079 176.683 302.082C176.683 304.105 178.59 305.432 181.126 305.418C183.662 305.432 185.569 304.105 185.569 302.082C185.569 300.079 183.662 298.753 181.126 298.746ZM175.589 308.494H186.718V307.592H175.589V308.494ZM177.708 302.082C177.694 300.626 179.164 299.614 181.126 299.621C183.074 299.614 184.53 300.626 184.53 302.082C184.53 303.559 183.074 304.543 181.126 304.543C179.164 304.543 177.694 303.559 177.708 302.082ZM198.677 307.701H193.605V305.404H197.556V304.516H190.009V302.533H197.269V298.855H188.916V299.744H196.216V301.658H188.943V305.404H192.552V307.701H187.548V308.604H198.677V307.701ZM209.622 298.896H203.565V299.799H208.562C208.549 300.571 208.521 301.604 208.227 303.053L209.307 303.135C209.615 301.549 209.615 300.339 209.622 299.539V298.896ZM202.813 304.27L202.923 305.158C205.09 305.151 208.016 305.104 210.565 304.666L210.497 303.873C209.232 304.051 207.838 304.146 206.491 304.201V301.59H205.425V304.235C204.488 304.263 203.599 304.27 202.813 304.27ZM204.686 309.848H212.807V308.945H205.766V306.279H204.686V309.848ZM211.317 307.1H212.411V302.834H214.188V301.918H212.411V297.953H211.317V307.1ZM224.876 297.953H223.81V310.135H224.876V297.953ZM215.525 299.977H220.105V302.533H215.552V307.182H216.564C218.663 307.182 220.508 307.093 222.744 306.744L222.634 305.842C220.46 306.19 218.663 306.286 216.646 306.279V303.408H221.185V299.088H215.525V299.977ZM232.871 300.059H230.369V298.322H229.303V300.059H226.774V300.934H232.871V300.059ZM227.211 304.516C227.211 306.149 228.312 307.298 229.822 307.305C231.354 307.298 232.447 306.149 232.461 304.516C232.447 302.902 231.354 301.761 229.822 301.754C228.312 301.761 227.211 302.902 227.211 304.516ZM228.168 304.516C228.168 303.449 228.859 302.67 229.822 302.656C230.793 302.67 231.504 303.449 231.504 304.516C231.504 305.596 230.793 306.368 229.822 306.361C228.859 306.368 228.168 305.596 228.168 304.516ZM233.5 309.506H234.512V303.969H236.125V310.107H237.151V297.953H236.125V303.08H234.512V298.254H233.5V309.506ZM251.951 303.805H244.622V299.977H251.828V299.088H243.556V304.693H251.951V303.805ZM242.134 308.453H253.263V307.551H242.134V308.453ZM264.156 297.953H263.09V300.729H260.656V301.631H263.09V304.051H260.561V304.953H263.09V310.135H264.156V297.953ZM254.518 299.949H258.811V302.506H254.559V307.291H255.461C257.402 307.291 258.961 307.223 260.902 306.922L260.807 306.02C258.961 306.307 257.45 306.375 255.625 306.375V303.381H259.863V299.061H254.518V299.949ZM277.182 307.646H274.421V304.338C275.426 303.798 276.034 302.937 276.034 301.85C276.034 299.97 274.188 298.732 271.591 298.719C268.993 298.732 267.147 299.97 267.147 301.85C267.147 302.957 267.776 303.832 268.815 304.372V307.646H266.053V308.549H277.182V307.646ZM268.186 301.85C268.179 300.489 269.594 299.594 271.591 299.607C273.566 299.594 274.995 300.489 274.995 301.85C274.995 303.21 273.566 304.119 271.591 304.119C269.594 304.119 268.179 303.21 268.186 301.85ZM269.868 307.646V304.762C270.387 304.898 270.968 304.967 271.591 304.967C272.226 304.967 272.814 304.892 273.341 304.755V307.646H269.868Z" fill="#6A6A6A"/>
<path d="M103.352 455.878L245.647 397.625L143.72 471.295L103.352 455.878Z" fill="url(#paint6_linear_1573_38951)"/>
<path d="M155.283 477.222L170.844 488.092L168.198 491.29L155.293 506.895L155.285 484.239L155.283 477.222Z" fill="url(#paint7_linear_1573_38951)"/>
<path d="M245.647 397.625L201.313 509.375L170.844 488.092L155.283 477.222L186.5 449.727L245.647 397.625Z" fill="url(#paint8_linear_1573_38951)"/>
<path d="M245.647 397.625L186.499 449.727L155.283 477.222L155.285 484.239L155.293 506.895L143.721 471.295L245.647 397.625Z" fill="url(#paint9_linear_1573_38951)"/>
<path d="M128.371 446.945L128.386 446.948L128.376 446.925C128.375 446.931 128.373 446.939 128.371 446.945Z" fill="#2F80ED"/>
<path d="M132.433 441.639L132.44 441.646L126.433 440.234C125.909 440.112 125.468 439.763 125.234 439.277L124.36 437.492C120.305 427.392 129.509 417.087 126.631 409.918C126.623 409.895 126.616 409.88 126.6 409.857C127.679 409.196 128.742 408.862 129.714 408.862C130.512 408.862 131.256 409.09 131.878 409.53C132.03 409.644 132.182 409.766 132.326 409.909C132.395 409.978 132.463 410.046 132.531 410.13C132.661 410.282 132.79 410.449 132.903 410.623C133.025 410.806 133.131 411.002 133.23 411.208C133.276 411.307 133.321 411.413 133.367 411.527C133.405 411.618 133.443 411.717 133.481 411.816C133.504 411.892 133.526 411.96 133.549 412.036C133.58 412.112 133.602 412.196 133.625 412.272C133.648 412.378 133.679 412.485 133.701 412.591C133.732 412.713 133.762 412.842 133.785 412.971C133.8 413.054 133.815 413.153 133.831 413.237C133.838 413.313 133.853 413.389 133.861 413.465C133.876 413.586 133.891 413.708 133.899 413.836C133.914 413.935 133.922 414.034 133.922 414.133C134.264 420.459 128.667 428.554 130.375 436.703V436.733C130.414 436.923 130.459 437.113 130.512 437.303C130.558 437.5 130.619 437.697 130.68 437.902C130.794 438.297 130.938 438.692 131.097 439.094L131.894 441.076C132 441.343 132.198 441.532 132.433 441.639Z" fill="url(#paint10_linear_1573_38951)"/>
<path d="M130.512 437.302C130.459 437.112 130.413 436.923 130.375 436.733V436.703C130.421 436.9 130.466 437.097 130.512 437.302Z" fill="url(#paint11_linear_1573_38951)"/>
<path d="M128.131 446.888H128.132L128.131 446.889V446.888Z" fill="#2F80ED"/>
<path d="M138.077 455.908L131.872 454.427L131.361 454.306C131.351 454.302 131.343 454.297 131.334 454.29C131.173 454.199 131.036 454.065 130.941 453.889C130.939 453.888 130.939 453.888 130.94 453.888C130.92 453.853 130.903 453.817 130.888 453.779L129.194 449.556L128.408 447.6C128.393 447.562 128.38 447.524 128.37 447.485C128.37 447.485 128.368 447.484 128.37 447.482C128.321 447.304 128.323 447.118 128.37 446.945L128.385 446.948L134.869 448.496L135.106 448.51C135.045 448.724 135.055 448.958 135.142 449.174L135.928 451.13L135.94 451.158L137.622 455.353C137.712 455.577 137.868 455.749 138.056 455.858L138.077 455.908Z" fill="url(#paint12_linear_1573_38951)"/>
<path d="M131.334 454.291C131.343 454.297 131.351 454.302 131.361 454.306L131.339 454.3H131.339L131.334 454.291Z" fill="#2F80ED"/>
<path d="M128.376 446.925L128.386 446.948L128.371 446.945C128.373 446.939 128.374 446.931 128.376 446.925Z" fill="#2F80ED"/>
<path d="M137.707 445.987L137.708 445.989L137.258 446.385V446.384L137.707 445.987Z" fill="#2F80ED"/>
<path d="M113.308 417.82L106.699 415.455C106.699 415.455 108.805 406.8 115.907 400.526C119.289 397.535 123.045 395.877 126.364 396.007C126.767 396.025 127.164 396.066 127.554 396.136L127.564 396.138L128.421 396.342L134.429 397.767C133.371 397.56 132.25 397.557 131.1 397.743C130.631 397.819 130.159 397.927 129.681 398.065C127.328 398.735 124.907 400.139 122.646 402.135C115.544 408.408 113.437 417.06 113.437 417.06L113.564 417.106" fill="url(#paint13_linear_1573_38951)"/>
<path d="M138.69 433.232C135.668 425.713 145.525 415.218 140.908 403.728C139.503 400.22 137.194 398.329 134.491 397.782L134.43 397.767C133.375 397.562 132.251 397.554 131.096 397.744H131.073C130.61 397.82 130.147 397.926 129.684 398.063C127.33 398.731 124.907 400.136 122.644 402.134C115.543 408.407 113.439 417.056 113.439 417.056L113.561 417.102L119.082 419.084C119.606 419.266 120.191 419.008 120.388 418.492C121.064 416.775 122.72 413.107 125.256 410.859C125.703 410.465 126.152 410.13 126.6 409.857C127.678 409.196 128.741 408.862 129.713 408.862C130.511 408.862 131.255 409.09 131.878 409.53C132.03 409.644 132.182 409.766 132.325 409.909C132.394 409.978 132.462 410.046 132.531 410.13C132.668 410.282 132.789 410.449 132.902 410.623C133.024 410.805 133.13 411.002 133.229 411.208C133.275 411.306 133.321 411.413 133.366 411.527C133.404 411.618 133.442 411.717 133.48 411.816C133.503 411.892 133.526 411.96 133.549 412.036C133.579 412.112 133.602 412.196 133.625 412.272C133.647 412.378 133.678 412.485 133.701 412.591C133.731 412.713 133.761 412.842 133.784 412.97C133.799 413.054 133.815 413.153 133.83 413.237C133.837 413.313 133.853 413.389 133.86 413.465C133.868 413.503 133.868 413.533 133.875 413.571C133.883 413.662 133.898 413.746 133.898 413.837C133.913 413.936 133.913 414.035 133.921 414.134C134.263 420.46 128.666 428.555 130.375 436.703V436.734C130.413 436.924 130.458 437.113 130.512 437.303C130.557 437.501 130.618 437.698 130.679 437.903C130.793 438.298 130.937 438.693 131.096 439.095L131.894 441.077C132 441.343 132.198 441.532 132.433 441.639L132.44 441.646C132.79 441.791 133.215 441.753 133.534 441.464L139.229 436.437C139.564 436.14 139.67 435.677 139.511 435.275L138.69 433.232ZM145.236 449.552L142.753 443.37C142.593 442.961 142.214 442.725 141.819 442.717C141.568 442.717 141.318 442.793 141.112 442.976L137.711 445.983V445.991L137.255 446.385L136.26 447.266L135.417 448.018C135.265 448.147 135.159 448.322 135.105 448.511C135.098 448.534 135.098 448.549 135.09 448.572C135.045 448.77 135.06 448.982 135.143 449.172L135.926 451.131L135.941 451.154L137.619 455.353C137.711 455.574 137.87 455.748 138.06 455.854C138.424 456.074 138.91 456.052 139.267 455.74L144.962 450.705C145.29 450.418 145.404 449.954 145.236 449.552Z" fill="url(#paint14_linear_1573_38951)"/>
<path d="M141.819 442.717C141.568 442.717 141.318 442.793 141.112 442.976L137.711 445.983V445.991L137.255 446.385L136.26 447.266L135.417 448.018C135.261 448.156 135.112 448.452 135.09 448.572C135.083 448.595 135.098 448.55 135.09 448.572L128.385 446.947L128.377 446.924C128.43 446.742 128.537 446.575 128.681 446.439L128.863 446.279L130.982 444.41L134.376 441.403C134.604 441.205 134.885 441.122 135.151 441.152L135.143 441.129H135.151L141.819 442.717Z" fill="#A1BEF2"/>
<path d="M106.699 415.454L113.308 417.82L119.473 419.179L113.437 417.061L106.699 415.454Z" fill="url(#paint15_linear_1573_38951)"/>
<path d="M45.416 544.102H43.248V553.75H45.416V549.766H47.877V548.027H45.416V544.102ZM31.4316 552.188L32.252 553.984C37.4082 552.764 40.6016 549.756 40.6113 545.176H32.3691V546.914H38.209C37.877 549.268 35.5234 551.299 31.4316 552.188ZM33.7754 561.465H46.0215V559.746H43.541V556.25H45.7871V554.531H33.8926V556.25H36.1973V559.746H33.7754V561.465ZM38.3066 559.746V556.25H41.4316V559.746H38.3066ZM56.4027 544.355C52.3891 544.365 50.0355 545.43 50.0355 547.383C50.0355 549.355 52.3891 550.42 56.4027 550.43C60.4262 550.42 62.7602 549.355 62.7699 547.383C62.7602 545.43 60.4262 544.365 56.4027 544.355ZM48.3754 553.105H64.4691V551.367H48.3754V553.105ZM50.2699 555.898H60.3285V557.07H50.2895V561.582H62.9457V559.922H52.4184V558.613H62.4574V554.297H50.2699V555.898ZM52.3207 547.383C52.3109 546.475 53.7172 545.957 56.4027 545.957C59.1273 545.957 60.5238 546.475 60.5238 547.383C60.5238 548.359 59.1273 548.809 56.4027 548.809C53.7172 548.809 52.3109 548.359 52.3207 547.383ZM81.384 544.414H79.3918V560.898H81.384V552.832H82.9855V561.738H85.0363V544.082H82.9855V551.055H81.384V544.414ZM69.9777 557.344H70.7395C71.6086 557.344 72.6242 557.324 73.9816 557.031L73.8059 555.215C73.132 555.381 72.5168 555.469 71.9699 555.508V547.988H73.7668V546.23H69.9777V557.344ZM74.4895 557.344H75.2512C76.3156 557.344 77.4094 557.334 78.7863 557.012L78.6301 555.195C77.8195 555.41 77.1066 555.488 76.4426 555.527V547.988H78.3762V546.23H74.4895V557.344ZM100.32 544.082H98.152V561.699H100.32V552.793H102.937V550.977H100.32V544.082ZM86.3941 556.875L87.6246 558.555C93.4938 555.664 95.6422 551.104 95.652 545.918H87.3512V547.715H93.4449C93.0152 551.738 90.691 554.727 86.3941 556.875ZM107.645 552.773L107.879 554.473C110.155 554.473 113.778 554.414 116.571 553.887L116.454 552.363C115.526 552.49 114.481 552.578 113.407 552.646V550.996H116.043V549.277H110.789V546.895H115.985V545.137H108.68V550.996H111.356V552.734C109.969 552.773 108.661 552.773 107.645 552.773ZM108.504 559.941L109.559 561.543C111.229 561.025 112.381 559.971 113.016 558.652C113.582 559.99 114.627 561.133 116.278 561.719C117.899 561.123 118.934 559.951 119.5 558.623C120.135 559.961 121.307 561.016 123.036 561.543L124.051 559.941C121.737 559.326 120.604 557.734 120.614 556.016V555.586H118.485V556.016C118.485 557.295 117.791 558.77 116.268 559.707C114.754 558.799 114.051 557.344 114.051 556.016V555.586H111.981V556.016C111.981 557.666 110.829 559.297 108.504 559.941ZM117.235 554.824H119.266V550.547H120.868V554.902H122.957V544.082H120.868V548.789H119.266V544.414H117.235V554.824ZM138.905 549.082H128.827V544.727H126.679V550.801H138.905V549.082ZM124.589 554.57H140.721V552.852H124.589V554.57ZM126.522 561.328H139.022V559.57H128.69V556.133H126.522V561.328ZM156.728 544.082H154.618V561.738H156.728V544.082ZM142.079 557.695H143.271C145.937 557.686 147.704 557.598 149.696 557.188L149.521 555.41C147.792 555.771 146.288 555.869 144.208 555.879V547.891H148.798V546.152H142.079V557.695ZM147.587 552.402H150.986V560.879H153.017V544.434H150.986V550.625H147.587V552.402ZM161.816 558.613H159.336L158.32 564.082H160.175L161.816 558.613ZM172.676 545.156H167.93V546.914H170.586C170.332 549.229 169.385 550.684 167.305 552.109L168.711 553.496C171.7 551.338 172.657 548.828 172.676 545.156ZM169.942 561.523H181.348V554.961H169.942V561.523ZM172.09 559.766V556.68H179.2V559.766H172.09ZM172.266 552.988L173.848 554.219C176.729 551.807 177.618 548.945 177.618 545.156H173.301V546.914H175.557C175.323 549.482 174.405 551.279 172.266 552.988ZM179.18 554.18H181.348V549.922H183.809V548.164H181.348V544.082H179.18V554.18ZM198.819 544.082H196.69V554.551H198.819V550.156H200.733V548.34H198.819V544.082ZM184.62 553.672H189.62V545.117H187.843V547.715H186.397V545.117H184.62V553.672ZM186.3 557.07H196.632V561.738H198.819V555.332H186.3V557.07ZM186.397 551.953V549.395H187.843V551.953H186.397ZM190.499 553.672H195.479V545.117H193.682V547.715H192.276V545.117H190.499V553.672ZM192.276 551.953V549.395H193.682V551.953H192.276ZM215.118 544.102H212.95V557.285H215.118V551.445H217.579V549.648H215.118V544.102ZM201.212 547.793H211.681V546.055H207.54V544.082H205.372V546.055H201.212V547.793ZM202.111 551.895C202.111 553.916 203.878 555.234 206.446 555.234C208.995 555.234 210.753 553.916 210.763 551.895C210.753 549.863 208.995 548.516 206.446 548.516C203.878 548.516 202.111 549.863 202.111 551.895ZM203.81 561.387H215.821V559.629H205.978V556.25H203.81V561.387ZM204.22 551.895C204.21 550.82 205.109 550.195 206.446 550.195C207.784 550.195 208.693 550.82 208.693 551.895C208.693 552.959 207.784 553.564 206.446 553.555C205.109 553.564 204.21 552.959 204.22 551.895ZM237.209 544.102H235.041V549.316H231.643V551.113H235.041V557.051H237.209V544.102ZM222.658 553.457L223.576 555.195C228.684 553.564 231.76 550.088 231.76 545.43H223.576V547.207H229.387C228.967 550 226.457 552.256 222.658 553.457ZM225.705 561.387H237.658V559.629H227.912V555.742H225.705V561.387ZM248.401 545.371C245.716 545.371 243.802 547.793 243.811 551.602C243.802 555.439 245.716 557.852 248.401 557.852C251.057 557.852 252.971 555.439 252.991 551.602C252.971 547.793 251.057 545.371 248.401 545.371ZM245.901 551.602C245.891 548.906 246.917 547.324 248.401 547.324C249.895 547.324 250.891 548.906 250.901 551.602C250.891 554.316 249.895 555.889 248.401 555.898C246.917 555.889 245.891 554.316 245.901 551.602ZM255.315 561.738H257.483V552.695H260.198V550.859H257.483V544.082H255.315V561.738ZM263.743 544.941H261.595V552.227H263.099C266.058 552.217 268.753 552.021 271.673 551.426L271.419 549.707C268.802 550.225 266.351 550.42 263.743 550.449V544.941ZM263.529 555.352H273.06V556.699H263.568V561.523H275.775V559.805H265.755V558.281H275.247V553.652H263.529V555.352ZM273.06 552.871H275.247V544.082H273.06V552.871ZM291.507 544.082H289.32V561.738H291.507V552.93H293.949V551.133H291.507V544.082ZM277.171 556.68L278.871 557.91C282.054 554.463 282.709 550.566 282.718 545.938H277.875V547.715H280.648C280.472 551.24 279.652 554.043 277.171 556.68ZM282.171 557.852L283.91 559.043C287.093 555.215 287.591 550.684 287.601 545.938H283.304V547.715H285.541C285.404 551.543 284.691 554.844 282.171 557.852ZM297.299 555.664V555.84H299.584V555.664C299.604 554.199 300.072 553.525 301.205 552.832C302.475 552.08 303.266 551.045 303.275 549.453C303.266 547.129 301.459 545.664 298.822 545.664C296.41 545.664 294.457 547.002 294.389 549.629H296.83C296.898 548.32 297.836 547.695 298.803 547.695C299.867 547.695 300.727 548.398 300.717 549.492C300.727 550.469 300.082 551.123 299.252 551.66C298.021 552.412 297.318 553.174 297.299 555.664ZM296.986 558.633C296.977 559.473 297.67 560.156 298.51 560.156C299.32 560.156 300.014 559.473 300.014 558.633C300.014 557.812 299.32 557.139 298.51 557.129C297.67 557.139 296.977 557.812 296.986 558.633ZM57.9414 577.102V575.617H61.6328V573.82H51.9258V575.617H55.7734V577.102C55.7637 580.041 54.0547 583.342 51.2422 584.68L52.5117 586.379C54.543 585.402 56.0859 583.332 56.8867 580.91C57.6777 583.117 59.1523 585.012 61.1445 585.949L62.3555 584.23C59.5723 582.932 57.9316 579.826 57.9414 577.102ZM63.2734 589.738H65.4414V580.773H68.1562V578.957H65.4414V572.082H63.2734V589.738ZM84.6117 580.539H77.6195V578.859H82.7562V577.141H72.6391V574.582H82.6586V572.883H70.4711V578.859H75.4906V580.539H68.4984V582.277H84.6117V580.539ZM70.3734 586.516C70.3734 588.566 72.6879 589.729 76.5258 589.738C80.3344 589.729 82.6293 588.566 82.6391 586.516C82.6293 584.445 80.3344 583.283 76.5258 583.293C72.6879 583.283 70.3734 584.445 70.3734 586.516ZM72.5805 586.516C72.5707 585.5 73.9574 584.953 76.5258 584.953C79.0551 584.953 80.4516 585.5 80.4711 586.516C80.4516 587.541 79.0551 588.068 76.5258 588.059C73.9574 588.068 72.5707 587.541 72.5805 586.516ZM93.4109 573.078C89.7098 573.078 86.8582 575.061 86.868 578.059C86.8582 581.096 89.7098 583.078 93.4109 583.078C97.1316 583.078 100.003 581.096 99.993 578.059C100.003 575.061 97.1316 573.078 93.4109 573.078ZM85.3836 587.512H101.516V585.734H85.3836V587.512ZM88.9578 578.059C88.948 576.105 90.8426 574.816 93.4109 574.836C95.9891 574.816 97.8641 576.105 97.8641 578.059C97.8641 580.061 95.9891 581.291 93.4109 581.301C90.8426 581.291 88.948 580.061 88.9578 578.059ZM118.402 585.891H111.37V583.02H116.898V581.242H106.351V578.957H116.488V573.293H104.144V575.051H114.339V577.238H104.183V583.02H109.222V585.891H102.269V587.688H118.402V585.891ZM137.426 572.082H135.258V580.949H137.426V577.434H139.887V575.637H137.426V572.082ZM123.695 576.633C123.686 578.938 125.697 580.588 128.383 580.578C131.068 580.588 133.061 578.938 133.07 576.633C133.061 574.279 131.068 572.668 128.383 572.668C125.697 572.668 123.686 574.279 123.695 576.633ZM125.824 576.633C125.805 575.295 126.889 574.426 128.383 574.426C129.867 574.426 130.951 575.295 130.961 576.633C130.951 577.971 129.867 578.859 128.383 578.859C126.889 578.859 125.805 577.971 125.824 576.633ZM125.883 583.391H135.258V584.758H125.902V589.523H137.973V587.805H128.051V586.34H137.426V581.711H125.883V583.391ZM155.17 572.082H153.002V575.93H149.838V577.707H153.002V580.734H149.78V582.512H153.002V589.758H155.17V572.082ZM140.971 575.344H146.713V578.508H141.03V585.754H142.397C145.141 585.754 147.387 585.695 150.092 585.266L149.916 583.488C147.534 583.84 145.512 583.947 143.178 583.957V580.207H148.842V573.605H140.971V575.344ZM173.364 581.926H157.27V583.684H164.204V589.719H166.352V583.684H173.364V581.926ZM158.11 579.035L158.93 580.734C161.909 580.305 164.233 578.928 165.317 577.023C166.391 578.928 168.735 580.305 171.743 580.734L172.524 579.035C169.028 578.596 166.723 576.73 166.577 574.797H171.88V573.078H158.755V574.797H164.057C163.901 576.73 161.577 578.596 158.11 579.035ZM188.882 572.082H186.734V589.738H188.882V572.082ZM175.171 585.305H176.695C179.439 585.314 182.32 585.109 185.425 584.465L185.152 582.648C182.427 583.195 179.79 583.41 177.32 583.449V573.801H175.171V585.305ZM205.123 572.082H202.935V589.738H205.123V580.93H207.564V579.133H205.123V572.082ZM190.787 584.68L192.486 585.91C195.67 582.463 196.324 578.566 196.334 573.938H191.49V575.715H194.263C194.087 579.24 193.267 582.043 190.787 584.68ZM195.787 585.852L197.525 587.043C200.709 583.215 201.207 578.684 201.216 573.938H196.92V575.715H199.156C199.019 579.543 198.306 582.844 195.787 585.852ZM221.452 573.156H213.366V574.914H219.108C218.737 577.492 216.413 579.562 212.428 580.637L213.288 582.336C218.434 580.9 221.442 577.707 221.452 573.156ZM215.026 584.836H224.889V589.68H227.057V583.098H215.026V584.836ZM221.588 578.293H224.889V582.395H227.057V572.102H224.889V576.496H221.588V578.293ZM243.942 572.082H241.774V576.477H238.766V578.254H241.774V582.57H243.942V572.082ZM229.098 580.812L230.231 582.531C232.331 581.789 233.805 580.266 234.577 578.391C235.358 580.051 236.745 581.398 238.708 582.062L239.802 580.344C237.067 579.426 235.641 577.258 235.641 575.109V574.992H239.294V573.234H229.762V574.992H233.434V575.129C233.434 577.463 231.94 579.836 229.098 580.812ZM231.97 586.379C231.95 588.498 234.245 589.729 237.966 589.738C241.706 589.729 243.991 588.498 244.001 586.379C243.991 584.26 241.706 583.02 237.966 583.02C234.245 583.02 231.95 584.26 231.97 586.379ZM234.118 586.379C234.108 585.275 235.514 584.68 237.966 584.68C240.436 584.68 241.833 585.275 241.833 586.379C241.833 587.473 240.436 588.068 237.966 588.059C235.514 588.068 234.108 587.473 234.118 586.379ZM254.392 582.414H252.361V589.523H258.728V588.127L259.763 589.66C261.228 589.074 262.234 587.99 262.82 586.691C263.377 588.029 264.373 589.094 265.935 589.66L267.048 588.039C264.871 587.297 263.914 585.51 263.923 583.684V582.277H261.755V583.684C261.755 585.373 260.808 587.141 258.728 588.02V582.414H256.716V584.309H254.392V582.414ZM250.623 576.906C250.623 579.357 252.586 581.047 255.291 581.047C257.586 581.047 259.392 579.748 259.822 577.785H263.005V581.438H265.173V572.082H263.005V575.988H259.812C259.363 574.074 257.566 572.795 255.291 572.805C252.586 572.795 250.623 574.494 250.623 576.906ZM252.693 576.906C252.693 575.51 253.767 574.592 255.291 574.602C256.775 574.592 257.839 575.51 257.849 576.906C257.839 578.332 256.775 579.27 255.291 579.27C253.767 579.27 252.693 578.332 252.693 576.906ZM254.392 587.863V585.93H256.716V587.863H254.392ZM281.961 572.082H279.773V589.758H281.961V572.082ZM267.84 579.602C267.83 583.439 269.773 585.852 272.449 585.852C275.096 585.852 277.049 583.439 277.059 579.602C277.049 575.793 275.096 573.371 272.449 573.371C269.773 573.371 267.83 575.793 267.84 579.602ZM269.93 579.602C269.93 576.906 270.955 575.324 272.449 575.324C273.934 575.324 274.949 576.906 274.949 579.602C274.949 582.316 273.934 583.889 272.449 583.898C270.955 583.889 269.93 582.316 269.93 579.602Z" fill="black"/>
<path d="M99.4182 606.967H98.3518V615.881H99.4182V606.967ZM89.5061 613.283L90.0939 614.117C91.5158 613.55 92.6232 612.354 93.1496 610.863C93.6897 612.265 94.7834 613.358 96.1916 613.898L96.7522 613.037C94.9406 612.381 93.676 610.72 93.6897 608.867V607.65H92.5959V608.867C92.5959 610.788 91.3449 612.565 89.5061 613.283ZM91.5705 618.848H99.801V617.945H92.6369V615.061H91.5705V618.848ZM111.419 606.967H110.339V609.236H107.502C107.604 608.806 107.659 608.348 107.659 607.869H102.122V608.771H106.49C106.278 610.877 104.439 612.524 101.507 613.393L101.958 614.24C104.562 613.468 106.435 612.053 107.235 610.098H110.339V611.738H107.112V612.627H110.339V614.268H111.419V606.967ZM103.38 616.715C103.373 618.171 104.952 619.053 107.44 619.053C109.901 619.053 111.487 618.171 111.487 616.715C111.487 615.266 109.901 614.391 107.44 614.391C104.952 614.391 103.373 615.266 103.38 616.715ZM104.432 616.715C104.439 615.799 105.608 615.245 107.44 615.252C109.245 615.245 110.414 615.799 110.421 616.715C110.414 617.631 109.245 618.185 107.44 618.178C105.608 618.185 104.439 617.631 104.432 616.715ZM116.966 609.496V607.938H115.9V609.496C115.886 610.843 114.977 612.49 113.425 613.201L113.999 614.021C115.162 613.468 115.996 612.415 116.413 611.253C116.802 612.442 117.602 613.577 118.839 614.158C120.056 613.591 120.849 612.497 121.246 611.314C121.656 612.483 122.476 613.481 123.666 614.021L124.267 613.201C122.661 612.524 121.786 610.979 121.792 609.496V607.938H120.712V609.496C120.712 610.692 120.09 612.162 118.846 612.989C117.588 612.142 116.966 610.638 116.966 609.496ZM113.302 617.467H124.417V616.578H113.302V617.467ZM129.609 610.686V609.1H132.508V608.211H125.658V609.1H128.529V610.686C128.523 612.791 127.005 615.088 125.262 615.922L125.904 616.77C127.292 616.072 128.523 614.527 129.09 612.743C129.657 614.425 130.881 615.826 132.303 616.469L132.904 615.621C131.113 614.849 129.616 612.75 129.609 610.686ZM134.203 619.107H135.283V606.953H134.203V619.107ZM143.986 607.65C142.174 607.657 140.821 608.812 140.828 610.453C140.821 612.114 142.174 613.263 143.986 613.27C145.804 613.263 147.144 612.114 147.144 610.453C147.144 608.812 145.804 607.657 143.986 607.65ZM141.88 610.453C141.873 609.359 142.789 608.553 143.986 608.553C145.189 608.553 146.098 609.359 146.091 610.453C146.098 611.567 145.189 612.381 143.986 612.381C142.789 612.381 141.873 611.567 141.88 610.453ZM141.894 618.779H142.468C143.261 618.786 144.416 618.731 145.599 618.342L145.435 617.48C144.574 617.768 143.637 617.87 142.933 617.897V614.35H141.894V618.779ZM145.175 615.238H151.314V614.404H148.785V613.324H147.732V614.404H145.175V615.238ZM145.982 617.371C145.975 618.424 146.898 619.08 148.238 619.08C149.571 619.08 150.507 618.424 150.521 617.371C150.507 616.318 149.571 615.648 148.238 615.648C146.898 615.648 145.975 616.318 145.982 617.371ZM146.939 617.371C146.939 616.811 147.479 616.435 148.238 616.428C148.996 616.435 149.537 616.811 149.537 617.371C149.537 617.945 148.996 618.308 148.238 618.314C147.479 618.308 146.939 617.945 146.939 617.371ZM149.031 613.037H150.097V610.59H151.929V609.701H150.097V606.953H149.031V613.037ZM155.809 607.896C154.004 607.903 152.739 609.551 152.746 612.135C152.739 614.726 154.004 616.366 155.809 616.359C157.6 616.366 158.871 614.726 158.885 612.135C158.871 609.551 157.6 607.903 155.809 607.896ZM153.758 612.135C153.765 610.159 154.606 608.86 155.809 608.854C157.025 608.86 157.846 610.159 157.846 612.135C157.846 614.11 157.025 615.409 155.809 615.402C154.606 615.409 153.765 614.11 153.758 612.135ZM160.895 619.107H161.961V612.736H163.998V611.807H161.961V606.953H160.895V619.107ZM174.331 612.654H167.016V608.826H174.208V607.951H165.936V613.529H169.518V616.674H164.514V617.576H175.643V616.674H170.571V613.529H174.331V612.654ZM178.47 617.084H177.144L176.392 620.803H177.404L178.47 617.084ZM193.462 614.555H185.45V615.471H188.888C188.772 616.811 186.967 617.932 184.958 618.232L185.354 619.053C187.131 618.766 188.738 617.897 189.428 616.674C190.126 617.904 191.759 618.766 193.557 619.053L193.954 618.232C191.93 617.932 190.091 616.811 189.996 615.471H193.462V614.555ZM183.577 610.494C183.57 612.162 184.917 613.311 186.762 613.311C188.608 613.311 189.941 612.162 189.948 610.494C189.941 608.826 188.608 607.671 186.762 607.678C184.917 607.671 183.57 608.826 183.577 610.494ZM184.629 610.494C184.616 609.366 185.511 608.58 186.762 608.594C188 608.58 188.895 609.366 188.895 610.494C188.895 611.636 188 612.408 186.762 612.422C185.511 612.408 184.616 611.636 184.629 610.494ZM192.258 613.926H193.325V606.967H192.258V613.926ZM199.597 610.686V609.1H202.495V608.211H195.646V609.1H198.517V610.686C198.51 612.791 196.992 615.088 195.249 615.922L195.892 616.77C197.28 616.072 198.51 614.527 199.077 612.743C199.645 614.425 200.868 615.826 202.29 616.469L202.892 615.621C201.101 614.849 199.604 612.75 199.597 610.686ZM204.191 619.107H205.271V606.953H204.191V619.107ZM213.973 607.65C212.162 607.657 210.808 608.812 210.815 610.453C210.808 612.114 212.162 613.263 213.973 613.27C215.792 613.263 217.131 612.114 217.131 610.453C217.131 608.812 215.792 607.657 213.973 607.65ZM211.868 610.453C211.861 609.359 212.777 608.553 213.973 608.553C215.176 608.553 216.085 609.359 216.079 610.453C216.085 611.567 215.176 612.381 213.973 612.381C212.777 612.381 211.861 611.567 211.868 610.453ZM211.881 618.779H212.456C213.249 618.786 214.404 618.731 215.586 618.342L215.422 617.48C214.561 617.768 213.625 617.87 212.92 617.897V614.35H211.881V618.779ZM215.163 615.238H221.301V614.404H218.772V613.324H217.719V614.404H215.163V615.238ZM215.969 617.371C215.962 618.424 216.885 619.08 218.225 619.08C219.558 619.08 220.495 618.424 220.508 617.371C220.495 616.318 219.558 615.648 218.225 615.648C216.885 615.648 215.962 616.318 215.969 617.371ZM216.926 617.371C216.926 616.811 217.466 616.435 218.225 616.428C218.984 616.435 219.524 616.811 219.524 617.371C219.524 617.945 218.984 618.308 218.225 618.314C217.466 618.308 216.926 617.945 216.926 617.371ZM219.018 613.037H220.085V610.59H221.917V609.701H220.085V606.953H219.018V613.037ZM232.359 612.654H225.044V608.826H232.236V607.951H223.964V613.529H227.546V616.674H222.542V617.576H233.671V616.674H228.599V613.529H232.359V612.654ZM245.617 613.652H240.572V612.367H244.441V611.506H237.004V610.207H244.181V607.268H235.896V608.143H243.101V609.4H235.937V612.367H239.519V613.652H234.488V614.541H245.617V613.652ZM235.732 616.346H243.17V618.998H244.25V615.471H235.732V616.346ZM69.5585 628.922V627.582H68.5058V628.84C68.4989 630.72 67.2753 632.347 65.457 633.023L66.0312 633.885C67.453 633.331 68.54 632.217 69.0595 630.774C69.5927 632.046 70.6523 633.051 71.9921 633.543L72.58 632.695C70.8163 632.094 69.5585 630.576 69.5585 628.922ZM67.0702 636.865C67.0771 638.28 68.6015 639.08 71.1034 639.08C73.5986 639.08 75.1093 638.28 75.1093 636.865C75.1093 635.478 73.5986 634.664 71.1034 634.664C68.6015 634.664 67.0771 635.478 67.0702 636.865ZM68.1503 636.865C68.1366 636.038 69.2714 635.525 71.1034 635.525C72.9423 635.525 74.0634 636.038 74.0702 636.865C74.0634 637.727 72.9423 638.226 71.1034 638.232C69.2714 638.226 68.1366 637.727 68.1503 636.865ZM73.9335 634.35H74.9999V631.027H76.832V630.125H74.9999V626.953H73.9335V634.35ZM86.9459 626.953H85.8658V636.469H86.9459V632.121H88.7642V631.219H86.9459V626.953ZM77.4029 634.186L77.5259 635.061C79.6519 635.04 82.605 635.006 85.2095 634.514L85.1138 633.748C84.0543 633.912 82.899 634.015 81.7642 634.083V633.201C83.1724 633.064 84.0611 632.388 84.0748 631.369C84.0611 630.2 82.94 629.489 81.2173 629.496C79.5084 629.489 78.3668 630.2 78.3736 631.369C78.3668 632.395 79.2828 633.071 80.6978 633.201V634.131C79.5084 634.172 78.3668 634.186 77.4029 634.186ZM77.7037 628.963H84.7447V628.156H81.7642V626.926H80.6978V628.156H77.7037V628.963ZM79.2213 638.848H87.3834V637.945H80.3013V635.826H79.2213V638.848ZM79.399 631.369C79.3922 630.679 80.0963 630.255 81.2173 630.262C82.3384 630.255 83.0494 630.679 83.0494 631.369C83.0494 632.032 82.3384 632.463 81.2173 632.463C80.0963 632.463 79.3922 632.032 79.399 631.369ZM102.293 626.953H101.226V633.092H102.293V630.398H104.125V629.496H102.293V626.953ZM93.3788 632.504H94.3495C96.1747 632.497 97.9998 632.381 100.078 631.957L99.9413 631.055C97.9657 631.458 96.1815 631.581 94.4588 631.574V627.5H93.3788V632.504ZM94.5409 634.541H101.226V635.799H94.5682V638.943H102.744V638.068H95.6346V636.646H102.293V633.68H94.5409V634.541ZM114.772 626.953H113.692V639.135H114.772V626.953ZM105.202 632.135C105.208 634.726 106.494 636.366 108.305 636.359C110.11 636.366 111.416 634.726 111.409 632.135C111.416 629.551 110.11 627.903 108.305 627.896C106.494 627.903 105.208 629.551 105.202 632.135ZM106.241 632.135C106.241 630.159 107.088 628.86 108.305 628.854C109.529 628.86 110.37 630.159 110.37 632.135C110.37 634.11 109.529 635.409 108.305 635.402C107.088 635.409 106.241 634.11 106.241 632.135ZM127.33 632.203H122.135V628.99H127.275V628.115H121.082V633.092H123.597V635.525C122.387 635.56 121.212 635.566 120.152 635.566L120.303 636.469C122.627 636.476 125.566 636.421 128.26 636.031L128.178 635.225C127.05 635.354 125.853 635.437 124.664 635.484V633.092H127.33V632.203ZM128.984 639.135H130.051V626.953H128.984V639.135ZM138.196 628.02H132.618V633.693H138.196V632.6H141.039V635.84H142.12V626.967H141.039V629.1H138.196V628.02ZM133.684 632.832V628.908H137.143V632.832H133.684ZM134.258 638.848H142.393V637.945H135.338V635.047H134.258V638.848ZM138.196 631.711V630.002H141.039V631.711H138.196ZM158.465 633.365H153.447V631.766H157.193V630.891H149.851V628.471H157.084V627.582H148.785V631.766H152.381V633.365H147.377V634.24H158.465V633.365ZM148.812 638.848H157.289V637.945H149.879V635.348H148.812V638.848ZM169.371 626.953H168.305V639.135H169.371V626.953ZM160.02 628.977H164.6V631.533H160.047V636.182H161.059C163.158 636.182 165.003 636.093 167.239 635.744L167.129 634.842C164.955 635.19 163.158 635.286 161.141 635.279V632.408H165.68V628.088H160.02V628.977ZM181.618 626.967H180.593V634.008H181.618V626.967ZM171.856 633.092H176.56V630.822H178.269V633.857H179.294V627.213H178.269V629.934H176.56V627.842H171.856V633.092ZM172.868 632.271V628.689H175.561V632.271H172.868ZM173.593 638.943H181.618V634.609H173.593V638.943ZM174.645 638.068V635.457H180.565V638.068H174.645ZM193.332 626.953H192.265V631.479H189.353V627.91H188.3V631.082H184.828V627.91H183.748V636.059H189.353V632.367H192.265V639.135H193.332V626.953ZM184.828 635.17V631.943H188.3V635.17H184.828ZM204.621 626.953H203.555V639.107H204.621V632.805H206.59V631.902H204.621V626.953ZM195.297 635.949L195.899 636.797C199.857 634.842 201.47 631.704 201.477 628.266H195.858V629.168H200.39C200.144 632.046 198.435 634.391 195.297 635.949ZM220.05 626.953H218.984V633.146H220.05V630.494H221.882V629.592H220.05V626.953ZM210.781 630.098C210.774 631.697 212.114 632.798 213.939 632.805C215.771 632.798 217.097 631.697 217.097 630.098C217.097 628.505 215.771 627.411 213.939 627.404C212.114 627.411 210.774 628.505 210.781 630.098ZM211.834 630.098C211.827 629.045 212.722 628.293 213.939 628.307C215.149 628.293 216.051 629.045 216.044 630.098C216.051 631.164 215.149 631.93 213.939 631.93C212.722 631.93 211.827 631.164 211.834 630.098ZM212.298 634.582H218.984V635.867H212.326V638.943H220.501V638.082H213.378V636.688H220.05V633.721H212.298V634.582ZM232.57 626.953H231.504V629.729H229.07V630.631H231.504V633.051H228.975V633.953H231.504V639.135H232.57V626.953ZM222.932 628.949H227.225V631.506H222.973V636.291H223.875C225.817 636.291 227.375 636.223 229.317 635.922L229.221 635.02C227.375 635.307 225.864 635.375 224.039 635.375V632.381H228.277V628.061H222.932V628.949ZM244.284 632.805H236.956V628.977H244.161V628.088H235.889V633.693H244.284V632.805ZM234.468 637.453H245.596V636.551H234.468V637.453ZM256.49 626.953H255.423V629.729H252.99V630.631H255.423V633.051H252.894V633.953H255.423V639.135H256.49V626.953ZM246.851 628.949H251.144V631.506H246.892V636.291H247.794C249.736 636.291 251.294 636.223 253.236 635.922L253.14 635.02C251.294 635.307 249.784 635.375 247.958 635.375V632.381H252.197V628.061H246.851V628.949ZM269.516 636.646H266.754V633.338C267.759 632.798 268.367 631.937 268.367 630.85C268.367 628.97 266.522 627.732 263.924 627.719C261.326 627.732 259.481 628.97 259.481 630.85C259.481 631.957 260.109 632.832 261.148 633.372V636.646H258.387V637.549H269.516V636.646ZM260.52 630.85C260.513 629.489 261.928 628.594 263.924 628.607C265.899 628.594 267.328 629.489 267.328 630.85C267.328 632.21 265.899 633.119 263.924 633.119C261.928 633.119 260.513 632.21 260.52 630.85ZM262.201 636.646V633.762C262.721 633.898 263.302 633.967 263.924 633.967C264.56 633.967 265.148 633.892 265.674 633.755V636.646H262.201Z" fill="#6A6A6A"/>
<path d="M94.4354 805.316L91.3795 807.326C89.2326 802.215 88.1655 798.332 89.2432 797.802C89.2453 797.802 91.6305 800.908 94.4354 805.316Z" fill="#D6E7FA"/>
<path d="M103.31 826.679C103.312 826.801 103.314 826.921 103.312 827.044C99.822 827.703 87.877 809.634 87.877 809.634L91.382 807.326L94.4379 805.316C98.3921 811.534 103.188 820.342 103.31 826.679Z" fill="url(#paint16_linear_1573_38951)"/>
<path d="M247.477 747.942C247.477 747.942 186.887 778.027 176.806 784.401C166.723 790.775 108.637 825.805 108.637 825.805C108.637 825.805 108.569 825.059 108.378 823.782C107.566 818.434 104.522 803.758 94.8192 795.371C94.4817 795.076 94.1338 794.789 93.7773 794.512C93.7773 794.512 128.343 778.375 151.286 767.189C159.808 763.036 166.725 759.565 169.674 757.857C172.282 756.345 177.15 753.552 183.038 750.176C201.715 739.469 230.685 722.92 230.685 722.92C230.685 722.92 245.372 722.572 247.477 747.942Z" fill="url(#paint17_linear_1573_38951)"/>
<path d="M108.378 823.782L104.342 826.411L103.779 826.776L103.774 826.778L103.41 827.017L103.313 827.08C103.313 827.067 103.313 827.053 103.313 827.042C103.315 826.922 103.313 826.799 103.31 826.677C103.188 820.341 98.3945 811.532 94.4381 805.316C91.6333 800.908 89.248 797.802 89.248 797.802C89.267 797.793 89.286 797.785 89.305 797.776L94.822 795.372C104.523 803.758 107.566 818.434 108.378 823.782Z" fill="url(#paint18_linear_1573_38951)"/>
<path opacity="0.5" d="M186.875 775.474C185.363 779.22 182.164 782.232 177.889 783.417C170.421 785.482 162.485 781.192 160.161 773.829C159.027 770.238 159.44 766.583 161.024 763.536C162.688 760.333 165.649 757.815 169.474 756.753C176.946 754.686 184.884 758.976 187.206 766.338C188.2 769.482 188.008 772.681 186.875 775.474Z" fill="#9C9BAE"/>
<path d="M177.538 773.633L177.002 773.46L165.945 809.63C162.179 809.435 156.765 798.682 156.765 798.682L145.434 806.215C149.569 800.625 151.02 772.814 157.638 764.071C159.441 761.689 168.166 758.431 168.166 758.431L177.538 773.633Z" fill="url(#paint19_linear_1573_38951)"/>
<path d="M204.174 771.773C205.098 777.469 211.867 784.737 211.867 784.737L177.538 773.631L168.166 758.431L175.448 754.532C175.448 754.532 191.919 753.455 197.257 756.561C202.594 759.664 217.228 765.954 217.228 765.954C216.054 768.359 204.174 771.773 204.174 771.773Z" fill="url(#paint20_linear_1573_38951)"/>
<path d="M183.041 750.176L179.941 757.048L158.331 767.271L151.287 767.189C159.809 763.036 166.727 759.565 169.675 757.857C172.286 756.347 177.153 753.554 183.041 750.176Z" fill="url(#paint21_linear_1573_38951)"/>
<path d="M185.969 772.626C184.457 776.371 181.258 779.384 176.983 780.569C169.515 782.634 161.579 778.343 159.255 770.981C158.12 767.39 158.534 763.735 160.118 760.688C161.782 757.485 164.742 754.966 168.568 753.904C176.04 751.837 183.978 756.128 186.3 763.49C187.291 766.636 187.101 769.832 185.969 772.626Z" fill="#142533"/>
<path d="M185.967 772.626C184.299 775.814 181.342 778.329 177.525 779.384C170.057 781.454 162.121 777.165 159.797 769.797C158.808 766.659 158.996 763.473 160.116 760.688C160.907 759.166 161.991 757.798 163.321 756.668C164.789 755.418 166.559 754.46 168.568 753.902C176.04 751.835 183.976 756.126 186.298 763.488C186.357 763.68 186.414 763.872 186.467 764.062C187.264 767.022 187.03 770.004 185.967 772.626Z" fill="url(#paint22_linear_1573_38951)"/>
<path d="M182.664 770.776C181.412 773.17 179.193 775.058 176.327 775.85C170.721 777.404 164.762 774.182 163.017 768.652C162.275 766.298 162.416 763.904 163.258 761.813C164.508 759.408 166.729 757.517 169.602 756.721C175.211 755.169 181.171 758.391 182.913 763.918C183.655 766.279 183.514 768.679 182.664 770.776Z" fill="url(#paint23_linear_1573_38951)"/>
<path d="M186.468 764.064C185.692 764.339 184.892 764.575 184.068 764.774C174.818 766.988 165.912 763.393 163.322 756.67C164.79 755.42 166.559 754.462 168.569 753.904C176.041 751.837 183.977 756.128 186.299 763.49C186.358 763.68 186.415 763.872 186.468 764.064Z" fill="url(#paint24_linear_1573_38951)"/>
<path d="M174.405 771.169L168.297 769.182C167.96 769.072 167.728 768.758 167.741 768.429L167.781 767.493C167.798 767.071 168.211 766.799 168.652 766.921L172.028 767.856C172.448 767.972 172.846 767.732 172.895 767.333L173.743 760.198C173.787 759.816 174.158 759.576 174.563 759.662L176.031 759.977C176.432 760.063 176.714 760.437 176.664 760.813L175.308 770.669C175.249 771.074 174.829 771.306 174.405 771.169Z" fill="white"/>
<path d="M62.7949 873.883H58.0488V875.641H60.666C60.373 877.711 59.3867 878.902 57.5215 880.113L58.9473 881.441C61.6816 879.527 62.7852 877.408 62.7949 873.883ZM60.3535 884.586H69.9629V885.875H60.373V890.621H72.6582V888.883H62.541V887.477H72.1504V882.887H60.3535V884.586ZM62.5215 880.934L64.0254 882.184C65.4121 881.129 66.3203 879.996 66.8965 878.707H69.9629V882.125H72.1504V873.082H69.9629V876.969H67.4531C67.6484 876.031 67.7363 875.016 67.7363 873.883H63.3809V875.641H65.6562C65.4219 877.936 64.543 879.43 62.5215 880.934ZM81.4574 874.84H75.559V876.598H79.2992C79.2602 878.336 79.0941 880.924 78.059 884.449L80.2074 884.781C81.477 880.182 81.4477 877.467 81.4574 875.719V874.84ZM74.3676 888.219H90.4613V886.422H74.3676V888.219ZM82.6488 876.598H86.5941C86.5746 878.434 86.5258 880.992 85.8129 884.527L88.0004 884.762C88.7719 880.68 88.7426 878.043 88.7426 876.129V874.84H82.6488V876.598ZM106.038 873.082H103.87V879.586H100.843V881.363H103.87V890.758H106.038V873.082ZM91.8387 876.383H97.698V879.332H91.8973V886.617H93.3035C96.3406 886.607 98.7039 886.51 101.331 886.051L101.155 884.273C98.782 884.703 96.6727 884.791 94.0457 884.801V881.09H99.827V874.625H91.8387V876.383ZM124.251 881.812H108.118V883.551H115.228V886.793H117.435V883.551H124.251V881.812ZM109.837 877.086C109.827 879.312 112.366 880.689 116.165 880.68C119.984 880.689 122.493 879.312 122.493 877.086C122.493 874.869 119.984 873.473 116.165 873.473C112.366 873.473 109.827 874.869 109.837 877.086ZM110.091 890.387H122.474V888.609H112.279V885.152H110.091V890.387ZM112.181 877.086C112.161 875.875 113.743 875.191 116.165 875.191C118.607 875.191 120.179 875.875 120.169 877.086C120.179 878.258 118.607 878.941 116.165 878.941C113.743 878.941 112.161 878.258 112.181 877.086ZM144.564 873.082H142.494V879.996H140.502V873.414H138.51V889.84H140.502V881.734H142.494V890.738H144.564V873.082ZM129.916 886.617H131.107C133.568 886.598 135.414 886.539 137.553 886.109L137.396 884.332C135.6 884.664 134.018 884.762 132.104 884.781V876.93H136.518V875.172H129.916V886.617ZM160.219 873.082H158.032V890.738H160.219V882.184H162.7V880.367H160.219V873.082ZM146.039 885.836L146.352 887.633C149.36 887.633 153.442 887.604 157.231 886.91L157.094 885.328C155.707 885.523 154.223 885.641 152.739 885.719V884.146C154.663 883.824 155.942 882.623 155.961 880.953C155.942 878.961 154.174 877.643 151.664 877.633C149.125 877.643 147.377 878.961 147.387 880.953C147.377 882.613 148.627 883.814 150.551 884.146V885.797C148.93 885.836 147.377 885.836 146.039 885.836ZM146.371 876.832H156.899V875.113H152.739V873.16H150.551V875.113H146.371V876.832ZM149.438 880.953C149.428 879.928 150.327 879.303 151.664 879.293C152.983 879.303 153.871 879.928 153.871 880.953C153.871 881.969 152.983 882.564 151.664 882.555C150.327 882.564 149.428 881.969 149.438 880.953ZM179.253 881.09H163.12V882.73H179.253V881.09ZM164.995 885.309H175.151V886.402H165.014V890.543H177.827V889.039H167.182V887.809H177.3V883.785H164.995V885.309ZM165.112 874.977H175.093V876.051H165.171V880.094H177.573V878.609H167.319V877.457H177.261V873.473H165.112V874.977ZM198.296 873.043H196.129V882.672H198.296V878.785H200.777V877.027H198.296V873.043ZM184.39 876.168H194.859V874.508H190.718V872.945H188.55V874.508H184.39V876.168ZM185.289 879.605C185.289 881.412 187.017 882.496 189.625 882.496C192.242 882.496 193.931 881.412 193.941 879.605C193.931 877.848 192.242 876.725 189.625 876.715C187.017 876.725 185.289 877.848 185.289 879.605ZM186.754 885.035H196.129V886.207H186.773V890.582H198.843V888.961H188.921V887.711H198.296V883.453H186.754V885.035ZM187.398 879.605C187.388 878.766 188.257 878.268 189.625 878.277C190.992 878.268 191.871 878.766 191.871 879.605C191.871 880.475 190.992 880.924 189.625 880.934C188.257 880.924 187.388 880.475 187.398 879.605ZM220.329 873.082H218.161V882.184H220.329V873.082ZM205.895 880.016L206.129 881.734C209.215 881.734 213.278 881.627 216.793 881.07L216.696 879.508C215.954 879.596 215.172 879.674 214.371 879.732V875.895H215.954V874.215H206.364V875.895H207.907V879.996C207.204 880.006 206.53 880.016 205.895 880.016ZM208.493 884.625H218.18V885.895H208.532V890.582H220.895V888.863H210.68V887.477H220.329V882.926H208.493V884.625ZM209.996 879.947V875.895H212.301V879.859C211.53 879.898 210.758 879.928 209.996 879.947ZM238.62 886.812H234.909V882.301C236.276 881.49 237.106 880.25 237.096 878.707C237.106 875.895 234.333 874.039 230.514 874.039C226.716 874.039 223.962 875.895 223.971 878.707C223.962 880.27 224.811 881.539 226.218 882.35V886.812H222.487V888.59H238.62V886.812ZM226.1 878.707C226.091 876.871 227.878 875.748 230.514 875.758C233.141 875.748 234.968 876.871 234.968 878.707C234.968 880.514 233.141 881.666 230.514 881.656C227.878 881.666 226.091 880.514 226.1 878.707ZM228.366 886.812V883.141C229.03 883.277 229.753 883.355 230.514 883.355C231.296 883.355 232.028 883.277 232.702 883.131V886.812H228.366ZM243.376 883.414H241.345V890.523H247.712V889.127L248.747 890.66C250.212 890.074 251.218 888.99 251.804 887.691C252.361 889.029 253.357 890.094 254.919 890.66L256.032 889.039C253.855 888.297 252.898 886.51 252.907 884.684V883.277H250.739V884.684C250.739 886.373 249.792 888.141 247.712 889.02V883.414H245.7V885.309H243.376V883.414ZM239.607 877.906C239.607 880.357 241.57 882.047 244.275 882.047C246.57 882.047 248.376 880.748 248.806 878.785H251.989V882.438H254.157V873.082H251.989V876.988H248.796C248.347 875.074 246.55 873.795 244.275 873.805C241.57 873.795 239.607 875.494 239.607 877.906ZM241.677 877.906C241.677 876.51 242.751 875.592 244.275 875.602C245.759 875.592 246.823 876.51 246.833 877.906C246.823 879.332 245.759 880.27 244.275 880.27C242.751 880.27 241.677 879.332 241.677 877.906ZM243.376 888.863V886.93H245.7V888.863H243.376ZM270.945 873.082H268.757V890.758H270.945V873.082ZM256.824 880.602C256.814 884.439 258.757 886.852 261.433 886.852C264.08 886.852 266.033 884.439 266.043 880.602C266.033 876.793 264.08 874.371 261.433 874.371C258.757 874.371 256.814 876.793 256.824 880.602ZM258.914 880.602C258.914 877.906 259.939 876.324 261.433 876.324C262.918 876.324 263.933 877.906 263.933 880.602C263.933 883.316 262.918 884.889 261.433 884.898C259.939 884.889 258.914 883.316 258.914 880.602ZM276.58 887.613H274.1L273.084 893.082H274.939L276.58 887.613ZM71.057 901.102H68.9867V905.281H67.1312V901.434H65.0805V911.375H67.1312V907.059H68.9867V911.453H71.057V901.102ZM55.8617 909.988L56.8969 911.609C61.4574 909.754 63.6645 906.707 63.6547 902.332H56.6625V904.09H61.4477C61.0961 906.668 59.309 908.67 55.8617 909.988ZM58.8891 913.934H68.8891V918.738H71.057V912.176H58.8891V913.934ZM82.7078 902.391H73.7039V904.188H80.5691C80.5496 905.271 80.4812 906.629 80.1297 908.445L82.2781 908.641C82.6883 906.404 82.6883 904.646 82.7078 903.445V902.391ZM72.6492 910.047L72.8445 911.785C75.9402 911.775 80.1102 911.707 83.782 911.043L83.6648 909.48C81.9559 909.725 80.0809 909.861 78.2547 909.939V906.414H76.1062V910.008C74.866 910.027 73.6941 910.037 72.6492 910.047ZM75.2859 918.387H87.493V916.629H77.4734V913.133H75.2859V918.387ZM84.7 914.305H86.9266V908.406H89.2117V906.59H86.9266V901.082H84.7V914.305ZM96.2141 904.109V903.895H99.8664V902.156H90.3352V903.895H94.007V904.129C94.007 906.424 92.5031 908.768 89.6906 909.695L90.8039 911.414C92.9035 910.711 94.3684 909.227 95.1398 907.381C95.9113 909.041 97.3078 910.379 99.2805 911.023L100.374 909.344C97.6398 908.426 96.2141 906.268 96.2141 904.109ZM92.4836 914.188H102.347V918.738H104.515V912.449H92.4836V914.188ZM99.3391 907.234H102.347V911.609H104.515V901.082H102.347V905.457H99.3391V907.234ZM121.322 901.102H119.134V913.855H121.322V901.102ZM106.927 906.668C106.927 909.275 109.007 911.102 111.693 911.102C114.379 911.102 116.449 909.275 116.439 906.668C116.449 904.1 114.379 902.264 111.693 902.254C109.007 902.264 106.927 904.1 106.927 906.668ZM109.056 906.668C109.046 905.145 110.179 904.148 111.693 904.148C113.168 904.148 114.31 905.145 114.31 906.668C114.31 908.23 113.168 909.207 111.693 909.207C110.179 909.207 109.046 908.23 109.056 906.668ZM109.642 918.387H121.81V916.629H111.83V912.566H109.642V918.387ZM142.592 901.082H140.405V918.738H142.592V901.082ZM127.963 913.875L129.096 915.613C135.278 912.674 137.319 908.211 137.319 902.957H128.862V904.676H135.112C134.721 908.689 132.592 911.678 127.963 913.875ZM160.845 910.633H153.852V909.168H159.204V907.469H148.911V906.062H158.852V901.473H146.704V903.172H156.684V904.48H146.762V909.168H151.704V910.633H144.712V912.391H160.845V910.633ZM146.509 915.223H156.762V918.621H158.95V913.504H146.509V915.223ZM169.644 902.078C165.943 902.078 163.091 904.061 163.101 907.059C163.091 910.096 165.943 912.078 169.644 912.078C173.364 912.078 176.236 910.096 176.226 907.059C176.236 904.061 173.364 902.078 169.644 902.078ZM161.616 916.512H177.749V914.734H161.616V916.512ZM165.191 907.059C165.181 905.105 167.075 903.816 169.644 903.836C172.222 903.816 174.097 905.105 174.097 907.059C174.097 909.061 172.222 910.291 169.644 910.301C167.075 910.291 165.181 909.061 165.191 907.059ZM194.634 914.891H187.603V912.02H193.13V910.242H182.584V907.957H192.72V902.293H180.377V904.051H190.572V906.238H180.416V912.02H185.455V914.891H178.502V916.688H194.634V914.891ZM215.827 909.305H199.733V911.062H215.827V909.305ZM200.514 906.805L201.256 908.523C204.459 908.191 206.803 906.912 207.76 905.125C208.717 906.912 211.09 908.191 214.303 908.523L215.065 906.805C211.715 906.482 209.606 905.154 209.284 903.699H214.381V901.922H201.198V903.699H206.246C205.914 905.174 203.786 906.482 200.514 906.805ZM201.608 915.477C201.608 917.557 203.922 918.719 207.76 918.719C211.569 918.719 213.864 917.557 213.873 915.477C213.864 913.426 211.569 912.234 207.76 912.234C203.922 912.234 201.608 913.426 201.608 915.477ZM203.815 915.477C203.805 914.451 205.192 913.934 207.76 913.934C210.289 913.934 211.686 914.451 211.705 915.477C211.686 916.502 210.289 917.01 207.76 917.02C205.192 917.01 203.805 916.502 203.815 915.477ZM231.403 901.082H229.235V903.777H225.68V902.41H217.38V910.398H225.68V909.031H229.235V911.473H231.403V901.082ZM219.43 915.34C219.411 917.488 221.706 918.719 225.427 918.719C229.167 918.719 231.452 917.488 231.462 915.34C231.452 913.191 229.167 911.932 225.427 911.941C221.706 911.932 219.411 913.191 219.43 915.34ZM219.548 908.66V904.129H223.532V908.66H219.548ZM221.579 915.34C221.569 914.197 222.975 913.611 225.427 913.602C227.897 913.611 229.294 914.197 229.294 915.34C229.294 916.434 227.897 917.039 225.427 917.039C222.975 917.039 221.569 916.434 221.579 915.34ZM225.68 907.273V905.496H229.235V907.273H225.68ZM247.331 901.082H245.183V918.738H247.331V909.91H250.046V908.113H247.331V901.082ZM233.405 905.535H243.816V903.797H239.753V901.336H237.585V903.797H233.405V905.535ZM234.226 910.848C234.206 913.279 236.101 914.988 238.679 914.988C241.218 914.988 243.103 913.279 243.113 910.848C243.103 908.406 241.218 906.678 238.679 906.688C236.101 906.678 234.206 908.406 234.226 910.848ZM236.296 910.848C236.286 909.412 237.292 908.465 238.679 908.465C240.036 908.465 241.023 909.412 241.042 910.848C241.023 912.283 240.036 913.201 238.679 913.191C237.292 913.201 236.286 912.283 236.296 910.848ZM255.896 905.711V902.645H253.806V905.809C253.796 908.816 252.664 911.932 250.095 913.484L251.443 915.105C253.103 914.09 254.236 912.293 254.871 910.174C255.457 912.098 256.492 913.738 258.084 914.695L259.275 913.035C256.882 911.531 255.906 908.562 255.896 905.711ZM257.38 908.953H259.9V917.879H261.951V901.395H259.9V907.156H257.38V908.953ZM263.533 918.738H265.623V901.082H263.533V918.738ZM283.406 914.812H279.695V910.301C281.062 909.49 281.893 908.25 281.883 906.707C281.893 903.895 279.119 902.039 275.301 902.039C271.502 902.039 268.748 903.895 268.758 906.707C268.748 908.27 269.598 909.539 271.004 910.35V914.812H267.273V916.59H283.406V914.812ZM270.887 906.707C270.877 904.871 272.664 903.748 275.301 903.758C277.928 903.748 279.754 904.871 279.754 906.707C279.754 908.514 277.928 909.666 275.301 909.656C272.664 909.666 270.877 908.514 270.887 906.707ZM273.152 914.812V911.141C273.816 911.277 274.539 911.355 275.301 911.355C276.082 911.355 276.814 911.277 277.488 911.131V914.812H273.152Z" fill="black"/>
<path d="M106.75 936.609H98.492V937.498H105.683V937.566C105.69 938.585 105.69 939.747 105.355 941.34H97.0838V942.201H102.156V945.141H103.209V942.201H108.213V941.34H106.449C106.75 939.754 106.75 938.592 106.75 937.566V936.609ZM98.492 947.848H107.01V946.945H99.5721V944.047H98.492V947.848ZM115.237 937.115H109.659V945.127H110.588C112.919 945.127 114.403 945.045 116.194 944.703L116.057 943.814C114.375 944.143 112.933 944.218 110.739 944.211V938.018H115.237V937.115ZM114.512 941.271H118.053V948.135H119.133V935.953H118.053V940.383H114.512V941.271ZM127.196 937.115H121.618V945.127H122.548C124.879 945.127 126.362 945.045 128.153 944.703L128.017 943.814C126.335 944.143 124.893 944.218 122.698 944.211V938.018H127.196V937.115ZM126.472 941.271H130.013V948.135H131.093V935.953H130.013V940.383H126.472V941.271ZM143.011 935.953H141.931V948.107H143.011V935.953ZM133.113 944.949L133.701 945.824C137.775 943.869 139.402 940.772 139.416 937.279H133.674V938.154H138.322C138.083 941.06 136.401 943.391 133.113 944.949ZM150.716 943.09H149.704V947.943H153.929V943.09H152.931V944.607H150.716V943.09ZM148.487 939.289C148.481 940.957 149.793 942.092 151.646 942.092C153.293 942.092 154.544 941.148 154.756 939.713H157.292V942.393H158.372V935.953H157.292V938.824H154.749C154.517 937.423 153.279 936.5 151.646 936.5C149.793 936.5 148.481 937.628 148.487 939.289ZM149.513 939.289C149.513 938.182 150.395 937.402 151.646 937.402C152.869 937.402 153.751 938.182 153.751 939.289C153.751 940.403 152.869 941.196 151.646 941.203C150.395 941.196 149.513 940.403 149.513 939.289ZM150.716 947.096V945.428H152.931V947.096H150.716ZM154.093 947.219L154.653 948.039C155.727 947.581 156.472 946.72 156.855 945.729C157.231 946.733 157.962 947.595 159.083 948.039L159.644 947.219C158.16 946.672 157.388 945.325 157.401 944.047V943.008H156.335V944.047C156.328 945.277 155.556 946.61 154.093 947.219ZM170.086 939.645H162.826V936.404H161.759V940.506H170.086V939.645ZM160.242 943.035H171.371V942.16H160.242V943.035ZM161.691 947.807H170.154V946.918H162.758V944.279H161.691V947.807ZM179.144 939.686V939.125H181.481V938.236H179.157V936.404H178.132V938.236H175.78V939.125H178.132V939.686C178.125 941.695 177.134 943.808 175.493 944.771L176.136 945.564C177.346 944.854 178.221 943.5 178.651 941.941C179.096 943.404 179.971 944.655 181.181 945.318L181.81 944.512C180.142 943.623 179.15 941.627 179.144 939.686ZM182.315 947.492H183.341V941.791H184.995V948.107H186.034V935.953H184.995V940.875H183.341V936.213H182.315V947.492ZM197.611 935.967H196.517V942.57H193.837V943.445H196.517V945.154H197.611V935.967ZM187.466 940.779L187.617 941.668C188.601 941.668 189.743 941.654 190.939 941.6V944.348H192.005V941.545C193.168 941.47 194.357 941.354 195.492 941.162L195.41 940.383C194.959 940.444 194.494 940.499 194.022 940.54C194.282 938.988 194.282 937.854 194.275 937.184V936.705H188.56V937.58H193.209C193.202 938.277 193.161 939.289 192.921 940.629C190.994 940.759 189.032 940.772 187.466 940.779ZM189.285 947.848H197.912V946.945H190.365V944.129H189.285V947.848ZM206.248 936.896H200.192V937.799H205.189C205.175 938.571 205.148 939.604 204.854 941.053L205.934 941.135C206.241 939.549 206.241 938.339 206.248 937.539V936.896ZM199.44 942.27L199.549 943.158C201.716 943.151 204.642 943.104 207.192 942.666L207.123 941.873C205.859 942.051 204.464 942.146 203.117 942.201V939.59H202.051V942.235C201.115 942.263 200.226 942.27 199.44 942.27ZM201.313 947.848H209.434V946.945H202.393V944.279H201.313V947.848ZM207.944 945.1H209.037V940.834H210.815V939.918H209.037V935.953H207.944V945.1ZM221.503 935.953H220.436V948.135H221.503V935.953ZM212.151 937.977H216.731V940.533H212.179V945.182H213.19C215.289 945.182 217.135 945.093 219.37 944.744L219.261 943.842C217.087 944.19 215.289 944.286 213.272 944.279V941.408H217.811V937.088H212.151V937.977ZM234.556 945.701H229.484V943.404H233.435V942.516H225.888V940.533H233.148V936.855H224.794V937.744H232.095V939.658H224.822V943.404H228.431V945.701H223.427V946.604H234.556V945.701ZM80.8788 962.365H75.8613V960.766H79.6073V959.891H72.2655V957.471H79.498V956.582H71.1991V960.766H74.7948V962.365H69.7909V963.24H80.8788V962.365ZM71.2265 967.848H79.703V966.945H72.2929V964.348H71.2265V967.848ZM88.4908 957.307H82.3111V958.182H87.4107C87.4175 959.152 87.3902 960.629 87.0552 962.666L88.1353 962.762C88.4839 960.506 88.4839 958.899 88.4908 957.936V957.307ZM81.6275 964.539L81.7642 965.428C83.938 965.441 86.7955 965.387 89.3521 964.99L89.2974 964.184C88.0328 964.334 86.6519 964.423 85.3052 964.471V960.779H84.2525V964.505C83.316 964.525 82.4273 964.532 81.6275 964.539ZM90.063 968.107H91.1295V961.969H93.0982V961.039H91.1295V955.953H90.063V968.107ZM107.119 955.967H106.053V964.854H107.119V955.967ZM97.3709 959.795C97.3641 961.565 98.7381 962.796 100.556 962.789C102.375 962.796 103.735 961.565 103.742 959.795C103.735 958.045 102.375 956.821 100.556 956.814C98.7381 956.821 97.3641 958.045 97.3709 959.795ZM98.4237 959.795C98.41 958.605 99.326 957.758 100.556 957.758C101.766 957.758 102.689 958.605 102.689 959.795C102.689 961.005 101.766 961.846 100.556 961.846C99.326 961.846 98.41 961.005 98.4237 959.795ZM99.2713 967.848H107.502V966.945H100.338V963.951H99.2713V967.848ZM118.545 955.953H117.465V964.854H118.545V960.561H120.377V959.658H118.545V955.953ZM109.057 962.584L109.522 963.445C113.029 962.352 115.264 960.027 115.264 956.896H109.563V957.799H114.095C113.87 959.945 111.976 961.675 109.057 962.584ZM110.93 967.848H119.106V966.945H111.997V963.951H110.93V967.848ZM127.743 956.896H121.687V957.799H126.684C126.67 958.571 126.643 959.604 126.349 961.053L127.429 961.135C127.736 959.549 127.736 958.339 127.743 957.539V956.896ZM120.935 962.27L121.044 963.158C123.211 963.151 126.137 963.104 128.687 962.666L128.618 961.873C127.354 962.051 125.959 962.146 124.612 962.201V959.59H123.546V962.235C122.609 962.263 121.721 962.27 120.935 962.27ZM122.808 967.848H130.929V966.945H123.888V964.279H122.808V967.848ZM129.439 965.1H130.532V960.834H132.31V959.918H130.532V955.953H129.439V965.1ZM143.367 955.953H142.342V968.107H143.367V955.953ZM132.949 964.703L133.605 965.482C135.902 964.108 137.235 962.29 137.823 960.232H139.881V962.393H137.625V963.281H139.881V967.492H140.906V956.281H139.881V959.344H138.035C138.144 958.749 138.199 958.134 138.199 957.512H133.496V958.4H137.133C136.921 960.943 135.594 963.138 132.949 964.703ZM156.038 961.6H144.909V962.447H156.038V961.6ZM146.248 964.225H153.577V965.264H146.262V967.943H155.039V967.164H147.342V966.002H154.643V963.418H146.248V964.225ZM146.317 957.102H153.522V958.1H146.358V960.684H154.821V959.904H147.424V958.838H154.602V956.322H146.317V957.102ZM171.384 965.646H166.312V962.68H170.004V956.979H161.568V962.68H165.259V965.646H160.256V966.549H171.384V965.646ZM162.621 961.818V957.84H168.965V961.818H162.621ZM181.909 960.506H174.84V957.566H181.744V956.678H173.746V961.367H181.909V960.506ZM172.201 963.855H177.205V968.066H178.258V963.855H183.33V962.98H172.201V963.855ZM191.896 959.686V958.1H194.795V957.211H187.945V958.1H190.816V959.686C190.809 961.791 189.292 964.088 187.548 964.922L188.191 965.77C189.579 965.072 190.809 963.527 191.377 961.743C191.944 963.425 193.168 964.826 194.589 965.469L195.191 964.621C193.4 963.849 191.903 961.75 191.896 959.686ZM196.49 968.107H197.57V955.953H196.49V968.107ZM209.53 955.953H208.477V962.311H209.53V955.953ZM199.781 958.797L199.959 959.686L204.04 959.378C203.261 960.431 201.88 961.258 199.864 961.764L200.26 962.611C204.013 961.661 205.961 959.535 205.961 956.5H200.383V957.361H204.813C204.772 957.792 204.669 958.209 204.498 958.599L199.781 958.797ZM201.641 963.773H208.477V964.963H201.655V967.971H209.967V967.109H202.721V965.756H209.53V962.926H201.641V963.773ZM220.939 957.088V956.391H219.832V957.088C219.832 958.831 217.61 960.28 215.416 960.588L215.853 961.463C217.747 961.148 219.613 960.116 220.392 958.612C221.171 960.103 223.044 961.148 224.931 961.463L225.369 960.588C223.174 960.28 220.946 958.804 220.939 957.088ZM214.841 963.705H219.832V968.107H220.884V963.705H225.916V962.803H214.841V963.705ZM234.29 964.115V963.445H233.251V964.115C233.237 965.277 232.314 966.576 230.776 967.15L231.323 967.943C232.485 967.506 233.319 966.658 233.757 965.681C234.119 966.699 234.871 967.588 236.054 968.039C237.175 967.567 237.92 966.631 238.296 965.646C238.72 966.665 239.567 967.513 240.784 967.943L241.317 967.15C239.759 966.61 238.836 965.366 238.843 964.115V963.445H237.79V964.115C237.797 965.052 237.181 966.269 236.019 966.986C234.864 966.33 234.283 965.188 234.29 964.115ZM230.462 959.521C230.455 961.189 231.802 962.338 233.647 962.338C235.493 962.338 236.826 961.189 236.833 959.521C236.826 957.826 235.493 956.671 233.647 956.678C231.802 956.671 230.455 957.826 230.462 959.521ZM231.514 959.521C231.501 958.387 232.396 957.58 233.647 957.594C234.885 957.58 235.78 958.387 235.78 959.521C235.78 960.649 234.885 961.442 233.647 961.449C232.396 961.442 231.501 960.649 231.514 959.521ZM239.143 962.912H240.21V955.967H239.143V962.912ZM245.402 956.896C243.604 956.903 242.346 958.551 242.353 961.135C242.346 963.726 243.604 965.366 245.402 965.359C247.097 965.366 248.314 963.876 248.43 961.49H251.144V968.135H252.21V955.953H251.144V960.602H248.416C248.252 958.325 247.056 956.903 245.402 956.896ZM243.378 961.135C243.385 959.159 244.206 957.86 245.402 957.854C246.591 957.86 247.425 959.159 247.425 961.135C247.425 963.11 246.591 964.409 245.402 964.402C244.206 964.409 243.385 963.11 243.378 961.135ZM265.223 965.646H262.461V962.338C263.466 961.798 264.074 960.937 264.074 959.85C264.074 957.97 262.229 956.732 259.631 956.719C257.033 956.732 255.188 957.97 255.188 959.85C255.188 960.957 255.816 961.832 256.856 962.372V965.646H254.094V966.549H265.223V965.646ZM256.227 959.85C256.22 958.489 257.635 957.594 259.631 957.607C261.607 957.594 263.035 958.489 263.035 959.85C263.035 961.21 261.607 962.119 259.631 962.119C257.635 962.119 256.22 961.21 256.227 959.85ZM257.908 965.646V962.762C258.428 962.898 259.009 962.967 259.631 962.967C260.267 962.967 260.855 962.892 261.381 962.755V965.646H257.908Z" fill="#6A6A6A"/>
<defs>
<linearGradient id="paint0_linear_1573_38951" x1="158" y1="131.167" x2="158" y2="31.5149" gradientUnits="userSpaceOnUse">
<stop stop-color="white"/>
<stop offset="1" stop-color="#EDEEFF"/>
</linearGradient>
<linearGradient id="paint1_linear_1573_38951" x1="135.317" y1="125.193" x2="136.971" y2="106.257" gradientUnits="userSpaceOnUse">
<stop stop-color="#C2CCED"/>
<stop offset="0.0512" stop-color="#C4CEED"/>
<stop offset="1" stop-color="#E4EBF0"/>
</linearGradient>
<linearGradient id="paint2_linear_1573_38951" x1="198.954" y1="145.467" x2="199.568" y2="103.929" gradientUnits="userSpaceOnUse">
<stop stop-color="#8FAFFF"/>
<stop offset="0.5478" stop-color="#4982EB"/>
<stop offset="1" stop-color="#0D5ADA"/>
</linearGradient>
<linearGradient id="paint3_linear_1573_38951" x1="214.806" y1="177.382" x2="214.971" y2="138.37" gradientUnits="userSpaceOnUse">
<stop stop-color="#8FAFFF"/>
<stop offset="0.5478" stop-color="#4982EB"/>
<stop offset="1" stop-color="#0D5ADA"/>
</linearGradient>
<linearGradient id="paint4_linear_1573_38951" x1="189.173" y1="137.682" x2="253.251" y2="137.682" gradientUnits="userSpaceOnUse">
<stop stop-color="#A6C3FC"/>
<stop offset="1" stop-color="#C0D6FF"/>
</linearGradient>
<linearGradient id="paint5_linear_1573_38951" x1="224.263" y1="105.906" x2="218.085" y2="196.469" gradientUnits="userSpaceOnUse">
<stop offset="0.00045606" stop-color="white"/>
<stop offset="0.2594" stop-color="#F7F8FF"/>
<stop offset="0.6551" stop-color="#E2E6FF"/>
<stop offset="1" stop-color="#CAD2FF"/>
</linearGradient>
<linearGradient id="paint6_linear_1573_38951" x1="207.285" y1="391.117" x2="114.702" y2="491.668" gradientUnits="userSpaceOnUse">
<stop stop-color="#F0F8FF"/>
<stop offset="1" stop-color="#EDEEFF"/>
</linearGradient>
<linearGradient id="paint7_linear_1573_38951" x1="151.02" y1="463.068" x2="173.935" y2="528.476" gradientUnits="userSpaceOnUse">
<stop offset="0.3441" stop-color="#3365E7"/>
<stop offset="1" stop-color="#E6E7FF"/>
</linearGradient>
<linearGradient id="paint8_linear_1573_38951" x1="242.497" y1="423.537" x2="149.913" y2="524.089" gradientUnits="userSpaceOnUse">
<stop stop-color="#F0F8FF"/>
<stop offset="1" stop-color="#EDEEFF"/>
</linearGradient>
<linearGradient id="paint9_linear_1573_38951" x1="214.436" y1="386.827" x2="164.143" y2="508.038" gradientUnits="userSpaceOnUse">
<stop stop-color="#B5E5DE"/>
<stop offset="1" stop-color="#B2B6F2"/>
</linearGradient>
<linearGradient id="paint10_linear_1573_38951" x1="128.197" y1="441.548" x2="128.959" y2="408.844" gradientUnits="userSpaceOnUse">
<stop stop-color="#8FAFFF"/>
<stop offset="0.5478" stop-color="#4982EB"/>
<stop offset="1" stop-color="#0D5ADA"/>
</linearGradient>
<linearGradient id="paint11_linear_1573_38951" x1="130.404" y1="437.286" x2="130.491" y2="436.656" gradientUnits="userSpaceOnUse">
<stop stop-color="#8FAFFF"/>
<stop offset="0.5478" stop-color="#4982EB"/>
<stop offset="1" stop-color="#0D5ADA"/>
</linearGradient>
<linearGradient id="paint12_linear_1573_38951" x1="128.865" y1="451.921" x2="137.508" y2="450.933" gradientUnits="userSpaceOnUse">
<stop stop-color="#8FAFFF"/>
<stop offset="0.5478" stop-color="#4982EB"/>
<stop offset="1" stop-color="#0D5ADA"/>
</linearGradient>
<linearGradient id="paint13_linear_1573_38951" x1="106.699" y1="406.91" x2="134.429" y2="406.91" gradientUnits="userSpaceOnUse">
<stop stop-color="#8FAFFF"/>
<stop offset="0.5478" stop-color="#4982EB"/>
<stop offset="1" stop-color="#0D5ADA"/>
</linearGradient>
<linearGradient id="paint14_linear_1573_38951" x1="113.44" y1="426.804" x2="145.313" y2="426.804" gradientUnits="userSpaceOnUse">
<stop stop-color="#85AEFC"/>
<stop offset="0.2094" stop-color="#85AEFC"/>
<stop offset="1" stop-color="white"/>
</linearGradient>
<linearGradient id="paint15_linear_1573_38951" x1="106.991" y1="418.01" x2="119.18" y2="416.617" gradientUnits="userSpaceOnUse">
<stop stop-color="#85AEFC"/>
<stop offset="0.2094" stop-color="#85AEFC"/>
<stop offset="1" stop-color="white"/>
</linearGradient>
<linearGradient id="paint16_linear_1573_38951" x1="114.92" y1="849.412" x2="85.3565" y2="797.166" gradientUnits="userSpaceOnUse">
<stop stop-color="#C2CCED"/>
<stop offset="0.0512" stop-color="#C4CEED"/>
<stop offset="1" stop-color="#E4EBF0"/>
</linearGradient>
<linearGradient id="paint17_linear_1573_38951" x1="182.331" y1="790.417" x2="160.679" y2="751.348" gradientUnits="userSpaceOnUse">
<stop stop-color="#C2CCED"/>
<stop offset="0.2728" stop-color="#DFE4F6"/>
<stop offset="0.6118" stop-color="white"/>
<stop offset="1" stop-color="#E4EBF0"/>
</linearGradient>
<linearGradient id="paint18_linear_1573_38951" x1="83.9584" y1="756.559" x2="107.301" y2="840.259" gradientUnits="userSpaceOnUse">
<stop stop-color="#C2CCED"/>
<stop offset="0.0512" stop-color="#C4CEED"/>
<stop offset="1" stop-color="#E4EBF0"/>
</linearGradient>
<linearGradient id="paint19_linear_1573_38951" x1="175.206" y1="806.469" x2="153.911" y2="778.598" gradientUnits="userSpaceOnUse">
<stop stop-color="#D6E7FA"/>
<stop offset="1" stop-color="#749DED"/>
</linearGradient>
<linearGradient id="paint20_linear_1573_38951" x1="206.889" y1="782.262" x2="185.594" y2="754.391" gradientUnits="userSpaceOnUse">
<stop stop-color="#D6E7FA"/>
<stop offset="1" stop-color="#749DED"/>
</linearGradient>
<linearGradient id="paint21_linear_1573_38951" x1="193.144" y1="792.764" x2="171.85" y2="764.893" gradientUnits="userSpaceOnUse">
<stop stop-color="#D6E7FA"/>
<stop offset="1" stop-color="#749DED"/>
</linearGradient>
<linearGradient id="paint22_linear_1573_38951" x1="156.557" y1="749.132" x2="199.223" y2="794.336" gradientUnits="userSpaceOnUse">
<stop stop-color="#475B80"/>
<stop offset="0.6559" stop-color="#2C3D51"/>
<stop offset="1" stop-color="#21313E"/>
</linearGradient>
<linearGradient id="paint23_linear_1573_38951" x1="162.994" y1="768.679" x2="182.938" y2="763.915" gradientUnits="userSpaceOnUse">
<stop stop-color="#475B80"/>
<stop offset="0.6559" stop-color="#2C3D51"/>
<stop offset="1" stop-color="#21313E"/>
</linearGradient>
<linearGradient id="paint24_linear_1573_38951" x1="176.216" y1="734.467" x2="174.53" y2="767.468" gradientUnits="userSpaceOnUse">
<stop stop-color="white" stop-opacity="0.3"/>
<stop offset="1" stop-color="white" stop-opacity="0"/>
</linearGradient>
</defs>
</svg>
