<svg width="201" height="174" viewBox="0 0 201 174" fill="none" xmlns="http://www.w3.org/2000/svg">
<path d="M36.3516 101.878L178.647 43.625L76.7201 117.295L36.3516 101.878Z" fill="url(#paint0_linear_1573_38967)"/>
<path d="M88.2832 123.222L103.844 134.092L101.198 137.29L88.2928 152.895L88.2851 130.239L88.2832 123.222Z" fill="url(#paint1_linear_1573_38967)"/>
<path d="M178.647 43.625L134.313 155.375L103.844 134.092L88.2832 123.222L119.5 95.7272L178.647 43.625Z" fill="url(#paint2_linear_1573_38967)"/>
<path d="M178.647 43.625L119.499 95.7272L88.2829 123.222L88.2848 130.239L88.2925 152.895L76.7207 117.295L178.647 43.625Z" fill="url(#paint3_linear_1573_38967)"/>
<path d="M61.3711 92.945L61.3863 92.9481L61.3764 92.9253C61.3749 92.9314 61.3734 92.939 61.3711 92.945Z" fill="#2F80ED"/>
<path d="M65.4326 87.6387L65.4402 87.6463L59.4332 86.2339C58.9094 86.1122 58.4685 85.7633 58.2336 85.2768L57.3601 83.4919C53.3053 73.3921 62.5089 63.087 59.6308 55.9177C59.6232 55.8949 59.6156 55.8797 59.6004 55.8569C60.6791 55.1963 61.7419 54.8618 62.7141 54.8618C63.5116 54.8618 64.2558 55.0899 64.8784 55.53C65.0304 55.644 65.1825 55.7657 65.3261 55.9094C65.3946 55.9778 65.463 56.0462 65.5314 56.1298C65.6606 56.2818 65.7899 56.4491 65.9031 56.6232C66.0247 56.8056 66.1312 57.0025 66.23 57.2077C66.2756 57.3066 66.3212 57.413 66.3668 57.527C66.4048 57.6182 66.4429 57.7171 66.4809 57.8159C66.5037 57.8919 66.5265 57.9603 66.5493 58.0363C66.5797 58.1124 66.6025 58.196 66.6253 58.272C66.6481 58.3784 66.6785 58.4849 66.7013 58.5913C66.7317 58.7129 66.7621 58.8421 66.7849 58.9706C66.8001 59.0542 66.8153 59.1531 66.8305 59.2367C66.8382 59.3127 66.8534 59.3887 66.861 59.4647C66.8762 59.5864 66.8914 59.708 66.899 59.8365C66.9142 59.9353 66.9218 60.0341 66.9218 60.1329C67.2639 66.4592 61.6666 74.5544 63.3755 82.7028V82.7332C63.4135 82.9233 63.4591 83.1125 63.5123 83.3026C63.5579 83.5002 63.6188 83.6971 63.6796 83.9024C63.7936 84.2969 63.938 84.6922 64.0969 85.0944L64.8944 87.0762C65 87.343 65.1977 87.5323 65.4326 87.6387Z" fill="url(#paint4_linear_1573_38967)"/>
<path d="M63.5119 83.3025C63.4586 83.1124 63.413 82.9231 63.375 82.733V82.7026C63.4206 82.9003 63.4662 83.0972 63.5119 83.3025Z" fill="url(#paint5_linear_1573_38967)"/>
<path d="M61.1309 92.8877H61.1324L61.1309 92.8892V92.8877Z" fill="#2F80ED"/>
<path d="M71.0772 101.908L64.8718 100.427L64.361 100.306C64.3511 100.302 64.3427 100.297 64.3336 100.29C64.1732 100.199 64.0356 100.065 63.9413 99.8891C63.9391 99.8883 63.9391 99.8883 63.9398 99.8876C63.92 99.8534 63.9033 99.8169 63.8881 99.7789L62.1944 95.556L61.4084 93.6001C61.3932 93.5621 61.3803 93.5241 61.3696 93.4853C61.3696 93.4846 61.3681 93.4838 61.3696 93.4823C61.321 93.3036 61.3233 93.1181 61.3696 92.9448L61.3848 92.9479L67.8692 94.4964L68.1056 94.51C68.0448 94.7244 68.0547 94.9578 68.1421 95.1744L68.9282 97.1304L68.9396 97.1578L70.6219 101.353C70.7123 101.577 70.8682 101.749 71.0559 101.858L71.0772 101.908Z" fill="url(#paint6_linear_1573_38967)"/>
<path d="M64.334 100.291C64.3431 100.297 64.3514 100.302 64.3613 100.306L64.3393 100.3H64.3385L64.334 100.291Z" fill="#2F80ED"/>
<path d="M61.3764 92.9253L61.3863 92.9481L61.3711 92.945C61.3726 92.939 61.3741 92.9314 61.3764 92.9253Z" fill="#2F80ED"/>
<path d="M70.7071 91.9868L70.7078 91.9891L70.2578 92.3851V92.3844L70.7071 91.9868Z" fill="#2F80ED"/>
<path d="M46.3083 63.8198L39.6992 61.4549C39.6992 61.4549 41.8049 52.8002 48.9066 46.5256C52.2894 43.5351 56.0447 41.8771 59.3644 42.0071C59.7673 42.0246 60.1641 42.0656 60.5541 42.1356L60.564 42.1379L61.4215 42.3424L67.4292 43.7669C66.371 43.5602 65.2498 43.5571 64.0996 43.7434C63.6306 43.8194 63.1593 43.9273 62.6811 44.0649C60.3283 44.7347 57.9072 46.1387 55.6456 48.135C48.544 54.408 46.4375 63.0596 46.4375 63.0596L46.5637 63.106" fill="url(#paint7_linear_1573_38967)"/>
<path d="M71.6905 79.2317C68.668 71.7135 78.5253 61.2184 73.9079 49.7282C72.5031 46.2199 70.1944 44.3286 67.4912 43.782L67.4304 43.7668C66.3745 43.5615 65.251 43.5539 64.0962 43.744H64.0734C63.6105 43.82 63.1468 43.9264 62.6838 44.0633C60.3295 44.7315 57.9068 46.1363 55.6438 48.1341C48.5429 54.4071 46.4395 63.0565 46.4395 63.0565L46.5611 63.1021L52.0823 65.0839C52.6061 65.2663 53.1914 65.0079 53.3883 64.4917C54.0641 62.7752 55.7198 59.1073 58.2557 56.8595C58.7035 56.4649 59.152 56.1304 59.5998 55.8568C60.6785 55.1962 61.7412 54.8617 62.7135 54.8617C63.5109 54.8617 64.2551 55.0897 64.8777 55.5299C65.0297 55.6439 65.1818 55.7655 65.3255 55.9092C65.3939 55.9776 65.4623 56.0461 65.5307 56.1297C65.6675 56.2817 65.7892 56.449 65.9024 56.623C66.0241 56.8055 66.1305 57.0024 66.2293 57.2076C66.2749 57.3064 66.3205 57.4129 66.3662 57.5269C66.4042 57.6181 66.4422 57.7169 66.4802 57.8158C66.503 57.8918 66.5258 57.9602 66.5486 58.0362C66.579 58.1122 66.6018 58.1959 66.6246 58.2719C66.6474 58.3783 66.6778 58.4847 66.7006 58.5912C66.731 58.7128 66.7614 58.842 66.7843 58.9705C66.7995 59.0541 66.8147 59.1529 66.8299 59.2366C66.8375 59.3126 66.8527 59.3886 66.8603 59.4646C66.8679 59.5026 66.8679 59.533 66.8755 59.571C66.8831 59.6623 66.8983 59.7459 66.8983 59.8371C66.9135 59.9359 66.9135 60.0347 66.9211 60.1336C67.2632 66.4598 61.6659 74.555 63.3748 82.7035V82.7339C63.4128 82.9239 63.4584 83.1132 63.5117 83.3032C63.5573 83.5009 63.6181 83.6978 63.6789 83.903C63.7929 84.2976 63.9374 84.6929 64.0962 85.095L64.8937 87.0768C65.0001 87.3429 65.1977 87.5322 65.4326 87.6386L65.4402 87.6462C65.7899 87.7906 66.2149 87.7526 66.5342 87.4637L72.2294 82.4366C72.5639 82.1402 72.6696 81.6772 72.5107 81.2751L71.6905 79.2317ZM78.2364 95.5521L75.7529 89.3703C75.5933 88.9605 75.2139 88.7249 74.8186 88.7173C74.5678 88.7173 74.3177 88.7933 74.1124 88.9757L70.7106 91.983V91.9906L70.2553 92.3852L69.2602 93.2662L68.4171 94.018C68.2651 94.1473 68.1587 94.3221 68.1055 94.5114C68.0979 94.5342 68.0978 94.5494 68.0902 94.5722C68.0446 94.7699 68.0598 94.982 68.1435 95.172L68.9257 97.131L68.9409 97.1538L70.6194 101.353C70.7106 101.574 70.8702 101.748 71.0595 101.854C71.4237 102.074 71.9102 102.052 72.2667 101.74L77.962 96.7053C78.2896 96.4179 78.4037 95.9542 78.2364 95.5521Z" fill="url(#paint8_linear_1573_38967)"/>
<path d="M74.8186 88.7174C74.5677 88.7174 74.3176 88.7934 74.1123 88.9759L70.7105 91.9832V91.9908L70.2552 92.3853L69.2601 93.2664L68.417 94.0182C68.2612 94.1558 68.1122 94.4522 68.0901 94.5724C68.0825 94.5952 68.0978 94.5495 68.0901 94.5724L61.3846 92.9471L61.377 92.9243C61.4302 92.7418 61.5366 92.5754 61.681 92.4385L61.8635 92.2789L63.9821 90.4103L67.3763 87.4031C67.6044 87.2054 67.8849 87.1218 68.151 87.1522L68.1434 87.1294H68.151L74.8186 88.7174Z" fill="#A1BEF2"/>
<path d="M39.6992 61.4536L46.3083 63.8201L52.4734 65.1785L46.4375 63.0614L39.6992 61.4536Z" fill="url(#paint9_linear_1573_38967)"/>
<defs>
<linearGradient id="paint0_linear_1573_38967" x1="140.285" y1="37.1169" x2="47.7017" y2="137.668" gradientUnits="userSpaceOnUse">
<stop stop-color="#F0F8FF"/>
<stop offset="1" stop-color="#EDEEFF"/>
</linearGradient>
<linearGradient id="paint1_linear_1573_38967" x1="84.0204" y1="109.068" x2="106.935" y2="174.476" gradientUnits="userSpaceOnUse">
<stop offset="0.3441" stop-color="#3365E7"/>
<stop offset="1" stop-color="#E6E7FF"/>
</linearGradient>
<linearGradient id="paint2_linear_1573_38967" x1="175.497" y1="69.5372" x2="82.9132" y2="170.089" gradientUnits="userSpaceOnUse">
<stop stop-color="#F0F8FF"/>
<stop offset="1" stop-color="#EDEEFF"/>
</linearGradient>
<linearGradient id="paint3_linear_1573_38967" x1="147.436" y1="32.8268" x2="97.1425" y2="154.038" gradientUnits="userSpaceOnUse">
<stop stop-color="#B5E5DE"/>
<stop offset="1" stop-color="#B2B6F2"/>
</linearGradient>
<linearGradient id="paint4_linear_1573_38967" x1="61.1967" y1="87.5476" x2="61.9592" y2="54.8438" gradientUnits="userSpaceOnUse">
<stop stop-color="#8FAFFF"/>
<stop offset="0.5478" stop-color="#4982EB"/>
<stop offset="1" stop-color="#0D5ADA"/>
</linearGradient>
<linearGradient id="paint5_linear_1573_38967" x1="63.4044" y1="83.2864" x2="63.4912" y2="82.6565" gradientUnits="userSpaceOnUse">
<stop stop-color="#8FAFFF"/>
<stop offset="0.5478" stop-color="#4982EB"/>
<stop offset="1" stop-color="#0D5ADA"/>
</linearGradient>
<linearGradient id="paint6_linear_1573_38967" x1="61.8652" y1="97.9206" x2="70.5079" y2="96.9332" gradientUnits="userSpaceOnUse">
<stop stop-color="#8FAFFF"/>
<stop offset="0.5478" stop-color="#4982EB"/>
<stop offset="1" stop-color="#0D5ADA"/>
</linearGradient>
<linearGradient id="paint7_linear_1573_38967" x1="39.6994" y1="52.9097" x2="67.4293" y2="52.9097" gradientUnits="userSpaceOnUse">
<stop stop-color="#8FAFFF"/>
<stop offset="0.5478" stop-color="#4982EB"/>
<stop offset="1" stop-color="#0D5ADA"/>
</linearGradient>
<linearGradient id="paint8_linear_1573_38967" x1="46.44" y1="72.8042" x2="78.3131" y2="72.8042" gradientUnits="userSpaceOnUse">
<stop stop-color="#85AEFC"/>
<stop offset="0.2094" stop-color="#85AEFC"/>
<stop offset="1" stop-color="white"/>
</linearGradient>
<linearGradient id="paint9_linear_1573_38967" x1="39.9912" y1="64.0098" x2="52.1805" y2="62.6173" gradientUnits="userSpaceOnUse">
<stop stop-color="#85AEFC"/>
<stop offset="0.2094" stop-color="#85AEFC"/>
<stop offset="1" stop-color="white"/>
</linearGradient>
</defs>
</svg>
