<svg width="201" height="190" viewBox="0 0 201 190" fill="none" xmlns="http://www.w3.org/2000/svg">
<path d="M179.875 73.4895C179.875 73.4895 141.746 130.818 137.764 132.633C137.66 132.68 137.453 132.716 137.172 132.745C137.172 132.745 137.172 132.745 137.158 132.74C136.484 132.769 135.339 132.736 133.795 132.608C129.973 132.321 123.663 131.532 115.829 130.425C80.4311 125.438 13.7017 113.723 2.125 108.905C2.125 108.905 49.3003 105.981 72.3076 80.9692C95.3261 55.9756 97.2788 47.25 97.2788 47.25C97.2788 47.25 113.434 68.3357 179.875 73.4895Z" fill="url(#paint0_linear_1573_38953)"/>
<path d="M135.309 132.397C135.111 132.404 134.589 132.476 133.795 132.61C129.973 132.323 123.663 131.535 115.829 130.428C80.4311 125.437 13.7017 113.723 2.125 108.905C32.2974 114.2 89.216 100.11 89.216 100.11C101.486 116.887 122.621 127.311 135.309 132.397Z" fill="url(#paint1_linear_1573_38953)"/>
<path d="M143.449 145.593L132.659 139.486L122.729 115.095C122.606 114.781 121.597 112.107 122.632 109.853C123.149 108.735 124.589 107.992 125.334 107.485C126.37 106.778 128.405 105.1 129.931 103.965C129.571 104.324 129.273 104.743 129.054 105.223C128.011 107.468 129.019 110.15 129.142 110.465L143.449 145.593Z" fill="url(#paint2_linear_1573_38953)"/>
<path d="M185.465 163.881L179.056 168.507L152.314 177.5L116.805 151.52L116.662 151.342C115.84 150.333 114.97 147.747 116.984 144.568C117.806 143.263 122.356 139.859 124.846 138.412C124.287 138.792 123.797 139.301 123.404 139.918C121.391 143.121 122.261 145.696 123.083 146.715L123.226 146.881L158.734 172.862L185.465 163.881Z" fill="url(#paint3_linear_1573_38953)"/>
<path d="M183.392 140.107C179.056 129.383 175.672 119.744 170.48 119.749C169.181 119.75 167.419 120.248 165.882 122.395C164.703 120.901 163.059 119.643 160.867 119.643C160.414 119.643 159.962 119.691 159.497 119.809C157.996 120.165 156.852 121.031 156.197 122.324C156.102 122.513 156.018 122.692 155.959 122.881C154.422 121.03 152.612 119.536 150.789 119.536C150.373 119.536 149.967 119.607 149.574 119.749C148.61 120.106 147.478 120.627 146.68 121.564L138.627 105.3C138.032 104.256 136.364 102.5 133.791 102.5C133.124 102.5 132.445 102.607 131.742 102.844C131.611 102.891 131.481 102.939 131.361 102.998H131.35C130.801 103.235 130.325 103.568 129.932 103.959C129.574 104.327 129.276 104.742 129.051 105.217C128.015 107.471 129.015 110.152 129.146 110.46L143.453 145.587L132.661 139.489L131.243 138.694C130.898 138.48 129.349 137.591 127.563 137.591C127.027 137.591 126.49 137.674 126.014 137.84C125.954 137.852 125.906 137.864 125.858 137.887C125.787 137.911 125.716 137.947 125.644 137.982C125.489 138.053 125.323 138.136 125.133 138.243C125.025 138.29 124.942 138.35 124.847 138.408C124.288 138.788 123.799 139.298 123.406 139.915C121.392 143.118 122.262 145.693 123.084 146.712L123.227 146.878L158.734 172.861L185.465 163.881V163.857L185.667 162.884C185.751 162.409 187.895 151.234 183.392 140.107Z" fill="url(#paint4_linear_1573_38953)"/>
<path d="M182.879 161.651L159.246 169.587L125.321 144.781C125.166 144.472 124.725 143.334 125.893 141.484C126.309 140.831 126.846 140.523 127.561 140.523C128.633 140.523 129.68 141.187 129.693 141.187L146.381 150.619L148.073 149.136L131.873 109.357C131.682 108.882 131.288 107.388 131.73 106.438C131.909 106.047 132.218 105.785 132.707 105.62C133.089 105.489 133.458 105.43 133.791 105.43C135.268 105.43 136.031 106.7 136.066 106.747L148.562 131.992L150.718 130.972C149.492 128.339 148.169 125.136 148.717 123.806C148.919 123.31 149.877 122.362 151.051 122.426C152.704 122.515 155.362 126.602 157.27 130.497L159.438 129.513C158.985 128.433 157.985 125.301 158.831 123.653C159.092 123.13 159.521 122.81 160.188 122.656C160.415 122.596 160.641 122.572 160.868 122.572C163.893 122.572 165.501 128.041 165.514 128.101L167.849 127.78V126.026C167.849 125.042 168.179 124.048 168.902 123.377C169.394 122.919 169.918 122.691 170.469 122.691C170.72 122.691 170.971 122.736 171.213 122.81C172.183 123.106 172.941 123.856 173.385 124.764C174.549 127.137 177.384 133.089 180.665 141.21C184.225 150.037 183.249 159.147 182.879 161.651Z" fill="url(#paint5_linear_1573_38953)"/>
<defs>
<linearGradient id="paint0_linear_1573_38953" x1="90.9999" y1="131.167" x2="90.9999" y2="31.5149" gradientUnits="userSpaceOnUse">
<stop stop-color="white"/>
<stop offset="1" stop-color="#EDEEFF"/>
</linearGradient>
<linearGradient id="paint1_linear_1573_38953" x1="68.3166" y1="125.193" x2="69.9711" y2="106.257" gradientUnits="userSpaceOnUse">
<stop stop-color="#C2CCED"/>
<stop offset="0.0512" stop-color="#C4CEED"/>
<stop offset="1" stop-color="#E4EBF0"/>
</linearGradient>
<linearGradient id="paint2_linear_1573_38953" x1="131.954" y1="145.467" x2="132.568" y2="103.929" gradientUnits="userSpaceOnUse">
<stop stop-color="#8FAFFF"/>
<stop offset="0.5478" stop-color="#4982EB"/>
<stop offset="1" stop-color="#0D5ADA"/>
</linearGradient>
<linearGradient id="paint3_linear_1573_38953" x1="147.806" y1="177.382" x2="147.971" y2="138.37" gradientUnits="userSpaceOnUse">
<stop stop-color="#8FAFFF"/>
<stop offset="0.5478" stop-color="#4982EB"/>
<stop offset="1" stop-color="#0D5ADA"/>
</linearGradient>
<linearGradient id="paint4_linear_1573_38953" x1="122.173" y1="137.682" x2="186.251" y2="137.682" gradientUnits="userSpaceOnUse">
<stop stop-color="#A6C3FC"/>
<stop offset="1" stop-color="#C0D6FF"/>
</linearGradient>
<linearGradient id="paint5_linear_1573_38953" x1="157.263" y1="105.906" x2="151.085" y2="196.469" gradientUnits="userSpaceOnUse">
<stop offset="0.00045606" stop-color="white"/>
<stop offset="0.2594" stop-color="#F7F8FF"/>
<stop offset="0.6551" stop-color="#E2E6FF"/>
<stop offset="1" stop-color="#CAD2FF"/>
</linearGradient>
</defs>
</svg>
