<svg width="335" height="208" viewBox="0 0 335 208" fill="none" xmlns="http://www.w3.org/2000/svg">
<rect width="335" height="208" rx="16" fill="#0046CF"/>
<path d="M33.0605 25.6914H31.1094V37.5566H33.0605V32.3008H35.2754V30.6836H33.0605V25.6914ZM20.5449 29.0137H29.9668V27.4492H26.2402V25.6738H24.2891V27.4492H20.5449V29.0137ZM21.3535 32.7051C21.3535 34.5244 22.9443 35.7109 25.2559 35.7109C27.5498 35.7109 29.1318 34.5244 29.1406 32.7051C29.1318 30.877 27.5498 29.6641 25.2559 29.6641C22.9443 29.6641 21.3535 30.877 21.3535 32.7051ZM22.8828 41.248H33.6934V39.666H24.834V36.625H22.8828V41.248ZM23.252 32.7051C23.2432 31.7383 24.0518 31.1758 25.2559 31.1758C26.46 31.1758 27.2773 31.7383 27.2773 32.7051C27.2773 33.6631 26.46 34.208 25.2559 34.1992C24.0518 34.208 23.2432 33.6631 23.252 32.7051ZM53.3021 25.6914H51.3509V29.9805H48.1517V26.7285H46.2181V29.2949H42.6673V26.7285H40.7162V34.832H48.1517V31.5625H51.3509V37.416H53.3021V25.6914ZM42.6673 33.2852V30.8066H46.2181V33.2852H42.6673ZM42.8255 41.248H53.6537V39.666H44.8119V36.2559H42.8255V41.248ZM60.5225 26.7812C58.0264 26.7725 56.1543 28.3633 56.1631 30.6133C56.1543 32.8721 58.0264 34.4541 60.5225 34.4629C63.045 34.4541 64.8819 32.8721 64.8995 30.6133C64.8819 28.3633 63.045 26.7725 60.5225 26.7812ZM55.4424 36.6602L55.6885 38.2598C58.4922 38.2598 62.3067 38.2334 65.8662 37.5566L65.708 36.1328C62.2715 36.625 58.3077 36.6602 55.4424 36.6602ZM58.0967 30.6133C58.0879 29.2949 59.1338 28.4688 60.5225 28.4688C61.9375 28.4688 62.9746 29.2949 62.9834 30.6133C62.9746 31.9404 61.9287 32.7578 60.5225 32.7578C59.1338 32.7578 58.0879 31.9404 58.0967 30.6133ZM66.6573 41.582H68.6084V25.6738H66.6573V41.582ZM88.1117 25.6738H86.143V41.5645H88.1117V25.6738ZM74.9457 37.1875L75.9652 38.752C81.5287 36.1064 83.3656 32.0898 83.3656 27.3613H75.7543V28.9082H81.3793C81.0277 32.5205 79.1117 35.21 74.9457 37.1875ZM104.719 34.2695H98.4259V32.9512H103.242V31.4219H93.9786V30.1562H102.926V26.0254H91.9923V27.5547H100.975V28.7324H92.045V32.9512H96.4923V34.2695H90.1993V35.8516H104.719V34.2695ZM91.8165 38.4004H101.045V41.459H103.014V36.8535H91.8165V38.4004ZM112.818 26.5703C109.487 26.5703 106.921 28.3545 106.929 31.0527C106.921 33.7861 109.487 35.5703 112.818 35.5703C116.167 35.5703 118.751 33.7861 118.742 31.0527C118.751 28.3545 116.167 26.5703 112.818 26.5703ZM105.594 39.5605H120.113V37.9609H105.594V39.5605ZM108.81 31.0527C108.802 29.2949 110.507 28.1348 112.818 28.1523C115.138 28.1348 116.826 29.2949 116.826 31.0527C116.826 32.8545 115.138 33.9619 112.818 33.9707C110.507 33.9619 108.802 32.8545 108.81 31.0527ZM135.49 38.1016H129.162V35.5176H134.136V33.918H124.644V31.8613H133.767V26.7637H122.658V28.3457H131.833V30.3145H122.693V35.5176H127.228V38.1016H120.97V39.7188H135.49V38.1016ZM139.441 38.752H137.208L136.294 43.6738H137.964L139.441 38.752ZM159.348 33.8652H153.073V32.1426H157.731V30.5605H148.573V28.0469H157.59V26.4648H146.622V32.1426H151.104V33.8652H144.846V35.4297H159.348V33.8652ZM146.639 41.248H157.836V39.666H148.555V36.625H146.639V41.248ZM173.459 25.6738H171.526V41.582H173.459V25.6738ZM161.084 28.6445H166.586V31.4746H161.102V37.8203H162.49C165.347 37.8291 167.72 37.7236 170.418 37.2578L170.242 35.6582C167.764 36.0713 165.611 36.2031 163.106 36.2207V33.0215H168.572V27.0625H161.084V28.6445ZM189.187 25.6914H187.324V34.8672H189.187V25.6914ZM176.215 33.8125H182.473V31.0703H184.178V34.6914H186.023V25.9902H184.178V29.4531H182.473V26.834H176.215V33.8125ZM178.06 32.3535V28.3457H180.662V32.3535H178.06ZM178.482 41.3711H189.187V35.5352H178.482V41.3711ZM180.398 39.7891V37.0645H187.254V39.7891H180.398ZM204.3 25.6738H202.367V31.3691H199.132V26.9043H197.216V30.8594H193.542V26.9043H191.574V37.7324H199.132V32.9688H202.367V41.582H204.3V25.6738ZM193.542 36.168V32.3887H197.216V36.168H193.542ZM209.622 27.2734H207.232L207.443 36.2559H209.429L209.622 27.2734ZM207.073 38.7695C207.065 39.5254 207.689 40.1406 208.445 40.1406C209.174 40.1406 209.798 39.5254 209.798 38.7695C209.798 38.0312 209.174 37.4248 208.445 37.416C207.689 37.4248 207.065 38.0312 207.073 38.7695ZM33.7988 51.6738H31.8301V67.5645H33.7988V51.6738ZM20.6328 63.1875L21.6523 64.752C27.2158 62.1064 29.0527 58.0898 29.0527 53.3613H21.4414V54.9082H27.0664C26.7148 58.5205 24.7988 61.21 20.6328 63.1875ZM49.2106 61.834H38.3825V63.3984H47.2595V67.582H49.2106V61.834ZM36.1149 56.4023C36.1149 58.6875 37.9167 60.3047 40.3161 60.3047C42.3727 60.3047 44.0075 59.0654 44.3942 57.2285H47.2595V61.0605H49.2106V51.6738H47.2595V55.6113H44.403C44.0163 53.7832 42.3815 52.5352 40.3161 52.5527C37.9167 52.5352 36.1149 54.1523 36.1149 56.4023ZM37.9782 56.4023C37.9782 55.0752 38.9889 54.1963 40.3161 54.2051C41.6169 54.1963 42.61 55.0752 42.6188 56.4023C42.61 57.7822 41.6169 58.6436 40.3161 58.6523C38.9889 58.6436 37.9782 57.7822 37.9782 56.4023ZM63.7259 51.6738H61.7923V67.5645H63.7259V59.6191H66.1693V58.002H63.7259V51.6738ZM51.1927 55.6816H60.5619V54.1172H56.9056V51.9023H54.9545V54.1172H51.1927V55.6816ZM51.931 60.4629C51.9134 62.6514 53.6185 64.1895 55.9388 64.1895C58.224 64.1895 59.9203 62.6514 59.9291 60.4629C59.9203 58.2656 58.224 56.71 55.9388 56.7188C53.6185 56.71 51.9134 58.2656 51.931 60.4629ZM53.7943 60.4629C53.7855 59.1709 54.6908 58.3184 55.9388 58.3184C57.1605 58.3184 58.0482 59.1709 58.0658 60.4629C58.0482 61.7549 57.1605 62.5811 55.9388 62.5723C54.6908 62.5811 53.7855 61.7549 53.7943 60.4629ZM72.6514 56.1914V54.8555H76.1319V53.2383H67.167V54.8555H70.6651V56.1914C70.6563 58.8896 69.0918 61.8516 66.587 63.0117L67.712 64.541C69.5664 63.6621 70.9639 61.834 71.6934 59.6543C72.4229 61.6758 73.794 63.3369 75.6748 64.1543L76.7471 62.6074C74.1807 61.5352 72.6514 58.793 72.6514 56.1914ZM77.9073 67.5645H79.876V51.6738H77.9073V67.5645ZM98.6586 51.6738H96.7074V59.6543H98.6586V56.4902H100.873V54.873H98.6586V51.6738ZM86.6703 58.9863H94.1937V52.4824H86.6703V58.9863ZM88.2699 61.8516H96.7074V63.082H88.2875V67.3711H99.1508V65.8242H90.2211V64.5059H98.6586V60.3398H88.2699V61.8516ZM88.5863 57.4395V54.0293H92.2777V57.4395H88.5863ZM114.475 53.1328H103.014V54.6973H112.506C112.497 56.6045 112.497 58.8633 111.873 61.957L113.842 62.168C114.457 58.8457 114.457 56.6396 114.475 54.6621V53.1328ZM101.502 65.5078H115.986V63.9082H108.779V58.3887H106.846V63.9082H101.502V65.5078ZM129.847 52.8516H121.744V54.4688H127.922C127.905 55.4443 127.843 56.666 127.527 58.3008L129.46 58.4766C129.83 56.4639 129.83 54.8818 129.847 53.8008V52.8516ZM120.794 59.7422L120.97 61.3066C123.756 61.2979 127.509 61.2363 130.814 60.6387L130.708 59.2324C129.17 59.4521 127.483 59.5752 125.839 59.6455V56.4727H123.906V59.707C122.789 59.7246 121.735 59.7334 120.794 59.7422ZM123.167 67.248H134.154V65.666H125.136V62.5195H123.167V67.248ZM131.64 63.5742H133.644V58.2656H135.701V56.6309H133.644V51.6738H131.64V63.5742ZM149.583 51.6738H147.65V67.582H149.583V51.6738ZM137.208 54.6445H142.71V57.4746H137.226V63.8203H138.614C141.471 63.8291 143.844 63.7236 146.542 63.2578L146.366 61.6582C143.888 62.0713 141.734 62.2031 139.23 62.2207V59.0215H144.696V53.0625H137.208V54.6445ZM164.169 51.6738H162.235V67.5645H164.169V59.6191H166.612V58.002H164.169V51.6738ZM151.636 55.6816H161.005V54.1172H157.348V51.9023H155.397V54.1172H151.636V55.6816ZM152.374 60.4629C152.356 62.6514 154.061 64.1895 156.382 64.1895C158.667 64.1895 160.363 62.6514 160.372 60.4629C160.363 58.2656 158.667 56.71 156.382 56.7188C154.061 56.71 152.356 58.2656 152.374 60.4629ZM154.237 60.4629C154.228 59.1709 155.134 58.3184 156.382 58.3184C157.603 58.3184 158.491 59.1709 158.509 60.4629C158.491 61.7549 157.603 62.5811 156.382 62.5723C155.134 62.5811 154.228 61.7549 154.237 60.4629ZM172.057 55.8398V53.0801H170.176V55.9277C170.167 58.6348 169.148 61.4385 166.836 62.8359L168.049 64.2949C169.543 63.3809 170.563 61.7637 171.134 59.8564C171.662 61.5879 172.593 63.0645 174.026 63.9258L175.098 62.4316C172.945 61.0781 172.066 58.4062 172.057 55.8398ZM173.393 58.7578H175.661V66.791H177.506V51.9551H175.661V57.1406H173.393V58.7578ZM178.93 67.5645H180.811V51.6738H178.93V67.5645ZM196.996 64.0312H193.656V59.9707C194.887 59.2412 195.634 58.125 195.625 56.7363C195.634 54.2051 193.138 52.5352 189.701 52.5352C186.282 52.5352 183.804 54.2051 183.813 56.7363C183.804 58.1426 184.569 59.2852 185.834 60.0146V64.0312H182.477V65.6309H196.996V64.0312ZM185.729 56.7363C185.72 55.084 187.328 54.0732 189.701 54.082C192.066 54.0732 193.709 55.084 193.709 56.7363C193.709 58.3623 192.066 59.3994 189.701 59.3906C187.328 59.3994 185.72 58.3623 185.729 56.7363ZM187.768 64.0312V60.7266C188.365 60.8496 189.016 60.9199 189.701 60.9199C190.404 60.9199 191.064 60.8496 191.67 60.7178V64.0312H187.768ZM199.787 66.1406C200.516 66.1406 201.14 65.5254 201.14 64.7695C201.14 64.0312 200.516 63.4248 199.787 63.416C199.031 63.4248 198.407 64.0312 198.416 64.7695C198.407 65.5254 199.031 66.1406 199.787 66.1406Z" fill="#FCFCFD"/>
<path d="M30.1309 83.7422H29.166V95.0283H30.1309V83.7422ZM20.4316 86.5098H26.0557V85.6973H23.7451V84.0469H22.7422V85.6973H20.4316V86.5098ZM20.8506 89.8867C20.8442 91.4229 21.8472 92.4893 23.2246 92.4893C24.2656 92.4893 25.0845 91.8926 25.4272 90.9531H27.0713V94.4697H28.0107V83.9961H27.0713V87.5762H25.4844V88.4014H27.0713V90.1533H25.5986C25.605 90.0645 25.6113 89.9756 25.6113 89.8867C25.6113 88.3442 24.6147 87.2842 23.2246 87.2842C21.8472 87.2842 20.8442 88.3442 20.8506 89.8867ZM21.7266 89.8867C21.7266 88.8584 22.355 88.1475 23.2246 88.1348C24.1006 88.1475 24.729 88.8584 24.7354 89.8867C24.729 90.9023 24.1006 91.6323 23.2246 91.626C22.355 91.6323 21.7266 90.9023 21.7266 89.8867ZM36.4501 84.5674H32.0702V90.001H32.7811C34.6156 89.9946 35.682 89.9438 37.0087 89.6836L36.9071 88.8584C35.6947 89.0933 34.6664 89.1567 33.0223 89.1631V87.6016H36.3231V86.8145H33.0223V85.4053H36.4501V84.5674ZM33.5429 91.9941H40.1698V95.0283H41.1473V91.1816H33.5429V91.9941ZM37.6815 90.5215H38.6083V87.5127H40.1952V90.5977H41.1473V83.7549H40.1952V86.7002H38.6083V83.9707H37.6815V90.5215ZM51.5514 84.8213H46.3717V92.2607H47.235C49.3996 92.2607 50.777 92.1846 52.4401 91.8672L52.3131 91.042C50.7516 91.3467 49.4122 91.4165 47.3746 91.4102V85.6592H51.5514V84.8213ZM50.8786 88.6807H54.1666V95.0537H55.1696V83.7422H54.1666V87.8555H50.8786V88.6807ZM67.2398 92.7559H62.5298V90.3184H65.9702V84.542H64.9927V86.5859H59.1275V84.542H58.1245V90.3184H61.5523V92.7559H56.9058V93.5811H67.2398V92.7559ZM59.1275 89.5059V87.3984H64.9927V89.5059H59.1275ZM77.3422 83.7422H76.3393V95.0283H77.3422V83.7422ZM68.1508 92.0957L68.6967 92.9082C72.4799 91.0928 73.9906 88.2173 74.0033 84.9736H68.6713V85.7861H72.9877C72.7655 88.4839 71.204 90.6484 68.1508 92.0957Z" fill="#FCFCFD"/>
<path d="M85.193 85.4732C84.933 85.7332 84.933 86.1532 85.193 86.4132L87.7797 88.9999L85.193 91.5865C84.933 91.8465 84.933 92.2665 85.193 92.5265C85.453 92.7865 85.873 92.7865 86.133 92.5265L89.193 89.4665C89.453 89.2065 89.453 88.7865 89.193 88.5265L86.133 85.4665C85.8797 85.2132 85.453 85.2132 85.193 85.4732Z" fill="#F2F4F7"/>
<g clip-path="url(#clip0_1302_23203)">
<rect x="203" y="76" width="112" height="112" rx="56" fill="#669AFF"/>
<path d="M276.536 118.121C282.975 103.058 267.786 101.82 265.556 108.123C261.11 116.062 263.129 119.584 266.312 120.714C265.592 123.759 263.664 130.634 265.741 133.137C268.337 136.266 270.052 137.769 271.647 133.758C272.922 130.55 273.889 123.865 274.213 120.923C275.21 121.228 277.07 121.094 276.536 118.121Z" fill="#FFFAE2"/>
<path d="M270.265 121.163C269.044 121.268 267.6 121.171 266.312 120.714M265.556 108.123C267.786 101.82 282.975 103.058 276.536 118.121M265.556 108.123C261.11 116.062 263.129 119.584 266.312 120.714M265.556 108.123C265.556 108.123 274.308 113.244 269.72 110.234C265.131 107.223 274.511 112.033 274.511 112.033L273.66 117.117C274.794 116.481 276.037 117.085 276.536 118.121M276.536 118.121C277.07 121.094 275.21 121.228 274.213 120.923C273.889 123.865 272.922 130.55 271.647 133.758C270.052 137.769 268.337 136.266 265.741 133.137C263.664 130.634 265.592 123.759 266.312 120.714" stroke="#232540" stroke-width="0.746308" stroke-linecap="round" stroke-linejoin="round"/>
<path d="M276.615 118.24C283.238 104.199 268.496 100.655 265.392 108.124L274.429 111.957L273.506 117.446C275.389 116.432 276.541 117.833 276.615 118.24Z" fill="#232540"/>
<path d="M285.975 188.242L282.028 170.991H262.692L267.665 188.242H285.975Z" fill="#232540"/>
<path d="M250.946 188.242L254.353 169.729H269.404V178.437L266.048 185.086L262.75 188.242H250.946Z" fill="#232540"/>
<path d="M266.469 182.562L265.315 176.461" stroke="#0046CF" stroke-width="0.746308" stroke-linecap="round" stroke-linejoin="round"/>
<path d="M232.108 131.414C230.646 129.642 227.436 125.935 226.584 123.83C226.584 123.83 224.004 118.931 224.509 118.329C225.004 117.739 226.519 120.839 227.601 122.202C226.244 120.482 224.782 116.076 225.325 115.883C226.248 115.554 228.613 120.305 229.694 121.971C228.599 120.246 225.928 115.306 226.764 114.235C227.138 113.756 230.12 118.654 231.164 120.906C230.54 119.516 229.522 116.072 229.482 115.37C229.35 113.076 232.96 119.363 233.951 121.942L237.273 130.688L232.108 131.414Z" fill="#FFFAE2" stroke="#232540" stroke-width="0.746308" stroke-linecap="round" stroke-linejoin="round"/>
<path d="M236.479 123.861C236.704 125.357 237.865 128.291 238.619 129.587L235.591 128.135L232.564 126.683C231.551 125.68 233.281 124.199 234.002 123.466C234.313 120.22 234.189 118.65 235.011 118.611C236.265 118.552 236.154 121.704 236.479 123.861Z" fill="#FFFAE2"/>
<path d="M238.614 129.586C237.857 128.288 236.694 125.349 236.468 123.85C236.143 121.689 236.253 118.531 234.997 118.59C234.172 118.629 234.297 120.202 233.985 123.454C233.034 123.398 232.399 125.536 233.414 126.541" stroke="#232540" stroke-width="0.746308" stroke-linecap="round" stroke-linejoin="round"/>
<path d="M246.368 141.811C252.35 124.688 262.547 123.175 266.897 124.558H272.98C285.019 126.115 299.972 147.648 298.451 154.912C297.235 160.724 287.312 162.669 283.004 162.928L284.005 172.684L249.283 174.5L252.324 150.372C251.606 152.404 248.928 156.158 243.961 154.912C238.993 153.667 232.546 139.097 230.181 131.53L237.371 124.558L246.368 141.811Z" fill="#FFD621"/>
<path d="M275.233 122.959C275.233 122.959 274.115 127.678 273.431 128.554L265.13 127.773L264.638 122.456L275.233 122.959Z" fill="#FFD621"/>
<path d="M273.212 155.078C273.212 155.078 278.48 154.461 282.292 152.732M282.292 152.732C283.948 151.981 285.135 150.968 285.135 150.061C285.135 147.067 281.187 143.264 281.187 143.264L282.292 152.732Z" stroke="#232540" stroke-width="0.746308" stroke-linecap="round" stroke-linejoin="round"/>
<path d="M252.763 148.847C252.763 148.847 255.763 137.032 259.158 134.686" stroke="#232540" stroke-width="0.746308" stroke-linecap="round" stroke-linejoin="round"/>
<path d="M267.445 114.029C261.858 112.841 260.903 112.884 267.055 115.886L267.445 114.029Z" fill="#FFFAE2"/>
<path d="M266.748 113.609C262.304 113.499 261.257 113.249 266.028 115.631" stroke="#232540" stroke-width="0.746308" stroke-linecap="round" stroke-linejoin="round"/>
<path d="M266.023 115.691L265.446 117.311C265.87 117.856 266.996 118.612 268.109 117.27" stroke="#232540" stroke-width="0.746308" stroke-linecap="round" stroke-linejoin="round"/>
<ellipse rx="0.423549" ry="1.00798" transform="matrix(-0.911063 -0.415049 -0.396713 0.916737 265.691 112.126)" fill="#232540"/>
<ellipse rx="0.423549" ry="1.00798" transform="matrix(-0.911063 -0.415049 -0.396714 0.916737 269.259 113.549)" fill="#232540"/>
</g>
<defs>
<clipPath id="clip0_1302_23203">
<rect x="203" y="76" width="112" height="112" rx="56" fill="white"/>
</clipPath>
</defs>
</svg>
