<svg width="375" height="710" viewBox="0 0 375 710" fill="none" xmlns="http://www.w3.org/2000/svg">
<path d="M36.4766 24.5156C36.4766 19.0898 33.2188 15.7969 28.8359 15.7969C24.418 15.7969 21.1719 19.0898 21.1719 24.5156C21.1719 29.9297 24.418 33.2344 28.8359 33.2344C33.2188 33.2344 36.4766 29.9414 36.4766 24.5156ZM23.7266 24.5156C23.7383 20.3906 25.9062 18.1523 28.8359 18.1641C31.7422 18.1523 33.9102 20.3906 33.9219 24.5156C33.9102 28.6406 31.7422 30.8789 28.8359 30.8672C25.9062 30.8789 23.7383 28.6406 23.7266 24.5156ZM53.885 24.5156C53.885 19.0898 50.6272 15.7969 46.2444 15.7969C41.8264 15.7969 38.5803 19.0898 38.5803 24.5156C38.5803 29.9297 41.8264 33.2344 46.2444 33.2344C50.6272 33.2344 53.885 29.9414 53.885 24.5156ZM41.135 24.5156C41.1467 20.3906 43.3147 18.1523 46.2444 18.1641C49.1506 18.1523 51.3186 20.3906 51.3303 24.5156C51.3186 28.6406 49.1506 30.8789 46.2444 30.8672C43.3147 30.8789 41.1467 28.6406 41.135 24.5156ZM71.2934 24.5156C71.2934 19.0898 68.0356 15.7969 63.6528 15.7969C59.2348 15.7969 55.9888 19.0898 55.9888 24.5156C55.9888 29.9297 59.2348 33.2344 63.6528 33.2344C68.0356 33.2344 71.2934 29.9414 71.2934 24.5156ZM58.5434 24.5156C58.5552 20.3906 60.7231 18.1523 63.6528 18.1641C66.5591 18.1523 68.727 20.3906 68.7388 24.5156C68.727 28.6406 66.5591 30.8789 63.6528 30.8672C60.7231 30.8789 58.5552 28.6406 58.5434 24.5156ZM90.2487 14.0625H88.4441V25.8984H90.2487V14.0625ZM74.3816 24.3047H76.0691C79.6667 24.2812 82.8308 24.0352 86.3581 23.3203L86.0769 21.7734C82.7605 22.4766 79.6784 22.7109 76.2331 22.7344V15.3047H74.3816V24.3047ZM76.7253 34.6172H90.2487V26.8594H76.7253V34.6172ZM78.53 33.1172V28.3359H88.4441V33.1172H78.53ZM100.392 15.5859C97.0986 15.5977 94.7548 17.5898 94.7666 20.4844C94.7548 23.3906 97.0986 25.3711 100.392 25.3828C103.661 25.3711 105.981 23.3906 105.993 20.4844C105.981 17.5898 103.661 15.5977 100.392 15.5859ZM93.6884 28.7812L93.9463 30.3516C97.6963 30.3516 102.817 30.3281 107.587 29.4375L107.446 28.0781C102.841 28.7578 97.5322 28.793 93.6884 28.7812ZM96.5713 20.4844C96.5595 18.5508 98.165 17.2031 100.392 17.2031C102.595 17.2031 104.2 18.5508 104.188 20.4844C104.2 22.4297 102.595 23.7656 100.392 23.7656C98.165 23.7656 96.5595 22.4297 96.5713 20.4844ZM108.829 34.9453H110.657V14.0625H108.829V34.9453ZM125.951 20.4609V19.5H129.958V17.9766H125.974V14.8359H124.216V17.9766H120.185V19.5H124.216V20.4609C124.205 23.9062 122.505 27.5273 119.693 29.1797L120.794 30.5391C122.869 29.3203 124.369 27 125.107 24.3281C125.869 26.8359 127.369 28.9805 129.443 30.1172L130.521 28.7344C127.662 27.2109 125.962 23.7891 125.951 20.4609ZM131.388 33.8438H133.146V24.0703H135.982V34.8984H137.763V14.0625H135.982V22.5H133.146V14.5078H131.388V33.8438ZM157.609 14.0859H155.734V25.4062H151.14V26.9062H155.734V29.8359H157.609V14.0859ZM140.218 22.3359L140.476 23.8594C142.164 23.8594 144.121 23.8359 146.172 23.7422V28.4531H148V23.6484C149.992 23.5195 152.031 23.3203 153.976 22.9922L153.836 21.6562C153.062 21.7617 152.265 21.8555 151.457 21.9258C151.902 19.2656 151.902 17.3203 151.89 16.1719V15.3516H142.093V16.8516H150.062C150.05 18.0469 149.98 19.7812 149.57 22.0781C146.265 22.3008 142.902 22.3242 140.218 22.3359ZM143.336 34.4531H158.125V32.9062H145.187V28.0781H143.336V34.4531ZM178.088 14.0625H176.236V34.8984H178.088V14.0625ZM161.119 29.4844L162.127 30.9844C169.111 27.6328 171.9 22.3242 171.924 16.3359H162.08V17.8359H170.049C169.639 22.8164 166.756 26.8125 161.119 29.4844ZM200.418 25.5469H191.77V23.3438H198.402V21.8672H185.652V19.6406H197.957V14.6016H183.754V16.1016H196.106V18.2578H183.824V23.3438H189.965V25.5469H181.34V27.0703H200.418V25.5469ZM183.473 30.1641H196.223V34.7109H198.074V28.6641H183.473V30.1641Z" fill="#101828"/>
<path d="M30.5957 58.9121H29.3105V65.2832H30.5957V58.9121ZM21.0938 64.791H26.918V59.418H25.6328V61.0859H22.3652V59.418H21.0938V64.791ZM22.3652 63.752V62.084H25.6328V63.752H22.3652ZM22.5566 66.8828H29.3242V67.9355H22.5977V71.0391H31.0195V70.0273H23.8555V68.8789H30.6094V65.8711H22.5566V66.8828ZM42.61 58.9121H41.3248V61.6465H39.0006V62.7129H41.3248V64.9824H38.9323V66.0625H41.3248V71.1895H42.61V58.9121ZM32.8346 61.0449H36.9909V63.4375H32.862V68.3594H33.7916C35.7262 68.3594 37.2916 68.3047 39.2057 68.0039L39.0963 66.9375C37.3532 67.1904 35.8903 67.2725 34.1608 67.2793V64.4629H38.2623V59.9922H32.8346V61.0449ZM54.5423 59.5H45.3958V60.5391H49.0872C49.0257 61.8652 47.2757 63.0479 44.9856 63.3281L45.4778 64.3535C47.5696 64.0801 49.2854 63.1025 49.9554 61.7285C50.6116 63.1025 52.3343 64.0801 54.4329 64.3535L54.9251 63.3281C52.6487 63.0479 50.885 61.8721 50.8098 60.5391H54.5423V59.5ZM44.3567 66.1992H49.4153V68.5781H50.7005V66.1992H55.5677V65.1465H44.3567V66.1992ZM45.7512 70.9023H54.3235V69.8496H47.0501V67.4023H45.7512V70.9023ZM63.272 62.6582V62.207H65.5005V61.127H63.272V59.3496H62.0552V61.127H59.7857V62.207H62.0552V62.6582C62.0416 64.6338 61.1597 66.7188 59.4712 67.7031L60.2369 68.6602C61.4195 67.9766 62.2398 66.6982 62.6705 65.2217C63.1148 66.6025 63.942 67.7715 65.1314 68.4004L65.8697 67.4297C64.1607 66.5342 63.272 64.5654 63.272 62.6582ZM66.2525 70.5605H67.483V64.873H68.9459V71.1621H70.19V58.9121H68.9459V63.7793H67.483V59.1445H66.2525V70.5605ZM81.8215 58.9258H80.509V65.5293H77.9113V66.5684H80.509V68.168H81.8215V58.9258ZM71.4855 63.6973L71.6633 64.75C72.6271 64.75 73.7346 64.7363 74.9035 64.6816V67.375H76.2023V64.6133C77.3234 64.5381 78.465 64.415 79.5656 64.2305L79.4699 63.2871C79.0393 63.3486 78.5949 63.3965 78.1437 63.4443C78.3967 61.8857 78.3967 60.751 78.4035 60.0879V59.6094H72.593V60.6621H77.0979C77.091 61.3457 77.0363 62.3027 76.8312 63.5469C74.9377 63.6699 73.0236 63.6904 71.4855 63.6973ZM73.2766 70.9023H82.1223V69.8496H74.5754V67.1699H73.2766V70.9023Z" fill="#101828"/>
<path d="M88.6426 68.1543H93.4414V70H95.1367V68.1543H96.4355V66.6914H95.1367V60.1016H92.9219L88.6426 66.7324V68.1543ZM90.4609 66.6914V66.623L93.3594 62.125H93.4688V66.6914H90.4609ZM107.657 58.8711H106.139V62.5215H103.76V63.7793H106.139V67.9355H107.657V58.8711ZM97.4713 65.4199L98.1139 66.6367C101.689 65.4951 103.842 63.0615 103.842 59.8008H98.1139V61.0449H102.181C101.887 63 100.131 64.5791 97.4713 65.4199ZM99.6041 70.9707H107.971V69.7402H101.149V67.0195H99.6041V70.9707Z" fill="#98A2B3"/>
<path d="M21.9586 98H24.2047L30.4938 85.7734V83.8594H20.982V85.6953H28.2672V85.8125L21.9586 98ZM37.0711 98.1953C40.3426 98.1953 42.2566 95.5586 42.2664 90.9297C42.2566 86.3301 40.3133 83.6641 37.0711 83.6641C33.8191 83.6641 31.8758 86.3301 31.8758 90.9297C31.8758 95.5586 33.7996 98.1953 37.0711 98.1953ZM34.0242 90.9297C34.0242 87.4141 35.1668 85.4902 37.0711 85.4805C38.9656 85.4902 40.118 87.4141 40.118 90.9297C40.118 94.4551 38.9754 96.3398 37.0711 96.3398C35.157 96.3398 34.0145 94.4551 34.0242 90.9297ZM49.2148 98.1953C52.4863 98.1953 54.4004 95.5586 54.4102 90.9297C54.4004 86.3301 52.457 83.6641 49.2148 83.6641C45.9629 83.6641 44.0195 86.3301 44.0195 90.9297C44.0195 95.5586 45.9434 98.1953 49.2148 98.1953ZM46.168 90.9297C46.168 87.4141 47.3105 85.4902 49.2148 85.4805C51.1094 85.4902 52.2617 87.4141 52.2617 90.9297C52.2617 94.4551 51.1191 96.3398 49.2148 96.3398C47.3008 96.3398 46.1582 94.4551 46.168 90.9297ZM58.4484 96.6523H56.2609L55.2258 102.043H56.8859L58.4484 96.6523ZM65.4555 98.1953C68.727 98.1953 70.641 95.5586 70.6508 90.9297C70.641 86.3301 68.6977 83.6641 65.4555 83.6641C62.2035 83.6641 60.2602 86.3301 60.2602 90.9297C60.2602 95.5586 62.184 98.1953 65.4555 98.1953ZM62.4086 90.9297C62.4086 87.4141 63.5512 85.4902 65.4555 85.4805C67.35 85.4902 68.5023 87.4141 68.5023 90.9297C68.5023 94.4551 67.3598 96.3398 65.4555 96.3398C63.5414 96.3398 62.3988 94.4551 62.4086 90.9297ZM77.5992 98.1953C80.8707 98.1953 82.7848 95.5586 82.7945 90.9297C82.7848 86.3301 80.8414 83.6641 77.5992 83.6641C74.3473 83.6641 72.4039 86.3301 72.4039 90.9297C72.4039 95.5586 74.3277 98.1953 77.5992 98.1953ZM74.5523 90.9297C74.5523 87.4141 75.6949 85.4902 77.5992 85.4805C79.4938 85.4902 80.6461 87.4141 80.6461 90.9297C80.6461 94.4551 79.5035 96.3398 77.5992 96.3398C75.6852 96.3398 74.5426 94.4551 74.5523 90.9297ZM89.743 98.1953C93.0145 98.1953 94.9285 95.5586 94.9383 90.9297C94.9285 86.3301 92.9852 83.6641 89.743 83.6641C86.491 83.6641 84.5477 86.3301 84.5477 90.9297C84.5477 95.5586 86.4715 98.1953 89.743 98.1953ZM86.6961 90.9297C86.6961 87.4141 87.8387 85.4902 89.743 85.4805C91.6375 85.4902 92.7898 87.4141 92.7898 90.9297C92.7898 94.4551 91.6473 96.3398 89.743 96.3398C87.8289 96.3398 86.6863 94.4551 86.6961 90.9297ZM110.91 82.1797H109.055V92.4531H105.539V93.7617H109.055V95.4414H110.91V82.1797ZM96.2812 90.168L96.5156 91.6523C97.9316 91.6523 99.5625 91.6523 101.262 91.584V94.8945H103.117V91.4863C104.66 91.3789 106.232 91.2227 107.727 90.9688L107.609 89.6406C103.879 90.1094 99.5137 90.1387 96.2812 90.168ZM97.6484 85.9297C97.6387 87.7949 99.416 88.9766 102.004 88.9766C104.562 88.9766 106.34 87.7949 106.34 85.9297C106.34 84.0742 104.562 82.8438 102.004 82.8438C99.4062 82.8438 97.6387 84.0742 97.6484 85.9297ZM98.7031 99.2891H111.34V97.7852H100.539V94.1523H98.7031V99.2891ZM99.4062 85.9297C99.3965 84.8848 100.451 84.2109 102.004 84.2305C103.498 84.2109 104.572 84.8848 104.582 85.9297C104.572 86.9648 103.498 87.6094 102.004 87.6094C100.451 87.6094 99.3965 86.9648 99.4062 85.9297Z" fill="#000C92"/>
<path d="M199.596 58.9121H198.311V65.2832H199.596V58.9121ZM190.094 64.791H195.918V59.418H194.633V61.0859H191.365V59.418H190.094V64.791ZM191.365 63.752V62.084H194.633V63.752H191.365ZM191.557 66.8828H198.324V67.9355H191.598V71.0391H200.02V70.0273H192.855V68.8789H199.609V65.8711H191.557V66.8828ZM211.555 58.9258H210.27V67.9355H211.555V58.9258ZM202.026 60.8125H206.374V62.4395H202.053V66.2539H203.079C205.512 66.2471 207.139 66.1787 209.067 65.8438L208.93 64.7773C207.112 65.1055 205.574 65.1738 203.325 65.1875V63.4238H207.659V59.7734H202.026V60.8125ZM203.462 70.9023H211.897V69.8496H204.76V67.2246H203.462V70.9023ZM220.312 62.6582V62.207H222.541V61.127H220.312V59.3496H219.096V61.127H216.826V62.207H219.096V62.6582C219.082 64.6338 218.2 66.7188 216.512 67.7031L217.277 68.6602C218.46 67.9766 219.28 66.6982 219.711 65.2217C220.155 66.6025 220.982 67.7715 222.172 68.4004L222.91 67.4297C221.201 66.5342 220.312 64.5654 220.312 62.6582ZM223.293 70.5605H224.523V64.873H225.986V71.1621H227.23V58.9121H225.986V63.7793H224.523V59.1445H223.293V70.5605ZM238.862 58.9258H237.549V65.5293H234.952V66.5684H237.549V68.168H238.862V58.9258ZM228.526 63.6973L228.704 64.75C229.668 64.75 230.775 64.7363 231.944 64.6816V67.375H233.243V64.6133C234.364 64.5381 235.505 64.415 236.606 64.2305L236.51 63.2871C236.08 63.3486 235.635 63.3965 235.184 63.4443C235.437 61.8857 235.437 60.751 235.444 60.0879V59.6094H229.633V60.6621H234.138C234.131 61.3457 234.077 62.3027 233.872 63.5469C231.978 63.6699 230.064 63.6904 228.526 63.6973ZM230.317 70.9023H239.163V69.8496H231.616V67.1699H230.317V70.9023Z" fill="#101828"/>
<path d="M245.82 70H252.697V68.5098H248.295V68.4414L250.059 66.6914C252.007 64.8525 252.54 63.9502 252.547 62.8359C252.54 61.1748 251.18 59.9648 249.156 59.9648C247.181 59.9648 245.772 61.1816 245.779 63.0547H247.475C247.468 62.0498 248.124 61.4141 249.143 61.4141C250.106 61.4141 250.838 61.9951 250.838 62.918C250.838 63.752 250.318 64.3398 249.32 65.3379L245.82 68.7148V70ZM264.055 58.8711H262.538V62.5215H260.159V63.7793H262.538V67.9355H264.055V58.8711ZM253.87 65.4199L254.512 66.6367C258.088 65.4951 260.241 63.0615 260.241 59.8008H254.512V61.0449H258.58C258.286 63 256.529 64.5791 253.87 65.4199ZM256.003 70.9707H264.37V69.7402H257.547V67.0195H256.003V70.9707Z" fill="#98A2B3"/>
<path d="M195.927 98.1953C198.955 98.1953 201.113 96.5352 201.123 94.2305C201.113 92.4141 199.804 90.9297 198.154 90.6758V90.5977C199.58 90.2656 200.566 88.9766 200.576 87.4336C200.566 85.2559 198.593 83.6641 195.927 83.6641C193.222 83.6641 191.259 85.2559 191.259 87.4336C191.259 88.9766 192.226 90.2656 193.681 90.5977V90.6758C192.011 90.9297 190.713 92.4141 190.732 94.2305C190.713 96.5352 192.851 98.1953 195.927 98.1953ZM192.92 94.0742C192.89 92.6191 194.17 91.5547 195.927 91.5547C197.666 91.5547 198.935 92.6191 198.935 94.0742C198.935 95.4609 197.763 96.418 195.927 96.418C194.062 96.418 192.89 95.4609 192.92 94.0742ZM193.349 87.6289C193.359 86.3105 194.375 85.4121 195.927 85.4219C197.441 85.4121 198.476 86.3105 198.466 87.6289C198.476 88.957 197.402 89.8652 195.927 89.8555C194.414 89.8652 193.359 88.9473 193.349 87.6289ZM208.071 98.1953C211.343 98.1953 213.257 95.5586 213.266 90.9297C213.257 86.3301 211.313 83.6641 208.071 83.6641C204.819 83.6641 202.876 86.3301 202.876 90.9297C202.876 95.5586 204.8 98.1953 208.071 98.1953ZM205.024 90.9297C205.024 87.4141 206.167 85.4902 208.071 85.4805C209.966 85.4902 211.118 87.4141 211.118 90.9297C211.118 94.4551 209.975 96.3398 208.071 96.3398C206.157 96.3398 205.014 94.4551 205.024 90.9297ZM220.215 98.1953C223.486 98.1953 225.4 95.5586 225.41 90.9297C225.4 86.3301 223.457 83.6641 220.215 83.6641C216.963 83.6641 215.02 86.3301 215.02 90.9297C215.02 95.5586 216.943 98.1953 220.215 98.1953ZM217.168 90.9297C217.168 87.4141 218.311 85.4902 220.215 85.4805C222.109 85.4902 223.262 87.4141 223.262 90.9297C223.262 94.4551 222.119 96.3398 220.215 96.3398C218.301 96.3398 217.158 94.4551 217.168 90.9297ZM229.448 96.6523H227.261L226.226 102.043H227.886L229.448 96.6523ZM236.455 98.1953C239.727 98.1953 241.641 95.5586 241.651 90.9297C241.641 86.3301 239.698 83.6641 236.455 83.6641C233.204 83.6641 231.26 86.3301 231.26 90.9297C231.26 95.5586 233.184 98.1953 236.455 98.1953ZM233.409 90.9297C233.409 87.4141 234.551 85.4902 236.455 85.4805C238.35 85.4902 239.502 87.4141 239.502 90.9297C239.502 94.4551 238.36 96.3398 236.455 96.3398C234.541 96.3398 233.399 94.4551 233.409 90.9297ZM248.599 98.1953C251.871 98.1953 253.785 95.5586 253.795 90.9297C253.785 86.3301 251.841 83.6641 248.599 83.6641C245.347 83.6641 243.404 86.3301 243.404 90.9297C243.404 95.5586 245.328 98.1953 248.599 98.1953ZM245.552 90.9297C245.552 87.4141 246.695 85.4902 248.599 85.4805C250.494 85.4902 251.646 87.4141 251.646 90.9297C251.646 94.4551 250.504 96.3398 248.599 96.3398C246.685 96.3398 245.543 94.4551 245.552 90.9297ZM260.743 98.1953C264.014 98.1953 265.929 95.5586 265.938 90.9297C265.929 86.3301 263.985 83.6641 260.743 83.6641C257.491 83.6641 255.548 86.3301 255.548 90.9297C255.548 95.5586 257.471 98.1953 260.743 98.1953ZM257.696 90.9297C257.696 87.4141 258.839 85.4902 260.743 85.4805C262.638 85.4902 263.79 87.4141 263.79 90.9297C263.79 94.4551 262.647 96.3398 260.743 96.3398C258.829 96.3398 257.686 94.4551 257.696 90.9297ZM281.91 82.1797H280.055V92.4531H276.539V93.7617H280.055V95.4414H281.91V82.1797ZM267.281 90.168L267.516 91.6523C268.932 91.6523 270.562 91.6523 272.262 91.584V94.8945H274.117V91.4863C275.66 91.3789 277.232 91.2227 278.727 90.9688L278.609 89.6406C274.879 90.1094 270.514 90.1387 267.281 90.168ZM268.648 85.9297C268.639 87.7949 270.416 88.9766 273.004 88.9766C275.562 88.9766 277.34 87.7949 277.34 85.9297C277.34 84.0742 275.562 82.8438 273.004 82.8438C270.406 82.8438 268.639 84.0742 268.648 85.9297ZM269.703 99.2891H282.34V97.7852H271.539V94.1523H269.703V99.2891ZM270.406 85.9297C270.396 84.8848 271.451 84.2109 273.004 84.2305C274.498 84.2109 275.572 84.8848 275.582 85.9297C275.572 86.9648 274.498 87.6094 273.004 87.6094C271.451 87.6094 270.396 86.9648 270.406 85.9297Z" fill="#000C92"/>
<rect width="375" height="44" transform="translate(0 132)" fill="white"/>
<path d="M75.8844 146.266H74.1656V153.562H75.8844V146.266ZM64.8688 153.062H71.6813V146.859H69.9469V148.625H66.5875V146.859H64.8688V153.062ZM66.5406 155.547H74.1813V156.562H66.5719V160.266H76.3375V158.922H68.275V157.812H75.9156V154.203H66.5406V155.547ZM66.5875 151.688V149.969H69.9469V151.688H66.5875ZM89.6463 146.266H87.9119V149.344H85.3806V150.766H87.9119V153.188H85.3338V154.609H87.9119V160.406H89.6463V146.266ZM78.2869 148.875H82.8806V151.406H78.3338V157.203H79.4275C81.6228 157.203 83.4197 157.156 85.5838 156.812L85.4431 155.391C83.5369 155.672 81.9197 155.758 80.0525 155.766V152.766H84.5838V147.484H78.2869V148.875ZM103.205 146.906H92.6581V148.297H96.7206C96.5566 149.625 94.8534 150.898 92.1269 151.219L92.7675 152.594C95.2988 152.289 97.1503 151.164 97.9081 149.648C98.6659 151.172 100.533 152.289 103.064 152.594L103.721 151.219C100.994 150.898 99.2675 149.633 99.1113 148.297H103.205V146.906ZM91.4706 154.781H97.205V157.359H98.9238V154.781H104.377V153.375H91.4706V154.781ZM93.0331 160.109H102.955V158.703H94.7675V156.062H93.0331V160.109ZM120.588 146.266H118.838V160.391H120.588V146.266ZM108.885 156.5L109.791 157.891C114.737 155.539 116.369 151.969 116.369 147.766H109.604V149.141H114.604C114.291 152.352 112.588 154.742 108.885 156.5ZM135.35 153.906H129.756V152.734H134.038V151.375H125.803V150.25H133.756V146.578H124.038V147.938H132.022V148.984H124.084V152.734H128.038V153.906H122.444V155.312H135.35V153.906ZM123.881 157.578H132.084V160.297H133.834V156.203H123.881V157.578Z" fill="#101828"/>
<rect y="174" width="187.5" height="2" fill="#101828"/>
<path d="M258.218 146.266H256.5V153.562H258.218V146.266ZM247.203 153.062H254.015V146.859H252.281V148.625H248.922V146.859H247.203V153.062ZM248.875 155.547H256.515V156.562H248.906V160.266H258.672V158.922H250.609V157.812H258.25V154.203H248.875V155.547ZM248.922 151.688V149.969H252.281V151.688H248.922ZM271.887 146.281H270.168V156.672H271.887V146.281ZM260.871 148.625H265.668V150.281H260.902V154.797H262.105C264.996 154.797 266.847 154.727 268.98 154.328L268.793 152.938C266.847 153.297 265.16 153.375 262.605 153.375V151.594H267.387V147.234H260.871V148.625ZM262.48 160.109H272.277V158.703H264.23V155.828H262.48V160.109ZM289.254 146.266H287.504V160.391H289.254V146.266ZM277.551 156.5L278.457 157.891C283.403 155.539 285.035 151.969 285.035 147.766H278.27V149.141H283.27C282.957 152.352 281.254 154.742 277.551 156.5ZM304.016 153.906H298.422V152.734H302.703V151.375H294.469V150.25H302.422V146.578H292.703V147.938H300.688V148.984H292.75V152.734H296.703V153.906H291.11V155.312H304.016V153.906ZM292.547 157.578H300.75V160.297H302.5V156.203H292.547V157.578Z" fill="#98A2B3"/>
<rect x="187.5" y="175" width="187.5" height="1" fill="#D0D5DD"/>
<path d="M30.6641 210.926H29.3652V212.771H26.3096C25.7354 212.088 24.8535 211.671 23.8418 211.664C21.9961 211.678 20.6221 212.97 20.6289 214.781C20.6221 216.579 21.9961 217.871 23.8418 217.871C24.8604 217.871 25.749 217.454 26.3232 216.764H29.3652V219.949H30.6641V210.926ZM21.873 214.781C21.8662 213.626 22.6934 212.833 23.8418 212.826C24.9424 212.833 25.7832 213.626 25.7832 214.781C25.7832 215.937 24.9424 216.729 23.8418 216.723C22.6934 216.729 21.8662 215.937 21.873 214.781ZM22.707 222.902H30.9922V221.85H24.0059V219.006H22.707V222.902ZM26.8838 213.824H29.3652V215.711H26.8906C26.9795 215.424 27.0273 215.109 27.0273 214.781C27.0273 214.439 26.9795 214.125 26.8838 213.824ZM36.0748 214.672V214.18H38.2487V213.113H36.0748V211.35H34.858V213.113H32.6432V214.18H34.858V214.672C34.8444 216.647 33.9694 218.746 32.2741 219.73L33.0397 220.715C34.2223 220.004 35.0426 218.726 35.4801 217.242C35.9245 218.63 36.7448 219.799 37.9342 220.428L38.6588 219.471C36.9704 218.562 36.0748 216.6 36.0748 214.672ZM37.442 216.764H39.2057V222.547H40.4362V211.172H39.2057V215.684H37.442V216.764ZM41.6803 223.162H42.9245V210.912H41.6803V223.162ZM55.5403 216.586H44.3704V217.639H49.3059V218.814C47.0296 218.931 45.6966 219.689 45.6966 220.975C45.6966 222.362 47.2825 223.142 49.9485 223.135C52.5804 223.142 54.1663 222.362 54.1731 220.975C54.1663 219.689 52.8333 218.938 50.5911 218.814V217.639H55.5403V216.586ZM44.9583 214.918L45.4095 215.943C47.5354 215.697 49.2786 214.802 49.9554 213.503C50.6184 214.802 52.3753 215.697 54.5012 215.943L54.9661 214.918C52.7239 214.692 51.0012 213.701 50.8235 212.512H54.5423V211.473H45.3958V212.512H49.0735C48.8958 213.694 47.1595 214.692 44.9583 214.918ZM47.0091 220.975C47.0022 220.216 48.0755 219.806 49.9485 219.799C51.7942 219.806 52.8743 220.216 52.8743 220.975C52.8743 221.72 51.7942 222.15 49.9485 222.137C48.0755 222.15 47.0022 221.72 47.0091 220.975Z" fill="#101828"/>
<path d="M61.8203 222H68.6973V220.51H64.2949V220.441L66.0586 218.691C68.0068 216.853 68.54 215.95 68.5469 214.836C68.54 213.175 67.1797 211.965 65.1562 211.965C63.1807 211.965 61.7725 213.182 61.7793 215.055H63.4746C63.4678 214.05 64.124 213.414 65.1426 213.414C66.1064 213.414 66.8379 213.995 66.8379 214.918C66.8379 215.752 66.3184 216.34 65.3203 217.338L61.8203 220.715V222Z" fill="#F2626A"/>
<path d="M265.727 217.188H260.778V215.779H259.492V217.188H254.557V218.24H265.727V217.188ZM255.145 215.383L255.555 216.381C257.66 216.183 259.369 215.472 260.135 214.33C260.894 215.472 262.61 216.183 264.729 216.381L265.125 215.383C262.692 215.185 261.003 214.296 260.86 213.113H264.606V212.074H260.778V210.898H259.492V212.074H255.678V213.113H259.41C259.253 214.296 257.572 215.185 255.145 215.383ZM255.883 221.098C255.883 222.424 257.455 223.142 260.135 223.135C262.801 223.142 264.353 222.424 264.36 221.098C264.353 219.771 262.801 219.047 260.135 219.047C257.455 219.047 255.883 219.771 255.883 221.098ZM257.196 221.098C257.189 220.4 258.241 220.018 260.135 220.018C262.001 220.018 263.061 220.4 263.061 221.098C263.061 221.795 262.001 222.164 260.135 222.15C258.241 222.164 257.189 221.795 257.196 221.098ZM270.218 222H276.876V220.715H272.31V220.633L274.32 218.596C276.179 216.771 276.699 215.889 276.712 214.781C276.699 213.175 275.379 211.965 273.472 211.965C271.585 211.965 270.205 213.161 270.218 214.973H271.64C271.647 213.92 272.344 213.223 273.445 213.223C274.484 213.223 275.277 213.845 275.277 214.822C275.277 215.69 274.737 216.319 273.65 217.447L270.218 220.906V222ZM281.85 222.137C284.14 222.137 285.48 220.291 285.486 217.051C285.48 213.831 284.119 211.965 281.85 211.965C279.573 211.965 278.213 213.831 278.213 217.051C278.213 220.291 279.56 222.137 281.85 222.137ZM279.717 217.051C279.717 214.59 280.517 213.243 281.85 213.236C283.176 213.243 283.983 214.59 283.983 217.051C283.983 219.519 283.183 220.838 281.85 220.838C280.51 220.838 279.71 219.519 279.717 217.051ZM290.35 222.137C292.64 222.137 293.98 220.291 293.987 217.051C293.98 213.831 292.62 211.965 290.35 211.965C288.074 211.965 286.714 213.831 286.714 217.051C286.714 220.291 288.06 222.137 290.35 222.137ZM288.218 217.051C288.218 214.59 289.017 213.243 290.35 213.236C291.677 213.243 292.483 214.59 292.483 217.051C292.483 219.519 291.683 220.838 290.35 220.838C289.011 220.838 288.211 219.519 288.218 217.051ZM296.814 221.057H295.283L294.558 224.83H295.72L296.814 221.057ZM301.719 222.137C304.009 222.137 305.349 220.291 305.356 217.051C305.349 213.831 303.988 211.965 301.719 211.965C299.442 211.965 298.082 213.831 298.082 217.051C298.082 220.291 299.429 222.137 301.719 222.137ZM299.586 217.051C299.586 214.59 300.386 213.243 301.719 213.236C303.045 213.243 303.852 214.59 303.852 217.051C303.852 219.519 303.052 220.838 301.719 220.838C300.379 220.838 299.579 219.519 299.586 217.051ZM310.219 222.137C312.509 222.137 313.849 220.291 313.856 217.051C313.849 213.831 312.489 211.965 310.219 211.965C307.943 211.965 306.583 213.831 306.583 217.051C306.583 220.291 307.929 222.137 310.219 222.137ZM308.087 217.051C308.087 214.59 308.886 213.243 310.219 213.236C311.546 213.243 312.352 214.59 312.352 217.051C312.352 219.519 311.552 220.838 310.219 220.838C308.88 220.838 308.08 219.519 308.087 217.051ZM318.72 222.137C321.01 222.137 322.35 220.291 322.357 217.051C322.35 213.831 320.99 211.965 318.72 211.965C316.444 211.965 315.083 213.831 315.083 217.051C315.083 220.291 316.43 222.137 318.72 222.137ZM316.587 217.051C316.587 214.59 317.387 213.243 318.72 213.236C320.046 213.243 320.853 214.59 320.853 217.051C320.853 219.519 320.053 220.838 318.72 220.838C317.38 220.838 316.58 219.519 316.587 217.051ZM333.537 210.926H332.238V218.117H329.777V219.033H332.238V220.209H333.537V210.926ZM323.297 216.518L323.461 217.557C324.452 217.557 325.594 217.557 326.783 217.509V219.826H328.082V217.44C329.162 217.365 330.263 217.256 331.309 217.078L331.227 216.148C328.615 216.477 325.56 216.497 323.297 216.518ZM324.254 213.551C324.247 214.856 325.491 215.684 327.303 215.684C329.094 215.684 330.338 214.856 330.338 213.551C330.338 212.252 329.094 211.391 327.303 211.391C325.484 211.391 324.247 212.252 324.254 213.551ZM324.992 222.902H333.838V221.85H326.277V219.307H324.992V222.902ZM325.484 213.551C325.478 212.819 326.216 212.348 327.303 212.361C328.349 212.348 329.101 212.819 329.107 213.551C329.101 214.275 328.349 214.727 327.303 214.727C326.216 214.727 325.478 214.275 325.484 213.551Z" fill="#667085"/>
<path d="M20 254C20 245.163 27.1634 238 36 238H339C347.837 238 355 245.163 355 254V302C355 310.837 347.837 318 339 318H36C27.1634 318 20 310.837 20 302V254Z" fill="#F2F4F7"/>
<path d="M46.8906 271C43.8125 270.992 42.0859 271.734 42.0938 273.141C42.0859 274.516 43.8125 275.234 46.8906 275.234C49.9375 275.234 51.6562 274.516 51.6719 273.141C51.6562 271.734 49.9375 270.992 46.8906 271ZM40.5625 270.125H53.2188V269.141H47.5V268.055C49.9922 267.961 51.3906 267.289 51.3906 266.094C51.3906 264.773 49.7656 264.102 46.8906 264.094C44.0078 264.102 42.375 264.773 42.375 266.094C42.375 267.289 43.7812 267.961 46.2812 268.055V269.141H40.5625V270.125ZM41.2188 263.531H52.4844V262.547H47.5V261.188H46.2812V262.547H41.2188V263.531ZM43.3438 273.141C43.3516 272.352 44.6328 271.922 46.8906 271.922C49.1406 271.922 50.4219 272.352 50.4219 273.141C50.4219 273.898 49.1406 274.32 46.8906 274.312C44.6328 274.32 43.3516 273.898 43.3438 273.141ZM43.6875 266.094C43.6797 265.359 44.8516 264.961 46.8906 264.969C48.9297 264.961 50.0859 265.359 50.0938 266.094C50.0859 266.781 48.9297 267.18 46.8906 267.188C44.8516 267.18 43.6797 266.781 43.6875 266.094ZM65.6994 261.375H64.4806V268.484H65.6994V261.375ZM54.465 267.75L54.9181 268.781C59.0275 267.82 61.5353 265.609 61.5431 262.062H55.1681V263.078H60.1994C59.9806 265.312 57.9494 266.977 54.465 267.75ZM56.6681 270.125H64.4806V271.562H56.6994V275.141H66.1994V274.156H57.9181V272.5H65.6994V269.141H56.6681V270.125ZM80.5706 268.25H74.8206V266.625H79.0863V265.625H70.7113V263.016H78.9925V262.031H69.5081V266.625H73.6331V268.25H67.8988V269.234H80.5706V268.25ZM69.43 272.75C69.4222 274.352 71.2269 275.25 74.2269 275.266C77.2034 275.25 78.9925 274.352 79.0081 272.75C78.9925 271.164 77.2034 270.258 74.2269 270.25C71.2269 270.258 69.4222 271.164 69.43 272.75ZM70.68 272.75C70.6644 271.789 72.0003 271.219 74.2269 271.219C76.43 271.219 77.7659 271.789 77.7738 272.75C77.7659 273.727 76.43 274.289 74.2269 274.281C72.0003 274.289 70.6644 273.727 70.68 272.75Z" fill="black"/>
<path d="M262.995 274H270.339V272.75H264.948V272.656L267.542 269.984C269.542 267.922 270.128 266.938 270.136 265.672C270.128 263.914 268.675 262.531 266.62 262.531C264.573 262.531 263.026 263.875 263.042 265.875H264.37C264.378 264.609 265.222 263.758 266.573 263.75C267.847 263.758 268.815 264.508 268.823 265.672C268.815 266.719 268.175 267.484 266.839 268.906L262.979 272.969L262.995 274ZM275.929 274.156C278.437 274.156 279.882 272.047 279.882 268.344C279.882 264.672 278.413 262.531 275.929 262.531C273.437 262.531 271.968 264.672 271.976 268.344C271.968 272.047 273.421 274.156 275.929 274.156ZM273.335 268.344C273.343 265.414 274.304 263.758 275.929 263.75C277.554 263.758 278.515 265.414 278.507 268.344C278.515 271.273 277.562 272.906 275.929 272.906C274.288 272.906 273.343 271.273 273.335 268.344ZM285.3 274.156C287.808 274.156 289.253 272.047 289.253 268.344C289.253 264.672 287.784 262.531 285.3 262.531C282.808 262.531 281.339 264.672 281.347 268.344C281.339 272.047 282.792 274.156 285.3 274.156ZM282.706 268.344C282.714 265.414 283.675 263.758 285.3 263.75C286.925 263.758 287.886 265.414 287.878 268.344C287.886 271.273 286.933 272.906 285.3 272.906C283.659 272.906 282.714 271.273 282.706 268.344ZM292.343 272.953H290.828L289.968 277.203H291.124L292.343 272.953ZM297.824 274.156C300.332 274.156 301.777 272.047 301.777 268.344C301.777 264.672 300.308 262.531 297.824 262.531C295.332 262.531 293.863 264.672 293.871 268.344C293.863 272.047 295.316 274.156 297.824 274.156ZM295.23 268.344C295.238 265.414 296.199 263.758 297.824 263.75C299.449 263.758 300.41 265.414 300.402 268.344C300.41 271.273 299.457 272.906 297.824 272.906C296.183 272.906 295.238 271.273 295.23 268.344ZM307.195 274.156C309.703 274.156 311.148 272.047 311.148 268.344C311.148 264.672 309.679 262.531 307.195 262.531C304.703 262.531 303.234 264.672 303.242 268.344C303.234 272.047 304.687 274.156 307.195 274.156ZM304.601 268.344C304.609 265.414 305.57 263.758 307.195 263.75C308.82 263.758 309.781 265.414 309.773 268.344C309.781 271.273 308.828 272.906 307.195 272.906C305.554 272.906 304.609 271.273 304.601 268.344ZM316.566 274.156C319.074 274.156 320.519 272.047 320.519 268.344C320.519 264.672 319.051 262.531 316.566 262.531C314.074 262.531 312.605 264.672 312.613 268.344C312.605 272.047 314.058 274.156 316.566 274.156ZM313.973 268.344C313.98 265.414 314.941 263.758 316.566 263.75C318.191 263.758 319.152 265.414 319.144 268.344C319.152 271.273 318.199 272.906 316.566 272.906C314.926 272.906 313.98 271.273 313.973 268.344ZM333.188 261.391H331.953V269.609H329.078V270.5H331.953V271.938H333.188V261.391ZM321.656 267.828L321.828 268.828C322.992 268.828 324.328 268.828 325.734 268.773V271.453H326.969V268.711C328.242 268.633 329.547 268.508 330.781 268.312L330.703 267.422C327.727 267.789 324.242 267.812 321.656 267.828ZM322.781 264.375C322.773 265.859 324.164 266.781 326.219 266.781C328.258 266.781 329.648 265.859 329.656 264.375C329.648 262.914 328.258 261.953 326.219 261.953C324.164 261.953 322.773 262.914 322.781 264.375ZM323.656 274.969H333.531V273.938H324.891V270.906H323.656V274.969ZM323.953 264.375C323.938 263.484 324.859 262.875 326.219 262.891C327.539 262.875 328.477 263.484 328.484 264.375C328.477 265.281 327.539 265.867 326.219 265.875C324.859 265.867 323.938 265.281 323.953 264.375Z" fill="black"/>
<path d="M48 284.667L42 287.334V291.334C42 295.034 44.56 298.494 48 299.334C51.44 298.494 54 295.034 54 291.334V287.334L48 284.667ZM46.6667 295.334L44 292.667L44.94 291.727L46.6667 293.447L51.06 289.054L52 290L46.6667 295.334Z" fill="#0046CF"/>
<path d="M69.1416 291.972H65.2422V290.951H68.1211V290.135H62.46V288.534H68.0566V287.729H61.4502V290.951H64.2539V291.972H60.3545V292.788H69.1416V291.972ZM61.3965 295.162C61.3965 296.279 62.6479 296.908 64.7373 296.913C66.8105 296.908 68.0513 296.279 68.0566 295.162C68.0513 294.045 66.8105 293.417 64.7373 293.411C62.6479 293.417 61.3965 294.045 61.3965 295.162ZM62.4277 295.162C62.4224 294.555 63.2656 294.206 64.7373 294.206C66.1875 294.206 67.0361 294.555 67.0361 295.162C67.0361 295.78 66.1875 296.118 64.7373 296.107C63.2656 296.118 62.4224 295.78 62.4277 295.162ZM72.888 287.976C71.3734 287.97 70.2616 288.91 70.267 290.264C70.2616 291.617 71.3734 292.557 72.888 292.562C74.4081 292.557 75.5038 291.617 75.5091 290.264C75.5038 288.91 74.4081 287.97 72.888 287.976ZM69.805 294.013L69.9339 294.861C71.6527 294.861 73.9891 294.851 76.1644 294.432L76.0892 293.69C73.9838 293.997 71.556 294.013 69.805 294.013ZM71.2767 290.264C71.266 289.42 71.9535 288.856 72.888 288.856C73.8226 288.856 74.5101 289.42 74.5101 290.264C74.5101 291.118 73.8226 291.671 72.888 291.671C71.9535 291.671 71.266 291.118 71.2767 290.264ZM76.6908 296.935H77.7113V287.288H76.6908V296.935ZM86.7107 287.288H85.6902V293.089H86.7107V290.65H88.1071V289.78H86.7107V287.288ZM79.1589 289.082H84.8952V288.266H82.5427V287.213H81.5222V288.266H79.1589V289.082ZM79.6853 291.22C79.6799 292.262 80.6252 292.944 82.0271 292.949C83.4128 292.944 84.3581 292.262 84.3581 291.22C84.3581 290.194 83.4182 289.501 82.0271 289.501C80.6252 289.501 79.6799 290.194 79.6853 291.22ZM80.5661 296.795H86.7107V293.594H80.5661V296.795ZM80.6736 291.22C80.6628 290.645 81.2107 290.28 82.0271 290.285C82.8435 290.28 83.3913 290.645 83.4021 291.22C83.3913 291.816 82.8435 292.17 82.0271 292.176C81.2107 292.17 80.6628 291.816 80.6736 291.22ZM81.5652 295.968V294.399H85.7009V295.968H81.5652Z" fill="#667085"/>
<path d="M283.798 287.299H282.778V288.749H280.377C279.926 288.212 279.233 287.884 278.438 287.879C276.988 287.89 275.908 288.905 275.914 290.328C275.908 291.741 276.988 292.756 278.438 292.756C279.238 292.756 279.937 292.428 280.388 291.886H282.778V294.389H283.798V287.299ZM276.891 290.328C276.886 289.42 277.536 288.797 278.438 288.792C279.303 288.797 279.963 289.42 279.963 290.328C279.963 291.236 279.303 291.859 278.438 291.854C277.536 291.859 276.886 291.236 276.891 290.328ZM277.546 296.709H284.056V295.882H278.567V293.647H277.546V296.709ZM280.828 289.576H282.778V291.059H280.833C280.903 290.833 280.941 290.586 280.941 290.328C280.941 290.06 280.903 289.812 280.828 289.576ZM288.05 290.242V289.855H289.758V289.018H288.05V287.632H287.094V289.018H285.353V289.855H287.094V290.242C287.083 291.794 286.395 293.443 285.063 294.217L285.665 294.99C286.594 294.432 287.239 293.427 287.582 292.262C287.931 293.352 288.576 294.271 289.511 294.765L290.08 294.013C288.753 293.298 288.05 291.757 288.05 290.242ZM289.124 291.886H290.51V296.43H291.476V287.492H290.51V291.037H289.124V291.886ZM292.454 296.913H293.431V287.288H292.454V296.913ZM300.108 296C302.477 296 303.841 294.528 303.846 292.101C303.841 289.678 302.477 288.223 300.183 288.223H297.584V296H300.108ZM298.765 294.969V289.254H300.108C301.805 289.254 302.675 290.269 302.675 292.101C302.675 293.938 301.805 294.963 300.044 294.969H298.765ZM307.249 295.506H308.28V293.454H310.343V292.423H308.28V290.371H307.249V292.423H305.197V293.454H307.249V295.506ZM314.508 296.107C316.119 296.107 317.317 295.157 317.312 293.862C317.317 292.879 316.699 292.165 315.636 292.015V291.961C316.474 291.751 317.022 291.118 317.011 290.231C317.022 289.082 316.06 288.115 314.53 288.115C313.079 288.115 311.908 288.975 311.876 290.242H313.015C313.042 289.539 313.74 289.104 314.519 289.104C315.341 289.104 315.872 289.587 315.872 290.296C315.872 291.042 315.255 291.537 314.368 291.531H313.702V292.498H314.368C315.48 292.503 316.119 293.051 316.119 293.819C316.119 294.577 315.437 295.087 314.497 295.087C313.627 295.087 312.95 294.652 312.908 293.97H311.704C311.753 295.243 312.897 296.107 314.508 296.107ZM321.209 296.107C323.008 296.107 324.061 294.657 324.066 292.111C324.061 289.582 322.992 288.115 321.209 288.115C319.42 288.115 318.351 289.582 318.351 292.111C318.351 294.657 319.409 296.107 321.209 296.107ZM319.533 292.111C319.533 290.178 320.161 289.12 321.209 289.114C322.251 289.12 322.884 290.178 322.884 292.111C322.884 294.05 322.256 295.087 321.209 295.087C320.156 295.087 319.527 294.05 319.533 292.111ZM327.576 287.61C326.11 287.621 325.046 288.507 325.041 289.77C325.046 291.037 326.11 291.918 327.576 291.918C329.026 291.918 330.095 291.037 330.101 289.77C330.095 288.507 329.026 287.621 327.576 287.61ZM326.04 289.77C326.035 288.985 326.69 288.459 327.576 288.47C328.457 288.459 329.112 288.985 329.112 289.77C329.112 290.564 328.457 291.091 327.576 291.091C326.69 291.091 326.035 290.564 326.04 289.77ZM326.502 293.443H331.819V294.292H326.534V296.795H333.151V295.979H327.522V295.055H332.829V292.627H326.502V293.443ZM331.809 292.187H332.829V287.288H331.809V292.187Z" fill="#F2626A"/>
<path d="M24.6699 362.873V361.548H23.384V362.762C23.3743 364.584 22.2673 366.223 20.3577 366.905L21.0587 367.934C22.4848 367.407 23.5242 366.329 24.0511 364.956C24.5877 366.165 25.5932 367.117 26.9372 367.591L27.6285 366.571C25.8011 365.972 24.6699 364.478 24.6699 362.873ZM22.011 370.859C22.011 372.314 23.5773 373.141 26.1202 373.141C28.6436 373.141 30.1906 372.314 30.1906 370.859C30.1906 369.433 28.6436 368.592 26.1202 368.592C23.5773 368.592 22.011 369.433 22.011 370.859ZM23.3115 370.859C23.3018 370.081 24.3508 369.622 26.1202 369.622C27.8847 369.622 28.9192 370.081 28.9192 370.859C28.9192 371.671 27.8847 372.111 26.1202 372.121C24.3508 372.111 23.3018 371.671 23.3115 370.859ZM28.779 368.302H30.0794V365.077H31.8536V363.994H30.0794V360.91H28.779V368.302ZM42.0487 360.91H40.7531V370.487H42.0487V366.194H43.7939V365.106H42.0487V360.91ZM32.327 368.108L32.472 369.143C34.6039 369.124 37.5528 369.085 40.1585 368.597L40.057 367.678C39.0321 367.838 37.9251 367.939 36.8277 368.002V367.209C38.2103 367.04 39.0756 366.373 39.0853 365.367C39.0756 364.178 37.9251 363.468 36.1654 363.477C34.4106 363.468 33.2455 364.178 33.2552 365.367C33.2455 366.378 34.135 367.05 35.5321 367.209V368.06C34.3767 368.099 33.2697 368.108 32.327 368.108ZM32.6412 363.008H39.7089V362.046H36.8277V360.872H35.5321V362.046H32.6412V363.008ZM34.1254 372.909H42.4886V371.845H35.4306V369.844H34.1254V372.909ZM34.4928 365.367C34.4879 364.734 35.126 364.367 36.1654 364.367C37.2048 364.367 37.8429 364.734 37.8429 365.367C37.8429 365.967 37.2048 366.339 36.1654 366.339C35.126 366.339 34.4879 365.967 34.4928 365.367ZM58.1854 360.91H56.9382V373.16H58.1854V360.91ZM47.787 366.199C47.787 368.863 48.8263 370.53 50.4216 370.526C51.4658 370.53 52.278 369.829 52.7179 368.611H54.4969V372.556H55.7248V361.147H54.4969V363.796H52.7179C52.2732 362.588 51.4658 361.892 50.4216 361.892C48.8263 361.892 47.787 363.55 47.787 366.199ZM48.981 366.199C48.9714 364.251 49.5176 363.11 50.4216 363.11C51.3256 363.11 51.9009 364.251 51.9009 366.199C51.9009 368.152 51.3305 369.298 50.4216 369.288C49.5176 369.298 48.9714 368.152 48.981 366.199ZM52.9886 364.855H54.4969V367.538H52.9935C53.0563 367.127 53.095 366.677 53.095 366.199C53.095 365.715 53.0563 365.266 52.9886 364.855ZM69.8212 360.91H68.5256V364.033H66.239V365.102H68.5256V368.2H69.8212V360.91ZM59.616 367.098L60.288 368.128C61.7528 367.591 62.826 366.494 63.3626 365.126C63.8944 366.334 64.9047 367.316 66.2825 367.794L66.9448 366.76C65.0981 366.136 63.9911 364.628 63.9911 363.076V362.815H66.6306V361.756H60.0173V362.815H62.6761V363.086C62.6761 364.778 61.5111 366.431 59.616 367.098ZM61.5788 370.854C61.5691 372.309 63.1451 373.151 65.7169 373.16C68.2839 373.151 69.855 372.309 69.8598 370.854C69.855 369.394 68.2839 368.544 65.7169 368.544C63.1451 368.544 61.5691 369.394 61.5788 370.854ZM62.8647 370.854C62.855 370.023 63.9234 369.549 65.7169 369.549C67.5056 369.549 68.5691 370.023 68.5739 370.854C68.5691 371.676 67.5056 372.15 65.7169 372.14C63.9234 372.15 62.855 371.676 62.8647 370.854Z" fill="#101828"/>
<path d="M76.8203 372H83.6973V370.51H79.2949V370.441L81.0586 368.691C83.0068 366.853 83.54 365.95 83.5469 364.836C83.54 363.175 82.1797 361.965 80.1562 361.965C78.1807 361.965 76.7725 363.182 76.7793 365.055H78.4746C78.4678 364.05 79.124 363.414 80.1426 363.414C81.1064 363.414 81.8379 363.995 81.8379 364.918C81.8379 365.752 81.3184 366.34 80.3203 367.338L76.8203 370.715V372Z" fill="#0046CF"/>
<path d="M265.727 367.188H260.778V365.779H259.492V367.188H254.557V368.24H265.727V367.188ZM255.145 365.383L255.555 366.381C257.66 366.183 259.369 365.472 260.135 364.33C260.894 365.472 262.61 366.183 264.729 366.381L265.125 365.383C262.692 365.185 261.003 364.296 260.86 363.113H264.606V362.074H260.778V360.898H259.492V362.074H255.678V363.113H259.41C259.253 364.296 257.572 365.185 255.145 365.383ZM255.883 371.098C255.883 372.424 257.455 373.142 260.135 373.135C262.801 373.142 264.353 372.424 264.36 371.098C264.353 369.771 262.801 369.047 260.135 369.047C257.455 369.047 255.883 369.771 255.883 371.098ZM257.196 371.098C257.189 370.4 258.241 370.018 260.135 370.018C262.001 370.018 263.061 370.4 263.061 371.098C263.061 371.795 262.001 372.164 260.135 372.15C258.241 372.164 257.189 371.795 257.196 371.098ZM270.218 372H276.876V370.715H272.31V370.633L274.32 368.596C276.179 366.771 276.699 365.889 276.712 364.781C276.699 363.175 275.379 361.965 273.472 361.965C271.585 361.965 270.205 363.161 270.218 364.973H271.64C271.647 363.92 272.344 363.223 273.445 363.223C274.484 363.223 275.277 363.845 275.277 364.822C275.277 365.69 274.737 366.319 273.65 367.447L270.218 370.906V372ZM281.85 372.137C284.14 372.137 285.48 370.291 285.486 367.051C285.48 363.831 284.119 361.965 281.85 361.965C279.573 361.965 278.213 363.831 278.213 367.051C278.213 370.291 279.56 372.137 281.85 372.137ZM279.717 367.051C279.717 364.59 280.517 363.243 281.85 363.236C283.176 363.243 283.983 364.59 283.983 367.051C283.983 369.519 283.183 370.838 281.85 370.838C280.51 370.838 279.71 369.519 279.717 367.051ZM290.35 372.137C292.64 372.137 293.98 370.291 293.987 367.051C293.98 363.831 292.62 361.965 290.35 361.965C288.074 361.965 286.714 363.831 286.714 367.051C286.714 370.291 288.06 372.137 290.35 372.137ZM288.218 367.051C288.218 364.59 289.017 363.243 290.35 363.236C291.677 363.243 292.483 364.59 292.483 367.051C292.483 369.519 291.683 370.838 290.35 370.838C289.011 370.838 288.211 369.519 288.218 367.051ZM296.814 371.057H295.283L294.558 374.83H295.72L296.814 371.057ZM301.719 372.137C304.009 372.137 305.349 370.291 305.356 367.051C305.349 363.831 303.988 361.965 301.719 361.965C299.442 361.965 298.082 363.831 298.082 367.051C298.082 370.291 299.429 372.137 301.719 372.137ZM299.586 367.051C299.586 364.59 300.386 363.243 301.719 363.236C303.045 363.243 303.852 364.59 303.852 367.051C303.852 369.519 303.052 370.838 301.719 370.838C300.379 370.838 299.579 369.519 299.586 367.051ZM310.219 372.137C312.509 372.137 313.849 370.291 313.856 367.051C313.849 363.831 312.489 361.965 310.219 361.965C307.943 361.965 306.583 363.831 306.583 367.051C306.583 370.291 307.929 372.137 310.219 372.137ZM308.087 367.051C308.087 364.59 308.886 363.243 310.219 363.236C311.546 363.243 312.352 364.59 312.352 367.051C312.352 369.519 311.552 370.838 310.219 370.838C308.88 370.838 308.08 369.519 308.087 367.051ZM318.72 372.137C321.01 372.137 322.35 370.291 322.357 367.051C322.35 363.831 320.99 361.965 318.72 361.965C316.444 361.965 315.083 363.831 315.083 367.051C315.083 370.291 316.43 372.137 318.72 372.137ZM316.587 367.051C316.587 364.59 317.387 363.243 318.72 363.236C320.046 363.243 320.853 364.59 320.853 367.051C320.853 369.519 320.053 370.838 318.72 370.838C317.38 370.838 316.58 369.519 316.587 367.051ZM333.537 360.926H332.238V368.117H329.777V369.033H332.238V370.209H333.537V360.926ZM323.297 366.518L323.461 367.557C324.452 367.557 325.594 367.557 326.783 367.509V369.826H328.082V367.44C329.162 367.365 330.263 367.256 331.309 367.078L331.227 366.148C328.615 366.477 325.56 366.497 323.297 366.518ZM324.254 363.551C324.247 364.856 325.491 365.684 327.303 365.684C329.094 365.684 330.338 364.856 330.338 363.551C330.338 362.252 329.094 361.391 327.303 361.391C325.484 361.391 324.247 362.252 324.254 363.551ZM324.992 372.902H333.838V371.85H326.277V369.307H324.992V372.902ZM325.484 363.551C325.478 362.819 326.216 362.348 327.303 362.361C328.349 362.348 329.101 362.819 329.107 363.551C329.101 364.275 328.349 364.727 327.303 364.727C326.216 364.727 325.478 364.275 325.484 363.551Z" fill="#667085"/>
<path d="M20 404C20 395.163 27.1634 388 36 388H339C347.837 388 355 395.163 355 404V452C355 460.837 347.837 468 339 468H36C27.1634 468 20 460.837 20 452V404Z" fill="#F2F4F7"/>
<path d="M46.8906 421C43.8125 420.992 42.0859 421.734 42.0938 423.141C42.0859 424.516 43.8125 425.234 46.8906 425.234C49.9375 425.234 51.6562 424.516 51.6719 423.141C51.6562 421.734 49.9375 420.992 46.8906 421ZM40.5625 420.125H53.2188V419.141H47.5V418.055C49.9922 417.961 51.3906 417.289 51.3906 416.094C51.3906 414.773 49.7656 414.102 46.8906 414.094C44.0078 414.102 42.375 414.773 42.375 416.094C42.375 417.289 43.7812 417.961 46.2812 418.055V419.141H40.5625V420.125ZM41.2188 413.531H52.4844V412.547H47.5V411.188H46.2812V412.547H41.2188V413.531ZM43.3438 423.141C43.3516 422.352 44.6328 421.922 46.8906 421.922C49.1406 421.922 50.4219 422.352 50.4219 423.141C50.4219 423.898 49.1406 424.32 46.8906 424.312C44.6328 424.32 43.3516 423.898 43.3438 423.141ZM43.6875 416.094C43.6797 415.359 44.8516 414.961 46.8906 414.969C48.9297 414.961 50.0859 415.359 50.0938 416.094C50.0859 416.781 48.9297 417.18 46.8906 417.188C44.8516 417.18 43.6797 416.781 43.6875 416.094ZM65.6994 411.375H64.4806V418.484H65.6994V411.375ZM54.465 417.75L54.9181 418.781C59.0275 417.82 61.5353 415.609 61.5431 412.062H55.1681V413.078H60.1994C59.9806 415.312 57.9494 416.977 54.465 417.75ZM56.6681 420.125H64.4806V421.562H56.6994V425.141H66.1994V424.156H57.9181V422.5H65.6994V419.141H56.6681V420.125ZM80.5706 418.25H74.8206V416.625H79.0863V415.625H70.7113V413.016H78.9925V412.031H69.5081V416.625H73.6331V418.25H67.8988V419.234H80.5706V418.25ZM69.43 422.75C69.4222 424.352 71.2269 425.25 74.2269 425.266C77.2034 425.25 78.9925 424.352 79.0081 422.75C78.9925 421.164 77.2034 420.258 74.2269 420.25C71.2269 420.258 69.4222 421.164 69.43 422.75ZM70.68 422.75C70.6644 421.789 72.0003 421.219 74.2269 421.219C76.43 421.219 77.7659 421.789 77.7738 422.75C77.7659 423.727 76.43 424.289 74.2269 424.281C72.0003 424.289 70.6644 423.727 70.68 422.75Z" fill="black"/>
<path d="M269.37 412.688H267.948L265.136 414.562V415.984L267.886 414.156H267.948V424H269.37V412.688ZM275.929 424.156C278.437 424.156 279.882 422.047 279.882 418.344C279.882 414.672 278.413 412.531 275.929 412.531C273.437 412.531 271.968 414.672 271.976 418.344C271.968 422.047 273.421 424.156 275.929 424.156ZM273.335 418.344C273.343 415.414 274.304 413.758 275.929 413.75C277.554 413.758 278.515 415.414 278.507 418.344C278.515 421.273 277.562 422.906 275.929 422.906C274.288 422.906 273.343 421.273 273.335 418.344ZM285.3 424.156C287.808 424.156 289.253 422.047 289.253 418.344C289.253 414.672 287.784 412.531 285.3 412.531C282.808 412.531 281.339 414.672 281.347 418.344C281.339 422.047 282.792 424.156 285.3 424.156ZM282.706 418.344C282.714 415.414 283.675 413.758 285.3 413.75C286.925 413.758 287.886 415.414 287.878 418.344C287.886 421.273 286.933 422.906 285.3 422.906C283.659 422.906 282.714 421.273 282.706 418.344ZM292.343 422.953H290.828L289.968 427.203H291.124L292.343 422.953ZM297.824 424.156C300.332 424.156 301.777 422.047 301.777 418.344C301.777 414.672 300.308 412.531 297.824 412.531C295.332 412.531 293.863 414.672 293.871 418.344C293.863 422.047 295.316 424.156 297.824 424.156ZM295.23 418.344C295.238 415.414 296.199 413.758 297.824 413.75C299.449 413.758 300.41 415.414 300.402 418.344C300.41 421.273 299.457 422.906 297.824 422.906C296.183 422.906 295.238 421.273 295.23 418.344ZM307.195 424.156C309.703 424.156 311.148 422.047 311.148 418.344C311.148 414.672 309.679 412.531 307.195 412.531C304.703 412.531 303.234 414.672 303.242 418.344C303.234 422.047 304.687 424.156 307.195 424.156ZM304.601 418.344C304.609 415.414 305.57 413.758 307.195 413.75C308.82 413.758 309.781 415.414 309.773 418.344C309.781 421.273 308.828 422.906 307.195 422.906C305.554 422.906 304.609 421.273 304.601 418.344ZM316.566 424.156C319.074 424.156 320.519 422.047 320.519 418.344C320.519 414.672 319.051 412.531 316.566 412.531C314.074 412.531 312.605 414.672 312.613 418.344C312.605 422.047 314.058 424.156 316.566 424.156ZM313.973 418.344C313.98 415.414 314.941 413.758 316.566 413.75C318.191 413.758 319.152 415.414 319.144 418.344C319.152 421.273 318.199 422.906 316.566 422.906C314.926 422.906 313.98 421.273 313.973 418.344ZM333.188 411.391H331.953V419.609H329.078V420.5H331.953V421.938H333.188V411.391ZM321.656 417.828L321.828 418.828C322.992 418.828 324.328 418.828 325.734 418.773V421.453H326.969V418.711C328.242 418.633 329.547 418.508 330.781 418.312L330.703 417.422C327.727 417.789 324.242 417.812 321.656 417.828ZM322.781 414.375C322.773 415.859 324.164 416.781 326.219 416.781C328.258 416.781 329.648 415.859 329.656 414.375C329.648 412.914 328.258 411.953 326.219 411.953C324.164 411.953 322.773 412.914 322.781 414.375ZM323.656 424.969H333.531V423.938H324.891V420.906H323.656V424.969ZM323.953 414.375C323.938 413.484 324.859 412.875 326.219 412.891C327.539 412.875 328.477 413.484 328.484 414.375C328.477 415.281 327.539 415.867 326.219 415.875C324.859 415.867 323.938 415.281 323.953 414.375Z" fill="black"/>
<path d="M48 434.667L42 437.334V441.334C42 445.034 44.56 448.494 48 449.334C51.44 448.494 54 445.034 54 441.334V437.334L48 434.667ZM46.6667 445.334L44 442.667L44.94 441.727L46.6667 443.447L51.06 439.054L52 440L46.6667 445.334Z" fill="#0046CF"/>
<path d="M69.1416 441.972H65.2422V440.951H68.1211V440.135H62.46V438.534H68.0566V437.729H61.4502V440.951H64.2539V441.972H60.3545V442.788H69.1416V441.972ZM61.3965 445.162C61.3965 446.279 62.6479 446.908 64.7373 446.913C66.8105 446.908 68.0513 446.279 68.0566 445.162C68.0513 444.045 66.8105 443.417 64.7373 443.411C62.6479 443.417 61.3965 444.045 61.3965 445.162ZM62.4277 445.162C62.4224 444.555 63.2656 444.206 64.7373 444.206C66.1875 444.206 67.0361 444.555 67.0361 445.162C67.0361 445.78 66.1875 446.118 64.7373 446.107C63.2656 446.118 62.4224 445.78 62.4277 445.162ZM72.888 437.976C71.3734 437.97 70.2616 438.91 70.267 440.264C70.2616 441.617 71.3734 442.557 72.888 442.562C74.4081 442.557 75.5038 441.617 75.5091 440.264C75.5038 438.91 74.4081 437.97 72.888 437.976ZM69.805 444.013L69.9339 444.861C71.6527 444.861 73.9891 444.851 76.1644 444.432L76.0892 443.69C73.9838 443.997 71.556 444.013 69.805 444.013ZM71.2767 440.264C71.266 439.42 71.9535 438.856 72.888 438.856C73.8226 438.856 74.5101 439.42 74.5101 440.264C74.5101 441.118 73.8226 441.671 72.888 441.671C71.9535 441.671 71.266 441.118 71.2767 440.264ZM76.6908 446.935H77.7113V437.288H76.6908V446.935ZM86.7107 437.288H85.6902V443.089H86.7107V440.65H88.1071V439.78H86.7107V437.288ZM79.1589 439.082H84.8952V438.266H82.5427V437.213H81.5222V438.266H79.1589V439.082ZM79.6853 441.22C79.6799 442.262 80.6252 442.944 82.0271 442.949C83.4128 442.944 84.3581 442.262 84.3581 441.22C84.3581 440.194 83.4182 439.501 82.0271 439.501C80.6252 439.501 79.6799 440.194 79.6853 441.22ZM80.5661 446.795H86.7107V443.594H80.5661V446.795ZM80.6736 441.22C80.6628 440.645 81.2107 440.28 82.0271 440.285C82.8435 440.28 83.3913 440.645 83.4021 441.22C83.3913 441.816 82.8435 442.17 82.0271 442.176C81.2107 442.17 80.6628 441.816 80.6736 441.22ZM81.5652 445.968V444.399H85.7009V445.968H81.5652Z" fill="#667085"/>
<path d="M254.91 438.824V437.793H253.9V438.738C253.889 440.178 253.019 441.461 251.515 441.993L252.063 442.81C253.185 442.396 254.002 441.547 254.421 440.468C254.84 441.418 255.629 442.17 256.682 442.541L257.23 441.735C255.796 441.263 254.904 440.086 254.91 438.824ZM252.815 445.108C252.815 446.247 254.045 446.897 256.048 446.892C258.025 446.897 259.239 446.247 259.239 445.108C259.239 443.98 258.025 443.32 256.048 443.325C254.045 443.32 252.815 443.98 252.815 445.108ZM253.835 445.108C253.83 444.496 254.657 444.131 256.048 444.131C257.429 444.131 258.245 444.496 258.24 445.108C258.245 445.742 257.429 446.086 256.048 446.097C254.657 446.086 253.83 445.742 253.835 445.108ZM258.132 443.1H259.153V440.564H260.549V439.705H259.153V437.288H258.132V443.1ZM268.56 437.288H267.54V444.808H268.56V441.435H269.935V440.586H268.56V437.288ZM260.923 442.938L261.03 443.755C262.711 443.739 265.026 443.712 267.078 443.325L266.992 442.605C266.186 442.729 265.316 442.81 264.457 442.858V442.229C265.542 442.106 266.224 441.58 266.229 440.79C266.224 439.855 265.322 439.297 263.941 439.308C262.561 439.297 261.642 439.855 261.653 440.79C261.642 441.58 262.341 442.106 263.436 442.235V442.906C262.529 442.938 261.664 442.938 260.923 442.938ZM261.17 438.932H266.723V438.18H264.457V437.256H263.436V438.18H261.17V438.932ZM262.341 446.709H268.904V445.882H263.361V444.303H262.341V446.709ZM262.62 440.79C262.62 440.291 263.119 440 263.941 440.006C264.752 440 265.257 440.291 265.252 440.79C265.257 441.257 264.752 441.553 263.941 441.553C263.119 441.553 262.62 441.257 262.62 440.79ZM273.112 437.61C271.646 437.621 270.583 438.507 270.577 439.77C270.583 441.037 271.646 441.918 273.112 441.918C274.563 441.918 275.631 441.037 275.637 439.77C275.631 438.507 274.563 437.621 273.112 437.61ZM271.576 439.77C271.571 438.985 272.226 438.459 273.112 438.47C273.993 438.459 274.649 438.985 274.649 439.77C274.649 440.564 273.993 441.091 273.112 441.091C272.226 441.091 271.571 440.564 271.576 439.77ZM272.038 443.443H277.356V444.292H272.07V446.795H278.688V445.979H273.059V445.055H278.365V442.627H272.038V443.443ZM277.345 442.187H278.365V437.288H277.345V442.187ZM287.429 437.288H286.409V446.913H287.429V442.036H288.826V441.198H287.429V437.288ZM279.695 444.206L280.5 444.775C282.246 442.917 282.676 440.726 282.681 438.319H280.039V439.157H281.714C281.612 441.085 281.102 442.74 279.695 444.206ZM282.445 444.851L283.261 445.409C285.028 443.32 285.334 440.752 285.334 438.319H282.993V439.157H284.373C284.298 441.209 283.879 443.175 282.445 444.851ZM292.722 440.124V439.104H294.914V438.255H289.489V439.104H291.691V440.124C291.681 441.784 290.606 443.588 289.156 444.271L289.747 445.076C290.869 444.528 291.772 443.357 292.218 441.982C292.663 443.266 293.566 444.33 294.699 444.829L295.258 444.034C293.775 443.4 292.717 441.735 292.722 440.124ZM296.128 446.913H297.148V437.288H296.128V446.913ZM304.115 446C306.483 446 307.848 444.528 307.853 442.101C307.848 439.678 306.483 438.223 304.19 438.223H301.59V446H304.115ZM302.772 444.969V439.254H304.115C305.812 439.254 306.682 440.269 306.682 442.101C306.682 443.938 305.812 444.963 304.05 444.969H302.772ZM312.416 442.219H308.968V443.207H312.416V442.219ZM316.635 438.223H315.475L313.541 439.49V440.618L315.4 439.404H315.443V446H316.635V438.223ZM321.209 446.107C323.008 446.107 324.061 444.657 324.066 442.111C324.061 439.582 322.992 438.115 321.209 438.115C319.42 438.115 318.351 439.582 318.351 442.111C318.351 444.657 319.409 446.107 321.209 446.107ZM319.533 442.111C319.533 440.178 320.161 439.12 321.209 439.114C322.251 439.12 322.884 440.178 322.884 442.111C322.884 444.05 322.256 445.087 321.209 445.087C320.156 445.087 319.527 444.05 319.533 442.111ZM327.576 437.61C326.11 437.621 325.046 438.507 325.041 439.77C325.046 441.037 326.11 441.918 327.576 441.918C329.026 441.918 330.095 441.037 330.101 439.77C330.095 438.507 329.026 437.621 327.576 437.61ZM326.04 439.77C326.035 438.985 326.69 438.459 327.576 438.47C328.457 438.459 329.112 438.985 329.112 439.77C329.112 440.564 328.457 441.091 327.576 441.091C326.69 441.091 326.035 440.564 326.04 439.77ZM326.502 443.443H331.819V444.292H326.534V446.795H333.151V445.979H327.522V445.055H332.829V442.627H326.502V443.443ZM331.809 442.187H332.829V437.288H331.809V442.187Z" fill="#667085"/>
<path d="M20 496C20 487.163 27.1634 480 36 480H339C347.837 480 355 487.163 355 496V544C355 552.837 347.837 560 339 560H36C27.1634 560 20 552.837 20 544V496Z" fill="#F2F4F7"/>
<path d="M46.8906 513C43.8125 512.992 42.0859 513.734 42.0938 515.141C42.0859 516.516 43.8125 517.234 46.8906 517.234C49.9375 517.234 51.6562 516.516 51.6719 515.141C51.6562 513.734 49.9375 512.992 46.8906 513ZM40.5625 512.125H53.2188V511.141H47.5V510.055C49.9922 509.961 51.3906 509.289 51.3906 508.094C51.3906 506.773 49.7656 506.102 46.8906 506.094C44.0078 506.102 42.375 506.773 42.375 508.094C42.375 509.289 43.7812 509.961 46.2812 510.055V511.141H40.5625V512.125ZM41.2188 505.531H52.4844V504.547H47.5V503.188H46.2812V504.547H41.2188V505.531ZM43.3438 515.141C43.3516 514.352 44.6328 513.922 46.8906 513.922C49.1406 513.922 50.4219 514.352 50.4219 515.141C50.4219 515.898 49.1406 516.32 46.8906 516.312C44.6328 516.32 43.3516 515.898 43.3438 515.141ZM43.6875 508.094C43.6797 507.359 44.8516 506.961 46.8906 506.969C48.9297 506.961 50.0859 507.359 50.0938 508.094C50.0859 508.781 48.9297 509.18 46.8906 509.188C44.8516 509.18 43.6797 508.781 43.6875 508.094ZM65.6994 503.375H64.4806V510.484H65.6994V503.375ZM54.465 509.75L54.9181 510.781C59.0275 509.82 61.5353 507.609 61.5431 504.062H55.1681V505.078H60.1994C59.9806 507.312 57.9494 508.977 54.465 509.75ZM56.6681 512.125H64.4806V513.562H56.6994V517.141H66.1994V516.156H57.9181V514.5H65.6994V511.141H56.6681V512.125ZM80.5706 510.25H74.8206V508.625H79.0863V507.625H70.7113V505.016H78.9925V504.031H69.5081V508.625H73.6331V510.25H67.8988V511.234H80.5706V510.25ZM69.43 514.75C69.4222 516.352 71.2269 517.25 74.2269 517.266C77.2034 517.25 78.9925 516.352 79.0081 514.75C78.9925 513.164 77.2034 512.258 74.2269 512.25C71.2269 512.258 69.4222 513.164 69.43 514.75ZM70.68 514.75C70.6644 513.789 72.0003 513.219 74.2269 513.219C76.43 513.219 77.7659 513.789 77.7738 514.75C77.7659 515.727 76.43 516.289 74.2269 516.281C72.0003 516.289 70.6644 515.727 70.68 514.75Z" fill="black"/>
<path d="M269.37 504.688H267.948L265.136 506.562V507.984L267.886 506.156H267.948V516H269.37V504.688ZM275.929 516.156C278.437 516.156 279.882 514.047 279.882 510.344C279.882 506.672 278.413 504.531 275.929 504.531C273.437 504.531 271.968 506.672 271.976 510.344C271.968 514.047 273.421 516.156 275.929 516.156ZM273.335 510.344C273.343 507.414 274.304 505.758 275.929 505.75C277.554 505.758 278.515 507.414 278.507 510.344C278.515 513.273 277.562 514.906 275.929 514.906C274.288 514.906 273.343 513.273 273.335 510.344ZM285.3 516.156C287.808 516.156 289.253 514.047 289.253 510.344C289.253 506.672 287.784 504.531 285.3 504.531C282.808 504.531 281.339 506.672 281.347 510.344C281.339 514.047 282.792 516.156 285.3 516.156ZM282.706 510.344C282.714 507.414 283.675 505.758 285.3 505.75C286.925 505.758 287.886 507.414 287.878 510.344C287.886 513.273 286.933 514.906 285.3 514.906C283.659 514.906 282.714 513.273 282.706 510.344ZM292.343 514.953H290.828L289.968 519.203H291.124L292.343 514.953ZM297.824 516.156C300.332 516.156 301.777 514.047 301.777 510.344C301.777 506.672 300.308 504.531 297.824 504.531C295.332 504.531 293.863 506.672 293.871 510.344C293.863 514.047 295.316 516.156 297.824 516.156ZM295.23 510.344C295.238 507.414 296.199 505.758 297.824 505.75C299.449 505.758 300.41 507.414 300.402 510.344C300.41 513.273 299.457 514.906 297.824 514.906C296.183 514.906 295.238 513.273 295.23 510.344ZM307.195 516.156C309.703 516.156 311.148 514.047 311.148 510.344C311.148 506.672 309.679 504.531 307.195 504.531C304.703 504.531 303.234 506.672 303.242 510.344C303.234 514.047 304.687 516.156 307.195 516.156ZM304.601 510.344C304.609 507.414 305.57 505.758 307.195 505.75C308.82 505.758 309.781 507.414 309.773 510.344C309.781 513.273 308.828 514.906 307.195 514.906C305.554 514.906 304.609 513.273 304.601 510.344ZM316.566 516.156C319.074 516.156 320.519 514.047 320.519 510.344C320.519 506.672 319.051 504.531 316.566 504.531C314.074 504.531 312.605 506.672 312.613 510.344C312.605 514.047 314.058 516.156 316.566 516.156ZM313.973 510.344C313.98 507.414 314.941 505.758 316.566 505.75C318.191 505.758 319.152 507.414 319.144 510.344C319.152 513.273 318.199 514.906 316.566 514.906C314.926 514.906 313.98 513.273 313.973 510.344ZM333.188 503.391H331.953V511.609H329.078V512.5H331.953V513.938H333.188V503.391ZM321.656 509.828L321.828 510.828C322.992 510.828 324.328 510.828 325.734 510.773V513.453H326.969V510.711C328.242 510.633 329.547 510.508 330.781 510.312L330.703 509.422C327.727 509.789 324.242 509.812 321.656 509.828ZM322.781 506.375C322.773 507.859 324.164 508.781 326.219 508.781C328.258 508.781 329.648 507.859 329.656 506.375C329.648 504.914 328.258 503.953 326.219 503.953C324.164 503.953 322.773 504.914 322.781 506.375ZM323.656 516.969H333.531V515.938H324.891V512.906H323.656V516.969ZM323.953 506.375C323.938 505.484 324.859 504.875 326.219 504.891C327.539 504.875 328.477 505.484 328.484 506.375C328.477 507.281 327.539 507.867 326.219 507.875C324.859 507.867 323.938 507.281 323.953 506.375Z" fill="black"/>
<path d="M48 526.667L42 529.334V533.334C42 537.034 44.56 540.494 48 541.334C51.44 540.494 54 537.034 54 533.334V529.334L48 526.667ZM46.6667 537.334L44 534.667L44.94 533.727L46.6667 535.447L51.06 531.054L52 532L46.6667 537.334Z" fill="#D0D5DD"/>
<path d="M69.1416 533.972H65.2422V532.951H68.1211V532.135H62.46V530.534H68.0566V529.729H61.4502V532.951H64.2539V533.972H60.3545V534.788H69.1416V533.972ZM61.3965 537.162C61.3965 538.279 62.6479 538.908 64.7373 538.913C66.8105 538.908 68.0513 538.279 68.0566 537.162C68.0513 536.045 66.8105 535.417 64.7373 535.411C62.6479 535.417 61.3965 536.045 61.3965 537.162ZM62.4277 537.162C62.4224 536.555 63.2656 536.206 64.7373 536.206C66.1875 536.206 67.0361 536.555 67.0361 537.162C67.0361 537.78 66.1875 538.118 64.7373 538.107C63.2656 538.118 62.4224 537.78 62.4277 537.162ZM72.888 529.976C71.3734 529.97 70.2616 530.91 70.267 532.264C70.2616 533.617 71.3734 534.557 72.888 534.562C74.4081 534.557 75.5038 533.617 75.5091 532.264C75.5038 530.91 74.4081 529.97 72.888 529.976ZM69.805 536.013L69.9339 536.861C71.6527 536.861 73.9891 536.851 76.1644 536.432L76.0892 535.69C73.9838 535.997 71.556 536.013 69.805 536.013ZM71.2767 532.264C71.266 531.42 71.9535 530.856 72.888 530.856C73.8226 530.856 74.5101 531.42 74.5101 532.264C74.5101 533.118 73.8226 533.671 72.888 533.671C71.9535 533.671 71.266 533.118 71.2767 532.264ZM76.6908 538.935H77.7113V529.288H76.6908V538.935ZM89.9845 529.288H89.0069V533.102H87.7608V529.481H86.8263V538.419H87.7608V533.939H89.0069V538.913H89.9845V529.288ZM82.046 536.604H82.6905C84.0924 536.593 85.0914 536.555 86.2462 536.313L86.171 535.476C85.1397 535.674 84.2481 535.728 83.0665 535.733V531.275H85.6554V530.448H82.046V536.604ZM99.1235 529.288H98.0922V538.913H99.1235V529.288ZM91.2172 536.335L91.7543 537.162C95.0576 535.578 96.2553 533.139 96.2553 530.319H91.6791V531.136H95.2241C95.0253 533.381 93.7739 535.116 91.2172 536.335ZM109.294 533.746H100.517V534.573H104.395V535.497C102.607 535.588 101.559 536.185 101.559 537.194C101.559 538.285 102.805 538.897 104.9 538.892C106.968 538.897 108.214 538.285 108.22 537.194C108.214 536.185 107.167 535.594 105.405 535.497V534.573H109.294V533.746ZM100.979 532.436L101.334 533.241C103.004 533.048 104.374 532.344 104.906 531.324C105.427 532.344 106.807 533.048 108.477 533.241L108.843 532.436C107.081 532.258 105.727 531.479 105.588 530.545H108.51V529.729H101.323V530.545H104.213C104.073 531.474 102.709 532.258 100.979 532.436ZM102.591 537.194C102.585 536.598 103.429 536.276 104.9 536.271C106.35 536.276 107.199 536.598 107.199 537.194C107.199 537.78 106.35 538.118 104.9 538.107C103.429 538.118 102.585 537.78 102.591 537.194Z" fill="#667085"/>
<path d="M253.287 530.824V529.793H252.278V530.738C252.267 532.178 251.397 533.461 249.893 533.993L250.441 534.81C251.563 534.396 252.38 533.547 252.799 532.468C253.218 533.418 254.007 534.17 255.06 534.541L255.608 533.735C254.174 533.263 253.282 532.086 253.287 530.824ZM251.193 537.108C251.193 538.247 252.423 538.897 254.426 538.892C256.403 538.897 257.617 538.247 257.617 537.108C257.617 535.98 256.403 535.32 254.426 535.325C252.423 535.32 251.193 535.98 251.193 537.108ZM252.213 537.108C252.208 536.496 253.035 536.131 254.426 536.131C255.807 536.131 256.623 536.496 256.618 537.108C256.623 537.742 255.807 538.086 254.426 538.097C253.035 538.086 252.208 537.742 252.213 537.108ZM256.51 535.1H257.531V532.564H258.927V531.705H257.531V529.288H256.51V535.1ZM266.938 529.288H265.918V536.808H266.938V533.435H268.313V532.586H266.938V529.288ZM259.301 534.938L259.408 535.755C261.089 535.739 263.404 535.712 265.456 535.325L265.37 534.605C264.564 534.729 263.694 534.81 262.835 534.858V534.229C263.92 534.106 264.602 533.58 264.607 532.79C264.602 531.855 263.699 531.297 262.319 531.308C260.939 531.297 260.02 531.855 260.031 532.79C260.02 533.58 260.719 534.106 261.814 534.235V534.906C260.907 534.938 260.042 534.938 259.301 534.938ZM259.548 530.932H265.101V530.18H262.835V529.256H261.814V530.18H259.548V530.932ZM260.719 538.709H267.282V537.882H261.739V536.303H260.719V538.709ZM260.998 532.79C260.998 532.291 261.497 532 262.319 532.006C263.13 532 263.635 532.291 263.63 532.79C263.635 533.257 263.13 533.553 262.319 533.553C261.497 533.553 260.998 533.257 260.998 532.79ZM271.49 529.61C270.024 529.621 268.961 530.507 268.955 531.77C268.961 533.037 270.024 533.918 271.49 533.918C272.941 533.918 274.009 533.037 274.015 531.77C274.009 530.507 272.941 529.621 271.49 529.61ZM269.954 531.77C269.949 530.985 270.604 530.459 271.49 530.47C272.371 530.459 273.026 530.985 273.026 531.77C273.026 532.564 272.371 533.091 271.49 533.091C270.604 533.091 269.949 532.564 269.954 531.77ZM270.416 535.443H275.734V536.292H270.448V538.795H277.066V537.979H271.437V537.055H276.743V534.627H270.416V535.443ZM275.723 534.187H276.743V529.288H275.723V534.187ZM285.807 529.288H284.787V538.913H285.807V534.036H287.204V533.198H285.807V529.288ZM278.073 536.206L278.878 536.775C280.624 534.917 281.054 532.726 281.059 530.319H278.416V531.157H280.092C279.99 533.085 279.48 534.74 278.073 536.206ZM280.823 536.851L281.639 537.409C283.406 535.32 283.712 532.752 283.712 530.319H281.371V531.157H282.751C282.676 533.209 282.257 535.175 280.823 536.851ZM291.1 532.124V531.104H293.292V530.255H287.867V531.104H290.069V532.124C290.058 533.784 288.984 535.588 287.534 536.271L288.125 537.076C289.247 536.528 290.15 535.357 290.596 533.982C291.041 535.266 291.944 536.33 293.077 536.829L293.636 536.034C292.153 535.4 291.095 533.735 291.1 532.124ZM294.506 538.913H295.526V529.288H294.506V538.913ZM302.493 538C304.861 538 306.226 536.528 306.231 534.101C306.226 531.678 304.861 530.223 302.568 530.223H299.968V538H302.493ZM301.15 536.969V531.254H302.493C304.19 531.254 305.06 532.269 305.06 534.101C305.06 535.938 304.19 536.963 302.428 536.969H301.15ZM310.794 534.219H307.346V535.207H310.794V534.219ZM314.701 538.107C316.324 538.107 317.473 537.006 317.473 535.476C317.473 533.977 316.393 532.892 314.927 532.887C314.336 532.892 313.788 533.102 313.466 533.413H313.391L313.649 531.232H317.075V530.223H312.671L312.166 534.552H313.283C313.547 534.074 314.025 533.864 314.648 533.864C315.625 533.875 316.324 534.562 316.324 535.508C316.324 536.432 315.647 537.114 314.701 537.119C313.917 537.114 313.283 536.63 313.219 535.97H312.07C312.123 537.21 313.23 538.107 314.701 538.107ZM321.262 538.107C322.884 538.107 324.034 537.006 324.034 535.476C324.034 533.977 322.954 532.892 321.488 532.887C320.897 532.892 320.349 533.102 320.027 533.413H319.952L320.21 531.232H323.636V530.223H319.232L318.727 534.552H319.844C320.108 534.074 320.586 533.864 321.209 533.864C322.186 533.875 322.884 534.562 322.884 535.508C322.884 536.432 322.208 537.114 321.262 537.119C320.478 537.114 319.844 536.63 319.78 535.97H318.631C318.684 537.21 319.791 538.107 321.262 538.107ZM327.576 529.61C326.11 529.621 325.046 530.507 325.041 531.77C325.046 533.037 326.11 533.918 327.576 533.918C329.026 533.918 330.095 533.037 330.101 531.77C330.095 530.507 329.026 529.621 327.576 529.61ZM326.04 531.77C326.035 530.985 326.69 530.459 327.576 530.47C328.457 530.459 329.112 530.985 329.112 531.77C329.112 532.564 328.457 533.091 327.576 533.091C326.69 533.091 326.035 532.564 326.04 531.77ZM326.502 535.443H331.819V536.292H326.534V538.795H333.151V537.979H327.522V537.055H332.829V534.627H326.502V535.443ZM331.809 534.187H332.829V529.288H331.809V534.187Z" fill="#667085"/>
<path d="M24.1699 603.459C22.3721 603.459 21.1143 604.443 21.1211 605.906C21.1143 607.171 22.0918 608.094 23.5547 608.299V609.434C22.4268 609.475 21.3535 609.481 20.4375 609.475L20.5742 610.527C22.6797 610.534 25.5645 610.486 28.1348 610.021L28.0391 609.064C27.0273 609.215 25.9336 609.317 24.8535 609.379V608.285C26.2754 608.06 27.2188 607.15 27.2324 605.906C27.2188 604.443 25.9609 603.459 24.1699 603.459ZM22.1738 614.902H30.5273V613.836H23.4727V611.471H22.1738V614.902ZM22.3379 605.906C22.3242 605.018 23.0898 604.457 24.1699 604.457C25.2568 604.457 26.002 605.018 26.002 605.906C26.002 606.774 25.2568 607.342 24.1699 607.342C23.0898 607.342 22.3242 606.774 22.3379 605.906ZM28.791 612.291H30.0898V608.066H31.8398V606.973H30.0898V602.926H28.791V612.291ZM43.6217 612.605H40.6823V610.445H42.5416V609.379H35.0631V607.602H42.2545V603.773H33.7506V604.84H40.9694V606.549H33.778V610.445H35.4733V612.605H32.4108V613.699H43.6217V612.605ZM36.7311 612.605V610.445H39.4108V612.605H36.7311Z" fill="#101828"/>
<path d="M53.8398 604.102H52.1309L49.6836 605.688V607.314L51.9941 605.838H52.0488V614H53.8398V604.102Z" fill="#98A2B3"/>
<path d="M265.727 609.188H260.778V607.779H259.492V609.188H254.557V610.24H265.727V609.188ZM255.145 607.383L255.555 608.381C257.66 608.183 259.369 607.472 260.135 606.33C260.894 607.472 262.61 608.183 264.729 608.381L265.125 607.383C262.692 607.185 261.003 606.296 260.86 605.113H264.606V604.074H260.778V602.898H259.492V604.074H255.678V605.113H259.41C259.253 606.296 257.572 607.185 255.145 607.383ZM255.883 613.098C255.883 614.424 257.455 615.142 260.135 615.135C262.801 615.142 264.353 614.424 264.36 613.098C264.353 611.771 262.801 611.047 260.135 611.047C257.455 611.047 255.883 611.771 255.883 613.098ZM257.196 613.098C257.189 612.4 258.241 612.018 260.135 612.018C262.001 612.018 263.061 612.4 263.061 613.098C263.061 613.795 262.001 614.164 260.135 614.15C258.241 614.164 257.189 613.795 257.196 613.098ZM270.218 614H276.876V612.715H272.31V612.633L274.32 610.596C276.179 608.771 276.699 607.889 276.712 606.781C276.699 605.175 275.379 603.965 273.472 603.965C271.585 603.965 270.205 605.161 270.218 606.973H271.64C271.647 605.92 272.344 605.223 273.445 605.223C274.484 605.223 275.277 605.845 275.277 606.822C275.277 607.69 274.737 608.319 273.65 609.447L270.218 612.906V614ZM281.85 614.137C284.14 614.137 285.48 612.291 285.486 609.051C285.48 605.831 284.119 603.965 281.85 603.965C279.573 603.965 278.213 605.831 278.213 609.051C278.213 612.291 279.56 614.137 281.85 614.137ZM279.717 609.051C279.717 606.59 280.517 605.243 281.85 605.236C283.176 605.243 283.983 606.59 283.983 609.051C283.983 611.519 283.183 612.838 281.85 612.838C280.51 612.838 279.71 611.519 279.717 609.051ZM290.35 614.137C292.64 614.137 293.98 612.291 293.987 609.051C293.98 605.831 292.62 603.965 290.35 603.965C288.074 603.965 286.714 605.831 286.714 609.051C286.714 612.291 288.06 614.137 290.35 614.137ZM288.218 609.051C288.218 606.59 289.017 605.243 290.35 605.236C291.677 605.243 292.483 606.59 292.483 609.051C292.483 611.519 291.683 612.838 290.35 612.838C289.011 612.838 288.211 611.519 288.218 609.051ZM296.814 613.057H295.283L294.558 616.83H295.72L296.814 613.057ZM301.719 614.137C304.009 614.137 305.349 612.291 305.356 609.051C305.349 605.831 303.988 603.965 301.719 603.965C299.442 603.965 298.082 605.831 298.082 609.051C298.082 612.291 299.429 614.137 301.719 614.137ZM299.586 609.051C299.586 606.59 300.386 605.243 301.719 605.236C303.045 605.243 303.852 606.59 303.852 609.051C303.852 611.519 303.052 612.838 301.719 612.838C300.379 612.838 299.579 611.519 299.586 609.051ZM310.219 614.137C312.509 614.137 313.849 612.291 313.856 609.051C313.849 605.831 312.489 603.965 310.219 603.965C307.943 603.965 306.583 605.831 306.583 609.051C306.583 612.291 307.929 614.137 310.219 614.137ZM308.087 609.051C308.087 606.59 308.886 605.243 310.219 605.236C311.546 605.243 312.352 606.59 312.352 609.051C312.352 611.519 311.552 612.838 310.219 612.838C308.88 612.838 308.08 611.519 308.087 609.051ZM318.72 614.137C321.01 614.137 322.35 612.291 322.357 609.051C322.35 605.831 320.99 603.965 318.72 603.965C316.444 603.965 315.083 605.831 315.083 609.051C315.083 612.291 316.43 614.137 318.72 614.137ZM316.587 609.051C316.587 606.59 317.387 605.243 318.72 605.236C320.046 605.243 320.853 606.59 320.853 609.051C320.853 611.519 320.053 612.838 318.72 612.838C317.38 612.838 316.58 611.519 316.587 609.051ZM333.537 602.926H332.238V610.117H329.777V611.033H332.238V612.209H333.537V602.926ZM323.297 608.518L323.461 609.557C324.452 609.557 325.594 609.557 326.783 609.509V611.826H328.082V609.44C329.162 609.365 330.263 609.256 331.309 609.078L331.227 608.148C328.615 608.477 325.56 608.497 323.297 608.518ZM324.254 605.551C324.247 606.856 325.491 607.684 327.303 607.684C329.094 607.684 330.338 606.856 330.338 605.551C330.338 604.252 329.094 603.391 327.303 603.391C325.484 603.391 324.247 604.252 324.254 605.551ZM324.992 614.902H333.838V613.85H326.277V611.307H324.992V614.902ZM325.484 605.551C325.478 604.819 326.216 604.348 327.303 604.361C328.349 604.348 329.101 604.819 329.107 605.551C329.101 606.275 328.349 606.727 327.303 606.727C326.216 606.727 325.478 606.275 325.484 605.551Z" fill="#667085"/>
<g opacity="0.87">
<path d="M20 646C20 637.163 27.1634 630 36 630H339C347.837 630 355 637.163 355 646V694C355 702.837 347.837 710 339 710H36C27.1634 710 20 702.837 20 694V646Z" fill="#F2F4F7"/>
<path d="M46.8906 663C43.8125 662.992 42.0859 663.734 42.0938 665.141C42.0859 666.516 43.8125 667.234 46.8906 667.234C49.9375 667.234 51.6562 666.516 51.6719 665.141C51.6562 663.734 49.9375 662.992 46.8906 663ZM40.5625 662.125H53.2188V661.141H47.5V660.055C49.9922 659.961 51.3906 659.289 51.3906 658.094C51.3906 656.773 49.7656 656.102 46.8906 656.094C44.0078 656.102 42.375 656.773 42.375 658.094C42.375 659.289 43.7812 659.961 46.2812 660.055V661.141H40.5625V662.125ZM41.2188 655.531H52.4844V654.547H47.5V653.188H46.2812V654.547H41.2188V655.531ZM43.3438 665.141C43.3516 664.352 44.6328 663.922 46.8906 663.922C49.1406 663.922 50.4219 664.352 50.4219 665.141C50.4219 665.898 49.1406 666.32 46.8906 666.312C44.6328 666.32 43.3516 665.898 43.3438 665.141ZM43.6875 658.094C43.6797 657.359 44.8516 656.961 46.8906 656.969C48.9297 656.961 50.0859 657.359 50.0938 658.094C50.0859 658.781 48.9297 659.18 46.8906 659.188C44.8516 659.18 43.6797 658.781 43.6875 658.094ZM65.6994 653.375H64.4806V660.484H65.6994V653.375ZM54.465 659.75L54.9181 660.781C59.0275 659.82 61.5353 657.609 61.5431 654.062H55.1681V655.078H60.1994C59.9806 657.312 57.9494 658.977 54.465 659.75ZM56.6681 662.125H64.4806V663.562H56.6994V667.141H66.1994V666.156H57.9181V664.5H65.6994V661.141H56.6681V662.125ZM80.5706 660.25H74.8206V658.625H79.0863V657.625H70.7113V655.016H78.9925V654.031H69.5081V658.625H73.6331V660.25H67.8988V661.234H80.5706V660.25ZM69.43 664.75C69.4222 666.352 71.2269 667.25 74.2269 667.266C77.2034 667.25 78.9925 666.352 79.0081 664.75C78.9925 663.164 77.2034 662.258 74.2269 662.25C71.2269 662.258 69.4222 663.164 69.43 664.75ZM70.68 664.75C70.6644 663.789 72.0003 663.219 74.2269 663.219C76.43 663.219 77.7659 663.789 77.7738 664.75C77.7659 665.727 76.43 666.289 74.2269 666.281C72.0003 666.289 70.6644 665.727 70.68 664.75Z" fill="black"/>
<path d="M266.417 666.156C268.675 666.156 270.362 664.781 270.354 662.922C270.362 661.484 269.472 660.43 267.995 660.203V660.125C269.183 659.789 269.933 658.852 269.917 657.562C269.933 655.945 268.62 654.531 266.464 654.531C264.456 654.531 262.784 655.734 262.714 657.531H264.073C264.136 656.422 265.237 655.758 266.448 655.75C267.737 655.758 268.565 656.508 268.558 657.641C268.565 658.805 267.604 659.578 266.229 659.578H265.308V660.812H266.229C267.987 660.82 268.972 661.688 268.979 662.922C268.972 664.102 267.893 664.906 266.401 664.906C265.05 664.906 263.979 664.234 263.901 663.156H262.479C262.55 664.953 264.167 666.156 266.417 666.156ZM275.929 666.156C278.437 666.156 279.882 664.047 279.882 660.344C279.882 656.672 278.413 654.531 275.929 654.531C273.437 654.531 271.968 656.672 271.976 660.344C271.968 664.047 273.421 666.156 275.929 666.156ZM273.335 660.344C273.343 657.414 274.304 655.758 275.929 655.75C277.554 655.758 278.515 657.414 278.507 660.344C278.515 663.273 277.562 664.906 275.929 664.906C274.288 664.906 273.343 663.273 273.335 660.344ZM285.3 666.156C287.808 666.156 289.253 664.047 289.253 660.344C289.253 656.672 287.784 654.531 285.3 654.531C282.808 654.531 281.339 656.672 281.347 660.344C281.339 664.047 282.792 666.156 285.3 666.156ZM282.706 660.344C282.714 657.414 283.675 655.758 285.3 655.75C286.925 655.758 287.886 657.414 287.878 660.344C287.886 663.273 286.933 664.906 285.3 664.906C283.659 664.906 282.714 663.273 282.706 660.344ZM292.343 664.953H290.828L289.968 669.203H291.124L292.343 664.953ZM297.824 666.156C300.332 666.156 301.777 664.047 301.777 660.344C301.777 656.672 300.308 654.531 297.824 654.531C295.332 654.531 293.863 656.672 293.871 660.344C293.863 664.047 295.316 666.156 297.824 666.156ZM295.23 660.344C295.238 657.414 296.199 655.758 297.824 655.75C299.449 655.758 300.41 657.414 300.402 660.344C300.41 663.273 299.457 664.906 297.824 664.906C296.183 664.906 295.238 663.273 295.23 660.344ZM307.195 666.156C309.703 666.156 311.148 664.047 311.148 660.344C311.148 656.672 309.679 654.531 307.195 654.531C304.703 654.531 303.234 656.672 303.242 660.344C303.234 664.047 304.687 666.156 307.195 666.156ZM304.601 660.344C304.609 657.414 305.57 655.758 307.195 655.75C308.82 655.758 309.781 657.414 309.773 660.344C309.781 663.273 308.828 664.906 307.195 664.906C305.554 664.906 304.609 663.273 304.601 660.344ZM316.566 666.156C319.074 666.156 320.519 664.047 320.519 660.344C320.519 656.672 319.051 654.531 316.566 654.531C314.074 654.531 312.605 656.672 312.613 660.344C312.605 664.047 314.058 666.156 316.566 666.156ZM313.973 660.344C313.98 657.414 314.941 655.758 316.566 655.75C318.191 655.758 319.152 657.414 319.144 660.344C319.152 663.273 318.199 664.906 316.566 664.906C314.926 664.906 313.98 663.273 313.973 660.344ZM333.188 653.391H331.953V661.609H329.078V662.5H331.953V663.938H333.188V653.391ZM321.656 659.828L321.828 660.828C322.992 660.828 324.328 660.828 325.734 660.773V663.453H326.969V660.711C328.242 660.633 329.547 660.508 330.781 660.312L330.703 659.422C327.727 659.789 324.242 659.812 321.656 659.828ZM322.781 656.375C322.773 657.859 324.164 658.781 326.219 658.781C328.258 658.781 329.648 657.859 329.656 656.375C329.648 654.914 328.258 653.953 326.219 653.953C324.164 653.953 322.773 654.914 322.781 656.375ZM323.656 666.969H333.531V665.938H324.891V662.906H323.656V666.969ZM323.953 656.375C323.938 655.484 324.859 654.875 326.219 654.891C327.539 654.875 328.477 655.484 328.484 656.375C328.477 657.281 327.539 657.867 326.219 657.875C324.859 657.867 323.938 657.281 323.953 656.375Z" fill="black"/>
<path d="M48 676.667L42 679.334V683.334C42 687.034 44.56 690.494 48 691.334C51.44 690.494 54 687.034 54 683.334V679.334L48 676.667ZM46.6667 687.334L44 684.667L44.94 683.727L46.6667 685.447L51.06 681.054L52 682L46.6667 687.334Z" fill="#0046CF"/>
<path d="M69.1416 683.972H65.2422V682.951H68.1211V682.135H62.46V680.534H68.0566V679.729H61.4502V682.951H64.2539V683.972H60.3545V684.788H69.1416V683.972ZM61.3965 687.162C61.3965 688.279 62.6479 688.908 64.7373 688.913C66.8105 688.908 68.0513 688.279 68.0566 687.162C68.0513 686.045 66.8105 685.417 64.7373 685.411C62.6479 685.417 61.3965 686.045 61.3965 687.162ZM62.4277 687.162C62.4224 686.555 63.2656 686.206 64.7373 686.206C66.1875 686.206 67.0361 686.555 67.0361 687.162C67.0361 687.78 66.1875 688.118 64.7373 688.107C63.2656 688.118 62.4224 687.78 62.4277 687.162ZM72.888 679.976C71.3734 679.97 70.2616 680.91 70.267 682.264C70.2616 683.617 71.3734 684.557 72.888 684.562C74.4081 684.557 75.5038 683.617 75.5091 682.264C75.5038 680.91 74.4081 679.97 72.888 679.976ZM69.805 686.013L69.9339 686.861C71.6527 686.861 73.9891 686.851 76.1644 686.432L76.0892 685.69C73.9838 685.997 71.556 686.013 69.805 686.013ZM71.2767 682.264C71.266 681.42 71.9535 680.856 72.888 680.856C73.8226 680.856 74.5101 681.42 74.5101 682.264C74.5101 683.118 73.8226 683.671 72.888 683.671C71.9535 683.671 71.266 683.118 71.2767 682.264ZM76.6908 688.935H77.7113V679.288H76.6908V688.935ZM86.7107 679.288H85.6902V685.089H86.7107V682.65H88.1071V681.78H86.7107V679.288ZM79.1589 681.082H84.8952V680.266H82.5427V679.213H81.5222V680.266H79.1589V681.082ZM79.6853 683.22C79.6799 684.262 80.6252 684.944 82.0271 684.949C83.4128 684.944 84.3581 684.262 84.3581 683.22C84.3581 682.194 83.4182 681.501 82.0271 681.501C80.6252 681.501 79.6799 682.194 79.6853 683.22ZM80.5661 688.795H86.7107V685.594H80.5661V688.795ZM80.6736 683.22C80.6628 682.645 81.2107 682.28 82.0271 682.285C82.8435 682.28 83.3913 682.645 83.4021 683.22C83.3913 683.816 82.8435 684.17 82.0271 684.176C81.2107 684.17 80.6628 683.816 80.6736 683.22ZM81.5652 687.968V686.399H85.7009V687.968H81.5652Z" fill="#667085"/>
<path d="M318.77 680.824V679.793H317.76V680.738C317.75 682.178 316.88 683.461 315.376 683.993L315.923 684.81C317.046 684.396 317.862 683.547 318.281 682.468C318.7 683.418 319.49 684.17 320.543 684.541L321.09 683.735C319.656 683.263 318.765 682.086 318.77 680.824ZM316.675 687.108C316.675 688.247 317.905 688.897 319.909 688.892C321.885 688.897 323.099 688.247 323.099 687.108C323.099 685.98 321.885 685.32 319.909 685.325C317.905 685.32 316.675 685.98 316.675 687.108ZM317.696 687.108C317.691 686.496 318.518 686.131 319.909 686.131C321.289 686.131 322.106 686.496 322.1 687.108C322.106 687.742 321.289 688.086 319.909 688.097C318.518 688.086 317.691 687.742 317.696 687.108ZM321.993 685.1H323.013V682.564H324.41V681.705H323.013V679.288H321.993V685.1ZM332.421 679.288H331.4V686.808H332.421V683.435H333.796V682.586H332.421V679.288ZM324.783 684.938L324.891 685.755C326.572 685.739 328.887 685.712 330.938 685.325L330.853 684.605C330.047 684.729 329.177 684.81 328.317 684.858V684.229C329.402 684.106 330.084 683.58 330.09 682.79C330.084 681.855 329.182 681.297 327.802 681.308C326.421 681.297 325.503 681.855 325.514 682.79C325.503 683.58 326.201 684.106 327.297 684.235V684.906C326.389 684.938 325.524 684.938 324.783 684.938ZM325.03 680.932H330.584V680.18H328.317V679.256H327.297V680.18H325.03V680.932ZM326.201 688.709H332.765V687.882H327.222V686.303H326.201V688.709ZM326.48 682.79C326.48 682.291 326.98 682 327.802 682.006C328.613 682 329.118 682.291 329.112 682.79C329.118 683.257 328.613 683.553 327.802 683.553C326.98 683.553 326.48 683.257 326.48 682.79Z" fill="#667085"/>
</g>
</svg>
