<svg width="14" height="14" viewBox="0 0 14 14" fill="none" xmlns="http://www.w3.org/2000/svg">
<path d="M6.41602 4.08317H7.58268V5.24984H6.41602V4.08317ZM6.41602 6.4165H7.58268V9.9165H6.41602V6.4165ZM6.99935 1.1665C3.77935 1.1665 1.16602 3.77984 1.16602 6.99984C1.16602 10.2198 3.77935 12.8332 6.99935 12.8332C10.2193 12.8332 12.8327 10.2198 12.8327 6.99984C12.8327 3.77984 10.2193 1.1665 6.99935 1.1665ZM6.99935 11.6665C4.42685 11.6665 2.33268 9.57234 2.33268 6.99984C2.33268 4.42734 4.42685 2.33317 6.99935 2.33317C9.57185 2.33317 11.666 4.42734 11.666 6.99984C11.666 9.57234 9.57185 11.6665 6.99935 11.6665Z" fill="#667085"/>
</svg>
