<svg width="375" height="374" viewBox="0 0 375 374" fill="none" xmlns="http://www.w3.org/2000/svg">
<g clip-path="url(#clip0_1273_23756)">
<rect width="375" height="812" transform="translate(0 -271)" fill="white"/>
<rect x="-69.9551" y="25.6113" width="226.142" height="204.045" fill="#EDECEC"/>
<path d="M46.4426 70.3072C31.4572 36.3725 65.2155 34.3021 70.4533 48.4808C80.694 66.4132 76.3529 74.1875 69.3151 76.5655C71.0508 83.3983 75.64 98.841 71.1245 104.337C65.4801 111.207 61.7278 114.484 58.0047 105.455C55.0262 98.2313 52.5842 83.2563 51.7355 76.6717C49.5293 77.3067 45.382 76.9227 46.4426 70.3072Z" fill="#FFFAE2"/>
<path d="M60.5348 77.3887C63.2585 77.6776 66.4685 77.5274 69.3151 76.5655M70.4533 48.4808C65.2155 34.3021 31.4572 36.3725 46.4426 70.3072M70.4533 48.4808C80.694 66.4132 76.3529 74.1875 69.3151 76.5655M70.4533 48.4808C70.4533 48.4808 51.1911 59.5181 61.276 53.0041C71.3608 46.4901 50.6874 56.8044 50.6874 56.8044L52.8022 68.1964C50.249 66.7247 47.5083 68.0168 46.4426 70.3072M46.4426 70.3072C45.382 76.9227 49.5293 77.3067 51.7355 76.6717C52.5842 83.2563 55.0262 98.2313 58.0047 105.455C61.7278 114.484 65.4801 111.207 71.1245 104.337C75.64 98.841 71.0508 83.3983 69.3151 76.5655" stroke="#232540" stroke-width="1.8806" stroke-linecap="round" stroke-linejoin="round"/>
<path d="M46.2734 70.5502C30.9282 38.9047 63.5758 31.6653 70.8075 48.4818L50.8648 56.6244L53.1561 68.9212C48.9215 66.5711 46.4185 69.6457 46.2734 70.5502Z" fill="#232540"/>
<rect x="-2.11567" y="2.11567" width="203.575" height="213.448" rx="11.0485" transform="matrix(-1 0 0 1 151.956 0.222656)" stroke="#EDECEC" stroke-width="4.23134"/>
<path d="M25.3438 227.304L34.1626 188.752H77.375L66.2632 227.304H25.3438Z" fill="#232540"/>
<path d="M103.625 227.305L96.0123 185.932H62.375V205.392L69.875 220.253L77.2462 227.305H103.625Z" fill="#232540"/>
<path d="M68.9375 214.611L71.5156 200.977" stroke="#0046CF" stroke-width="1.8806" stroke-linecap="round" stroke-linejoin="round"/>
<path d="M146.785 100.841C149.743 96.9513 156.26 88.8307 157.85 84.0782C157.85 84.0782 162.853 73.1051 161.681 71.6371C160.532 70.1974 157.623 77.1568 155.442 80.1563C158.178 76.369 160.81 66.3762 159.607 65.8503C157.561 64.9552 153.01 75.6158 150.866 79.3197C153.033 75.4818 158.226 64.4259 156.279 61.8254C155.406 60.6602 149.533 71.5728 147.542 76.639C148.727 73.5096 150.512 65.6793 150.513 64.0593C150.517 58.7624 143.45 72.8014 141.616 78.6314L135.477 98.4103L146.785 100.841Z" fill="#FFFAE2"/>
<path d="M146.785 100.841C149.743 96.9513 156.26 88.8307 157.85 84.0782C157.85 84.0782 162.853 73.1051 161.681 71.6371C160.509 70.169 157.508 77.435 155.314 80.3293C158.095 76.6838 160.828 66.3845 159.607 65.8503C157.561 64.9552 153.01 75.6158 150.866 79.3197C153.033 75.4818 158.226 64.4259 156.279 61.8254C155.393 60.643 149.358 71.897 147.457 76.8591C148.639 73.8947 150.512 65.7188 150.513 64.0593C150.517 58.7624 143.45 72.8014 141.616 78.6314L135.477 98.4103L146.785 100.841Z" stroke="#232540" stroke-width="1.8806" stroke-linecap="round" stroke-linejoin="round"/>
<path d="M135.95 83.4127C135.649 86.8067 133.517 93.3617 132.056 96.2215L138.375 93.3308L144.693 90.4401C146.744 88.2876 142.851 84.6454 141.216 82.8625C140.152 75.3826 140.229 71.8045 138.459 71.5974C135.763 71.282 136.384 78.517 135.95 83.4127Z" fill="#FFFAE2"/>
<path d="M132.056 96.2209C133.517 93.361 135.649 86.8059 135.95 83.4118C136.383 78.516 135.763 71.2808 138.459 71.5963C140.229 71.8034 140.152 75.3816 141.216 82.8616C143.243 82.8695 144.863 87.8489 142.812 90.0014" stroke="#232540" stroke-width="1.8806" stroke-linecap="round" stroke-linejoin="round"/>
<path d="M113.854 123.542C100.487 85.2757 77.6986 81.8936 67.9754 84.9858H54.3818C27.4777 88.4646 -5.93994 136.587 -2.54153 152.822C0.177193 165.809 22.3517 170.155 31.9805 170.735L29.7433 192.537L107.34 196.596L100.543 142.675C102.148 147.217 108.133 155.605 119.235 152.822C130.336 150.039 144.743 117.477 150.029 100.567L133.961 84.9858L113.854 123.542Z" fill="#0046CF"/>
<path d="M49.3453 81.4128C49.3453 81.4128 51.8452 91.9587 53.3728 93.9171L71.9237 92.1722L73.025 80.2901L49.3453 81.4128Z" fill="#0046CF"/>
<path d="M27.2168 141.982C27.2167 135.291 36.0396 126.791 36.0396 126.791L33.5692 147.95C29.8698 146.272 27.2168 144.008 27.2168 141.982Z" fill="#FFFAE2"/>
<path d="M53.8616 153.195C53.8616 153.195 42.0879 151.815 33.5692 147.95M33.5692 147.95C29.8698 146.272 27.2168 144.008 27.2168 141.982C27.2167 135.291 36.0396 126.791 36.0396 126.791L33.5692 147.95Z" stroke="#232540" stroke-width="1.8806" stroke-linecap="round" stroke-linejoin="round"/>
<path d="M99.5624 139.269C99.5624 139.269 92.8571 112.866 85.2695 107.621" stroke="#232540" stroke-width="1.8806" stroke-linecap="round" stroke-linejoin="round"/>
<path d="M66.75 61.4551C79.2369 58.799 81.3714 58.8954 67.6228 65.6044L66.75 61.4551Z" fill="#FFFAE2"/>
<path d="M68.3066 60.5156C78.239 60.2698 80.5791 59.7105 69.9166 65.0339" stroke="#232540" stroke-width="1.8806" stroke-linecap="round" stroke-linejoin="round"/>
<path d="M69.9272 65.1709L71.2167 68.7893C70.2688 70.0091 67.7512 71.6987 65.2646 68.6996" stroke="#232540" stroke-width="1.8806" stroke-linecap="round" stroke-linejoin="round"/>
<ellipse rx="0.946551" ry="2.25265" transform="matrix(0.911063 -0.415049 0.396713 0.916737 70.672 57.2015)" fill="#232540"/>
<ellipse rx="0.946551" ry="2.25265" transform="matrix(0.911063 -0.415049 0.396714 0.916737 62.6974 60.3832)" fill="#232540"/>
<path d="M44.2407 157.525C30.2594 164.052 54.4328 165.19 60.4312 165.738C65.5206 166.203 94.8647 160.222 94.6325 158.907C94.252 156.753 83.0629 159.429 81.2367 158.472C85.3797 157.681 97.8632 154.779 98.0151 153C98.167 151.221 84.884 154.664 81.5287 154.393C87.8826 152.242 100.175 148.159 98.4074 146.094C97.5348 145.074 84.2246 149.739 77.4809 150.873C83.4402 147.955 96.8698 145.491 95.0601 143.716C93.8419 142.521 78.3851 145.474 71.6183 147.781C74.348 145.483 75.6194 141.866 76.1954 139.401C76.3981 138.534 75.3867 138.025 74.7484 138.642C70.1953 143.042 58.0047 153.807 44.2407 157.525Z" fill="#FFFAE2" stroke="#232540" stroke-width="1.8806" stroke-linecap="round" stroke-linejoin="round"/>
<path d="M67.0934 179.055L40.625 173.693V147.045H62.5055L67.0934 179.055Z" fill="#0046CF"/>
<path d="M36.9199 171.096C36.9199 171.096 47.1544 172.904 60.3885 171.096" stroke="#232540" stroke-width="1.8806" stroke-linecap="round" stroke-linejoin="round"/>
<path d="M-63.6934 116.35H45.5632L59.1695 185.491H-49.2747L-63.6934 116.35Z" fill="white"/>
<path d="M-71.6523 116.35H38.0466L51.708 185.491H-57.1753L-71.6523 116.35Z" fill="#C7C7C7"/>
<path d="M-12.5977 185.461H7.61876V221.192H-8.19569L-12.5977 185.461Z" fill="#C7C7C7"/>
<rect x="17.4922" y="213.67" width="60.1791" height="5.17164" fill="#C7C7C7"/>
<rect x="86.6035" y="209.439" width="18.3358" height="9.40298" fill="#C7C7C7"/>
<rect x="86.6035" y="209.439" width="13.6343" height="9.40298" fill="#C7C7C7"/>
<rect x="-165.749" y="226.718" width="5.87686" height="289.377" transform="rotate(-90 -165.749 226.718)" fill="#C7C7C7" stroke="#C7C7C7" stroke-width="5.87686"/>
<rect x="-2.11567" y="2.11567" width="202.634" height="322.052" rx="11.0485" transform="matrix(-1 0 0 1 430.448 61.4023)" stroke="#EDECEC" stroke-width="4.23134"/>
<path d="M333.117 125.643C317.781 118.845 315.018 118.334 330.93 130.297L333.117 125.643Z" fill="#FFFAE2"/>
<path d="M331.363 124.076C318.684 120.878 315.826 119.532 328.135 128.952" stroke="#232540" stroke-width="1.8806" stroke-linecap="round" stroke-linejoin="round"/>
<ellipse rx="1.2343" ry="2.7541" transform="matrix(-0.814431 -0.581122 -0.609228 0.792305 329.18 119.463)" fill="#232540"/>
<ellipse rx="1.2343" ry="2.7541" transform="matrix(-0.814431 -0.581122 -0.609229 0.792305 338.594 125.561)" fill="#232540"/>
<path d="M329.943 116.12C323.342 123.759 313.747 139.551 330.808 144.033L330.808 166.441L352.641 166.441L349.745 151.473L348.201 143.325L352.283 141.797C359.034 139.421 366.143 126.417 353.299 114.903C345.683 109.203 337.051 109.204 329.943 116.12Z" fill="#FFFAE2"/>
<path d="M329.943 116.12L335.274 119.099L330.808 126.467C333.677 123.904 337.51 125.506 338.148 126.467C341.854 132.042 336.306 136.822 331.905 137.162L348.201 143.325M329.943 116.12C323.342 123.759 313.747 139.551 330.808 144.033M329.943 116.12C337.051 109.204 345.683 109.203 353.299 114.903C366.143 126.417 359.034 139.421 352.283 141.797L348.201 143.325M330.808 144.033C333.177 144.543 328.37 146.885 330.808 144.033ZM330.808 144.033C329.082 145.391 334.79 145.663 330.808 144.033ZM330.808 144.033L330.808 166.441L352.641 166.441L349.745 151.473L348.201 143.325" stroke="#232540" stroke-width="1.8806" stroke-linecap="round" stroke-linejoin="round"/>
<path d="M337.51 126.012C342.62 129.03 337.119 137.02 332.719 137.359L348.201 143.327L352.283 141.799C359.034 139.423 366.143 126.418 353.299 114.904C345.683 109.205 337.051 109.205 329.943 116.122L334.954 119.43L331.599 124.865C331.599 124.865 335.932 125.08 337.51 126.012Z" fill="#232540"/>
<path d="M288.002 433.752C294.079 312.295 308.26 264.712 314.59 256.102L358.271 249.803L318.388 437.532L288.002 433.752Z" fill="#232540"/>
<path d="M361.27 435.609L348.687 305.277L348.687 245.462C355.818 236.647 371.336 225.818 376.369 253.018C381.402 280.218 387.693 386.079 390.21 435.609L361.27 435.609Z" fill="#232540"/>
<path d="M349.326 292.731L351.881 292.09L354.437 291.449" stroke="#0046CF" stroke-width="1.8806" stroke-linecap="round" stroke-linejoin="round"/>
<path d="M421.836 88.1157L230.116 88.1157L230.116 300.836C230.116 306.938 235.062 311.884 241.164 311.884L421.836 311.884C427.938 311.884 432.884 306.938 432.884 300.836L432.884 99.1642C432.884 93.0623 427.938 88.1157 421.836 88.1157Z" stroke="#EDECEC" stroke-width="4.23134"/>
<path d="M215.558 135.174C214.7 136.452 226.601 152.785 231.618 159.427L235.238 157.766L243.313 153.938C243.258 152.198 243.022 154.448 242.366 152.147C241.547 149.271 242.86 134.129 240.968 132.85C239.454 131.826 237.881 138.811 237.283 142.432C235.089 135.685 230.422 122.469 229.311 123.576C228.201 124.683 230.379 134.049 231.606 138.594C229.538 133.481 224.933 123.403 223.066 123.998C221.382 124.534 224.777 132.911 227.236 138.249C225.071 133.811 221.294 127.264 219.475 127.263C218.185 127.262 221.984 138.125 224.061 142.316C219.987 136.775 216.631 133.578 215.558 135.174Z" fill="#FFFAE2"/>
<path d="M231.618 159.427C226.601 152.785 214.7 136.452 215.558 135.174C216.631 133.578 219.987 136.775 224.061 142.316C221.984 138.125 218.185 127.262 219.475 127.263C221.533 127.264 226.097 135.643 227.998 139.869C225.576 134.827 221.199 124.593 223.066 123.998C224.933 123.403 229.538 133.481 231.606 138.594C230.379 134.049 228.201 124.683 229.311 123.576C230.422 122.469 235.089 135.685 237.283 142.432C237.881 138.811 239.454 131.826 240.968 132.85C242.86 134.129 241.547 149.271 242.366 152.147C243.022 154.448 243.258 152.198 243.313 153.938L235.238 157.766L231.618 159.427Z" stroke="#232540" stroke-width="1.8806" stroke-linecap="round" stroke-linejoin="round"/>
<path d="M326.969 150.813L331.121 158.181L350.924 156.259L353.799 149.531L326.969 150.813Z" fill="#E3DEE3" stroke="#E3DEE3" stroke-width="1.8806"/>
<path d="M412.986 266.136C396.395 162.281 357.89 147.348 340.711 152.863C308.03 152.863 277.235 175.348 265.922 186.591L244.554 146.5L227.361 158.429C229.474 167.406 253.353 209.5 262.78 213.318C270.322 216.373 293.575 201.864 304.259 194.227L304.259 262.955L381.562 262.955L378.42 231.136L394.76 272.5L412.986 266.136Z" fill="#E3DEE3"/>
<mask id="mask0_1273_23756" style="mask-type:alpha" maskUnits="userSpaceOnUse" x="227" y="146" width="186" height="127">
<path d="M412.986 266.136C396.395 162.281 357.89 147.348 340.711 152.863C308.03 152.863 277.235 175.348 265.922 186.591L244.554 146.5L227.361 158.429C229.474 167.406 253.353 209.5 262.78 213.318C270.322 216.373 293.575 201.864 304.259 194.227L304.259 262.955L381.562 262.955L378.42 231.136L394.76 272.5L412.986 266.136Z" fill="#5E44FF"/>
</mask>
<g mask="url(#mask0_1273_23756)">
<path d="M227.584 232.538C237.46 213.552 274.939 156.374 281.736 177.53C288.533 193.986 295.516 205.079 303.278 206.592C315.378 208.952 323.673 198.378 330.803 190.232C341.13 178.436 357.776 148.467 377.889 157.96C395.32 166.187 417.269 182.973 431.728 161.219" stroke="#FFFAE2" stroke-width="1.8806" stroke-linecap="round" stroke-linejoin="round"/>
<path d="M248.229 247.492C257.72 235.452 265.062 227.221 280.341 223.336C290.284 220.808 301.28 218.735 311.562 218.735C328.228 218.735 340.434 222.803 353.487 208.893C360.697 201.209 361.671 185.95 369.837 179.046C377.322 172.719 388.188 176.316 397.323 173.873" stroke="#FFFAE2" stroke-width="1.8806" stroke-linecap="round" stroke-linejoin="round"/>
<path d="M299.838 265.896C303.436 260.189 306.84 252.889 312.836 249.281C322.611 243.399 333.822 239.473 344.948 237.203C352.122 235.739 359.587 236.024 366.612 234.583C375.784 232.701 373.69 226.457 377.596 218.39C379.294 214.885 398.252 211.586 411.453 208.096C419.175 206.055 425.722 207.466 420.168 213.206C405.266 228.61 369.962 255.945 387.08 265.896" stroke="#FFFAE2" stroke-width="1.8806" stroke-linecap="round" stroke-linejoin="round"/>
<path d="M229.309 194.099C233.285 177.349 251.889 171.234 267.028 168.281C271.665 167.377 276.25 167.912 280.918 167.578C285.855 167.224 288.022 162.818 291.24 159.59" stroke="#FFFAE2" stroke-width="1.8806" stroke-linecap="round" stroke-linejoin="round"/>
</g>
<path d="M378.071 227.379C377.645 208.692 369.255 167.408 356.99 155.619" stroke="#232540" stroke-width="1.8806" stroke-linecap="round" stroke-linejoin="round"/>
<path d="M305.887 193.741C308.761 192.139 311.955 189.897 314.511 187.334" stroke="#232540" stroke-width="1.8806" stroke-linecap="round" stroke-linejoin="round"/>
<path d="M175.5 58.999L186.76 56.4425L178.916 47.9689L175.5 58.999ZM182.598 53.7547C186.355 51.6229 191.245 50.0968 196.111 50.583C200.928 51.0641 205.814 53.5221 209.657 59.5373L211.343 58.4606C207.176 51.9382 201.747 49.1359 196.31 48.5929C190.923 48.0548 185.62 49.7406 181.611 52.0152L182.598 53.7547Z" fill="black"/>
<path d="M210 110.999L198.74 113.556L206.584 122.029L210 110.999ZM202.902 116.243C199.145 118.375 194.255 119.901 189.389 119.415C184.572 118.934 179.686 116.476 175.843 110.461L174.157 111.537C178.324 118.06 183.753 120.862 189.19 121.405C194.577 121.943 199.88 120.257 203.889 117.983L202.902 116.243Z" fill="black"/>
<circle cx="193" cy="85.998" r="18" fill="#FFD43B"/>
<circle cx="193" cy="85.998" r="21" stroke="#FFD43B" stroke-width="2"/>
<path d="M184 79.998L188.821 93.998L193.321 79.998L198.464 93.998L202 79.998" stroke="white" stroke-width="2" stroke-linejoin="round"/>
<path d="M181 86.998H204.5" stroke="white" stroke-width="2" stroke-linejoin="round"/>
</g>
<defs>
<clipPath id="clip0_1273_23756">
<rect width="375" height="812" fill="white" transform="translate(0 -271)"/>
</clipPath>
</defs>
</svg>
