<svg width="24" height="24" viewBox="0 0 24 24" fill="none" xmlns="http://www.w3.org/2000/svg">
<g clip-path="url(#clip0_1579_44818)">
<path d="M21.7988 12.1113C21.7988 17.4616 17.4616 21.7988 12.1113 21.7988C6.76105 21.7988 2.42383 17.4616 2.42383 12.1113C2.42383 6.76106 6.76105 2.42383 12.1113 2.42383C17.4616 2.42383 21.7988 6.76106 21.7988 12.1113ZM10.9908 17.2408L18.1783 10.0533C18.4223 9.80922 18.4223 9.41348 18.1783 9.16941L17.2944 8.28555C17.0504 8.04145 16.6546 8.04145 16.4105 8.28555L10.5488 14.1472L7.81215 11.4105C7.56809 11.1664 7.17234 11.1664 6.92824 11.4105L6.04437 12.2944C5.80031 12.5384 5.80031 12.9342 6.04437 13.1782L10.1069 17.2407C10.351 17.4848 10.7467 17.4848 10.9908 17.2408V17.2408Z" fill="white"/>
</g>
<defs>
<clipPath id="clip0_1579_44818">
<rect width="20" height="20" fill="white" transform="translate(2.11133 2.11133)"/>
</clipPath>
</defs>
</svg>
